$MeshFormat
4.1 0 8
$EndMeshFormat
$PhysicalNames
8
1 1 "1"
1 2 "2"
1 3 "3"
1 4 "4"
1 5 "5"
1 6 "6"
1 7 "7"
2 8 "interior"
$EndPhysicalNames
$Entities
0 7 1 0
1 0.0 -0.04237959474171062 0.0 1.0 0.07907551077108352 0.0 1 1 0
2 -0.1921538220782566 -0.1029158937763976 0.0 -0.02616959114220163 0.01471528727020921 0.0 1 2 0
3 1.03959048661671 -0.1256545654351749 0.0 1.266576946759163 -0.01292771697477845 0.0 1 3 0
4 -80.00000000008131 -100.0 0.0 100.0 -100.0 0.0 1 4 0
5 100.0 -100.0 0.0 100.0 100.0 0.0 1 5 0
6 -100.0 100.0 0.0 100.0 100.0 0.0 1 6 0
7 -100.0 -94.46373207497801 0.0 -92.4490405088719 100.0 0.0 1 7 0
1 -100.0 -100.0 0.0 100.0 100.0 0.0 1 8 7 1 2 3 4 5 6 7
$EndEntities
$Nodes
1 1437 1 1437
2 1 0 1437
1
2
3
4
5
6
7
8
9
10
11
12
13
14
15
16
17
18
19
20
21
22
23
24
25
26
27
28
29
30
31
32
33
34
35
36
37
38
39
40
41
42
43
44
45
46
47
48
49
50
51
52
53
54
55
56
57
58
59
60
61
62
63
64
65
66
67
68
69
70
71
72
73
74
75
76
77
78
79
80
81
82
83
84
85
86
87
88
89
90
91
92
93
94
95
96
97
98
99
100
101
102
103
104
105
106
107
108
109
110
111
112
113
114
115
116
117
118
119
120
121
122
123
124
125
126
127
128
129
130
131
132
133
134
135
136
137
138
139
140
141
142
143
144
145
146
147
148
149
150
151
152
153
154
155
156
157
158
159
160
161
162
163
164
165
166
167
168
169
170
171
172
173
174
175
176
177
178
179
180
181
182
183
184
185
186
187
188
189
190
191
192
193
194
195
196
197
198
199
200
201
202
203
204
205
206
207
208
209
210
211
212
213
214
215
216
217
218
219
220
221
222
223
224
225
226
227
228
229
230
231
232
233
234
235
236
237
238
239
240
241
242
243
244
245
246
247
248
249
250
251
252
253
254
255
256
257
258
259
260
261
262
263
264
265
266
267
268
269
270
271
272
273
274
275
276
277
278
279
280
281
282
283
284
285
286
287
288
289
290
291
292
293
294
295
296
297
298
299
300
301
302
303
304
305
306
307
308
309
310
311
312
313
314
315
316
317
318
319
320
321
322
323
324
325
326
327
328
329
330
331
332
333
334
335
336
337
338
339
340
341
342
343
344
345
346
347
348
349
350
351
352
353
354
355
356
357
358
359
360
361
362
363
364
365
366
367
368
369
370
371
372
373
374
375
376
377
378
379
380
381
382
383
384
385
386
387
388
389
390
391
392
393
394
395
396
397
398
399
400
401
402
403
404
405
406
407
408
409
410
411
412
413
414
415
416
417
418
419
420
421
422
423
424
425
426
427
428
429
430
431
432
433
434
435
436
437
438
439
440
441
442
443
444
445
446
447
448
449
450
451
452
453
454
455
456
457
458
459
460
461
462
463
464
465
466
467
468
469
470
471
472
473
474
475
476
477
478
479
480
481
482
483
484
485
486
487
488
489
490
491
492
493
494
495
496
497
498
499
500
501
502
503
504
505
506
507
508
509
510
511
512
513
514
515
516
517
518
519
520
521
522
523
524
525
526
527
528
529
530
531
532
533
534
535
536
537
538
539
540
541
542
543
544
545
546
547
548
549
550
551
552
553
554
555
556
557
558
559
560
561
562
563
564
565
566
567
568
569
570
571
572
573
574
575
576
577
578
579
580
581
582
583
584
585
586
587
588
589
590
591
592
593
594
595
596
597
598
599
600
601
602
603
604
605
606
607
608
609
610
611
612
613
614
615
616
617
618
619
620
621
622
623
624
625
626
627
628
629
630
631
632
633
634
635
636
637
638
639
640
641
642
643
644
645
646
647
648
649
650
651
652
653
654
655
656
657
658
659
660
661
662
663
664
665
666
667
668
669
670
671
672
673
674
675
676
677
678
679
680
681
682
683
684
685
686
687
688
689
690
691
692
693
694
695
696
697
698
699
700
701
702
703
704
705
706
707
708
709
710
711
712
713
714
715
716
717
718
719
720
721
722
723
724
725
726
727
728
729
730
731
732
733
734
735
736
737
738
739
740
741
742
743
744
745
746
747
748
749
750
751
752
753
754
755
756
757
758
759
760
761
762
763
764
765
766
767
768
769
770
771
772
773
774
775
776
777
778
779
780
781
782
783
784
785
786
787
788
789
790
791
792
793
794
795
796
797
798
799
800
801
802
803
804
805
806
807
808
809
810
811
812
813
814
815
816
817
818
819
820
821
822
823
824
825
826
827
828
829
830
831
832
833
834
835
836
837
838
839
840
841
842
843
844
845
846
847
848
849
850
851
852
853
854
855
856
857
858
859
860
861
862
863
864
865
866
867
868
869
870
871
872
873
874
875
876
877
878
879
880
881
882
883
884
885
886
887
888
889
890
891
892
893
894
895
896
897
898
899
900
901
902
903
904
905
906
907
908
909
910
911
912
913
914
915
916
917
918
919
920
921
922
923
924
925
926
927
928
929
930
931
932
933
934
935
936
937
938
939
940
941
942
943
944
945
946
947
948
949
950
951
952
953
954
955
956
957
958
959
960
961
962
963
964
965
966
967
968
969
970
971
972
973
974
975
976
977
978
979
980
981
982
983
984
985
986
987
988
989
990
991
992
993
994
995
996
997
998
999
1000
1001
1002
1003
1004
1005
1006
1007
1008
1009
1010
1011
1012
1013
1014
1015
1016
1017
1018
1019
1020
1021
1022
1023
1024
1025
1026
1027
1028
1029
1030
1031
1032
1033
1034
1035
1036
1037
1038
1039
1040
1041
1042
1043
1044
1045
1046
1047
1048
1049
1050
1051
1052
1053
1054
1055
1056
1057
1058
1059
1060
1061
1062
1063
1064
1065
1066
1067
1068
1069
1070
1071
1072
1073
1074
1075
1076
1077
1078
1079
1080
1081
1082
1083
1084
1085
1086
1087
1088
1089
1090
1091
1092
1093
1094
1095
1096
1097
1098
1099
1100
1101
1102
1103
1104
1105
1106
1107
1108
1109
1110
1111
1112
1113
1114
1115
1116
1117
1118
1119
1120
1121
1122
1123
1124
1125
1126
1127
1128
1129
1130
1131
1132
1133
1134
1135
1136
1137
1138
1139
1140
1141
1142
1143
1144
1145
1146
1147
1148
1149
1150
1151
1152
1153
1154
1155
1156
1157
1158
1159
1160
1161
1162
1163
1164
1165
1166
1167
1168
1169
1170
1171
1172
1173
1174
1175
1176
1177
1178
1179
1180
1181
1182
1183
1184
1185
1186
1187
1188
1189
1190
1191
1192
1193
1194
1195
1196
1197
1198
1199
1200
1201
1202
1203
1204
1205
1206
1207
1208
1209
1210
1211
1212
1213
1214
1215
1216
1217
1218
1219
1220
1221
1222
1223
1224
1225
1226
1227
1228
1229
1230
1231
1232
1233
1234
1235
1236
1237
1238
1239
1240
1241
1242
1243
1244
1245
1246
1247
1248
1249
1250
1251
1252
1253
1254
1255
1256
1257
1258
1259
1260
1261
1262
1263
1264
1265
1266
1267
1268
1269
1270
1271
1272
1273
1274
1275
1276
1277
1278
1279
1280
1281
1282
1283
1284
1285
1286
1287
1288
1289
1290
1291
1292
1293
1294
1295
1296
1297
1298
1299
1300
1301
1302
1303
1304
1305
1306
1307
1308
1309
1310
1311
1312
1313
1314
1315
1316
1317
1318
1319
1320
1321
1322
1323
1324
1325
1326
1327
1328
1329
1330
1331
1332
1333
1334
1335
1336
1337
1338
1339
1340
1341
1342
1343
1344
1345
1346
1347
1348
1349
1350
1351
1352
1353
1354
1355
1356
1357
1358
1359
1360
1361
1362
1363
1364
1365
1366
1367
1368
1369
1370
1371
1372
1373
1374
1375
1376
1377
1378
1379
1380
1381
1382
1383
1384
1385
1386
1387
1388
1389
1390
1391
1392
1393
1394
1395
1396
1397
1398
1399
1400
1401
1402
1403
1404
1405
1406
1407
1408
1409
1410
1411
1412
1413
1414
1415
1416
1417
1418
1419
1420
1421
1422
1423
1424
1425
1426
1427
1428
1429
1430
1431
1432
1433
1434
1435
1436
1437
1.0 1.665334536937735e-17 0
0.997515 -0.0001952889412018759 0
0.9930137850018769 -0.0005478231321445106 0
0.9872434458022552 -0.0009975364308482913 0
0.98048 -0.001521567382850105 0
0.972887675772815 -0.002105995825145198 0
0.9645803783193553 -0.002741006874448285 0
0.9556439792700022 -0.003419133493740432 0
0.9461467475448325 -0.004134429190407815 0
0.936145 -0.004882014624471229 0
0.9256864749860431 -0.005657801718937697 0
0.9148124922597216 -0.006458312031712103 0
0.9035594110345649 -0.007280549478108371 0
0.8919596560307215 -0.008121906471881863 0
0.8800424641800274 -0.00898009173063128 0
0.8678344433106719 -0.009853072781299472 0
0.8553599999999999 -0.01073902885729263 0
0.842641673798302 -0.01163631142536586 0
0.8297004028190319 -0.01254341051824579 0
0.8165557379610908 -0.01345892563700129 0
0.8032260179800186 -0.01438154036632723 0
0.7897285142369513 -0.01531000009609484 0
0.7760795516260295 -0.01624309241079004 0
0.762294610547005 -0.01717962982337738 0
0.7483884136213119 -0.01811843460954793 0
0.734375 -0.01905832555367361 0
0.7202677894842998 -0.01999810645658587 0
0.7060796382095994 -0.02093655628253195 0
0.6918228872871965 -0.0218724208417438 0
0.6775094055247503 -0.02280440591832891 0
0.6631506271343227 -0.0237311717623248 0
0.6487575851708679 -0.02465132887090644 0
0.6343409413128126 -0.02556343498775548 0
0.6199110124918114 -0.0264659932520988 0
0.6054777947947669 -0.02735745143035058 0
0.591050984993239 -0.02823620216398364 0
0.57664 -0.02910058416745401 0
0.5622539945070886 -0.02994888430989514 0
0.5479018770222552 -0.03077934051402555 0
0.5335923244896156 -0.0315901454053741 0
0.5193337956544063 -0.03237945064460525 0
0.5051345433100023 -0.03314537187547793 0
0.4910026255470466 -0.03388599422083929 0
0.4769459161090508 -0.03459937825907237 0
0.4629721139456537 -0.03528356641360644 0
0.4490887520434894 -0.03593658968847685 0
0.4353032056049903 -0.03655647468349761 0
0.4216226996371658 -0.03714125082339351 0
0.4080543160052605 -0.03768895773622637 0
0.394605 -0.03819967396938697 0
0.3812815664617709 -0.03868975014630735 0
0.3680907055003859 -0.03916107784521584 0
0.3550389878450015 -0.03961104240846319 0
0.3421328698551659 -0.04003703743954995 0
0.3293786982208213 -0.04043647406732107 0
0.3167827143763119 -0.04080678992772714 0
0.3043510586509887 -0.04114545781543065 0
0.2920897741768381 -0.04144999396003072 0
0.280004810571626 -0.04171796588434629 0
0.2681020274143395 -0.04194699980501844 0
0.256387197528176 -0.04213478753865708 0
0.2448660100849651 -0.04227909287985385 0
0.2335440735436903 -0.04237775742059793 0
0.222426918434672 -0.04242870578395294 0
0.21152 -0.04242995024826993 0
0.2008287006999061 -0.04237959474171062 0
0.1903583325939804 -0.04227583819042469 0
0.1801141396053961 -0.04211697720735278 0
0.1701012996756774 -0.04190140811230231 0
0.1603249268169264 -0.04162762827765308 0
0.1507900730679135 -0.04129423679778089 0
0.1415017303599269 -0.04089993448403287 0
0.1324648322978486 -0.0404435231908291 0
0.1236842558615075 -0.03992390448219704 0
0.1151648230319955 -0.03934007765174943 0
0.1069113023472976 -0.03869113711278765 0
0.09892841039127187 -0.0379762691788335 0
0.09122081321973485 -0.03719474825845488 0
0.08379312772714909 -0.03634593249174265 0
0.07664992295716999 -0.03542925885920346 0
0.06979572136008738 -0.03444423779714773 0
0.06323499999999982 -0.03339044735685907 0
0.05697219171436929 -0.03226752694792145 0
0.05101168622843422 -0.03107517070904047 0
0.04535783122679948 -0.02981312055251407 0
0.04001493338437823 -0.02848115893117555 0
0.03498725935871705 -0.02707910137913177 0
0.03027903674562138 -0.02560678887994848 0
0.02589445499987009 -0.024064080118071 0
0.021837666322711 -0.0224508436712107 0
0.01811278651771819 -0.02076695020315461 0
0.01472389581650757 -0.01901226471796503 0
0.0116750396757147 -0.01718663893780764 0
0.008970229546559128 -0.01528990386767556 0
0.006613443618246007 -0.01332186261104801 0
0.00460862753638458 -0.01128228350102692 0
0.002959695097535242 -0.009170893611715261 0
0.001670528920937886 -0.006987372714533938 0
0.0007449810984185845 -0.004731347743806624 0
0.0001868738234129808 -0.002402387835249536 0
0.0 0.0 0
0.0001868738234129808 0.002439753869475663 0
0.0007449810984185845 0.004880205214281091 0
0.001670528920937886 0.007320780832002593 0
0.002959695097535242 0.009760642682454714 0
0.00460862753638458 0.01219869914636156 0
0.006613443618246007 0.01463361692557428 0
0.008970229546559128 0.01706383352245789 0
0.0116750396757147 0.01948757023509321 0
0.01472389581650757 0.0219028456042627 0
0.01811278651771819 0.02430748924783914 0
0.021837666322711 0.02669915601814738 0
0.02589445499987009 0.02907534041810994 0
0.03027903674562138 0.03143339121251208 0
0.03498725935871705 0.03377052617151664 0
0.04001493338437823 0.03608384688461214 0
0.04535783122679948 0.03837035358447426 0
0.05101168622843422 0.04062695992176026 0
0.05697219171436929 0.0428505076336106 0
0.06323499999999982 0.04503778105060904 0
0.06979572136008738 0.04718552138912147 0
0.07664992295716999 0.04929044077830243 0
0.08379312772714909 0.05134923597359788 0
0.09122081321973485 0.0533586017112844 0
0.09892841039127187 0.05531524366145189 0
0.1069113023472976 0.05721589093984835 0
0.1151648230319955 0.05905730814215082 0
0.1236842558615075 0.06083630686749483 0
0.1324648322978486 0.06254975670147452 0
0.1415017303599269 0.06419459563230487 0
0.1507900730679135 0.06576783987740692 0
0.1603249268169264 0.06726659310132516 0
0.1701012996756774 0.06868805500959914 0
0.1801141396053961 0.07002952930698397 0
0.1903583325939804 0.07128843101223065 0
0.2008287006999061 0.07246229312548873 0
0.21152 0.07354877264826992 0
0.222426918434672 0.07454565595980128 0
0.2335440735436903 0.07545086355749084 0
0.2448660100849651 0.07626245417311431 0
0.256387197528176 0.0769786282802043 0
0.2681020274143395 0.07759773101196653 0
0.280004810571626 0.07811825451285843 0
0.2920897741768381 0.07853883975072926 0
0.3043510586509887 0.07885827782013399 0
0.3167827143763119 0.07907551077108352 0
0.3293786982208213 0.07918963200107461 0
0.3421328698551659 0.07919988625175016 0
0.3550389878450015 0.07910566925496271 0
0.3680907055003859 0.07890652707635006 0
0.3812815664617709 0.07860215520777608 0
0.394605 0.07819239746313697 0
0.4080543160052605 0.07768174973552495 0
0.4216226996371658 0.0770893018078825 0
0.4353032056049903 0.07641799509172113 0
0.4490887520434894 0.07566884462434494 0
0.4629721139456537 0.07484295673196373 0
0.4769459161090508 0.07394152559175447 0
0.4910026255470466 0.0729658300145664 0
0.5051345433100023 0.0719172305202554 0
0.5193337956544063 0.0707971667795733 0
0.5335923244896156 0.06960715549842535 0
0.5479018770222552 0.06834878882216928 0
0.5622539945070886 0.06702373333950556 0
0.57664 0.06563372976745402 0
0.591050984993239 0.06418059340099622 0
0.6054777947947669 0.06266621541327055 0
0.6199110124918114 0.06109256509485729 0
0.6343409413128126 0.05946169312382492 0
0.6487575851708679 0.05777573596201293 0
0.6631506271343227 0.05603692147774843 0
0.6775094055247503 0.05424757590114 0
0.6918228872871965 0.05241013222567316 0
0.7060796382095994 0.05052714017958537 0
0.7202677894842998 0.04860127790312367 0
0.734375 0.04663536548422917 0
0.7483884136213119 0.04463238052670633 0
0.762294610547005 0.04259547595322115 0
0.7760795516260295 0.040528000282875 0
0.7897285142369513 0.03843352067283468 0
0.8032260179800186 0.03631584908010253 0
0.8165557379610908 0.03417907198941141 0
0.8297004028190319 0.0320275842757082 0
0.842641673798302 0.02986612793837003 0
0.8553599999999999 0.02769983667951487 0
0.8678344433106719 0.02553428763154321 0
0.8800424641800274 0.02337556201773874 0
0.8919596560307215 0.02123031723167456 0
0.9035594110345649 0.01910587387349971 0
0.9148124922597216 0.01701032289986034 0
0.9256864749860431 0.01495266060968752 0
0.936145 0.01294296339947123 0
0.9461467475448325 0.0109926214288746 0
0.9556439792700022 0.009114663304962358 0
0.9645803783193553 0.007324228698534241 0
0.972887675772815 0.005639297041547644 0
0.98048 0.004081897338405657 0
0.9872434458022552 0.002680329248880934 0
0.9930137850018769 0.001473895443005372 0
0.997515 0.0005259361384240886 0
1.0 -1.665334536937735e-17 0
-0.02616959114220163 0.01471528727020921 0
-0.026583623999479 0.01444009441263192 0
-0.02733334654811953 0.01394128340310666 0
-0.02829399724011572 0.01330117889661102 0
-0.02941930947481589 0.01254994973930082 0
-0.03068164205336799 0.01170538482616516 0
-0.03206173646824556 0.01077969768878739 0
-0.03354500308031153 0.00978199468687932 0
-0.0351197838647157 0.008719431081478324 0
-0.03677641211310406 0.007597838470796911 0
-0.03850665188881255 0.006422100573159659 0
-0.04030333994922514 0.005196394977406399 0
-0.04216014478737962 0.003924357425353173 0
-0.04407139776794597 0.002609198421640799 0
-0.0460319708711126 0.001253789002021513 0
-0.04803718578453786 -0.0001392742893912557 0
-0.05008274477738583 -0.001567618934511697 0
-0.05216467712566172 -0.003029056413552333 0
-0.05427929689654176 -0.004521549886767132 0
-0.05642316919127199 -0.006043187707556602 0
-0.05859308279096326 -0.007592161442860332 0
-0.06078602771728372 -0.009166747447387366 0
-0.06299917661085314 -0.01076529129192552 0
-0.06522986910501423 -0.01238619452314491 0
-0.06747559856975925 -0.01402790335826236 0
-0.06973400074440127 -0.01568889900888319 0
-0.07200284388418879 -0.01736768939493505 0
-0.07428002012624005 -0.01906280205898184 0
-0.076563537841276 -0.02077277812821919 0
-0.07885151478477188 -0.02249616719947725 0
-0.0811421718979206 -0.02423152304396914 0
-0.08343382763779161 -0.02597740004501828 0
-0.08572489273913715 -0.02773235029480264 0
-0.0880138653288169 -0.02949492128616718 0
-0.09029932632879889 -0.03126365414343886 0
-0.09257993509590919 -0.03303708234243345 0
-0.09485442525652493 -0.03481373087483677 0
-0.09712160070267352 -0.03659211581616582 0
-0.09938033172285936 -0.03837074425978287 0
-0.1016295512466499 -0.04014811458211638 0
-0.1038682511868235 -0.04192271700646719 0
-0.1060954788668776 -0.04369303443465025 0
-0.1083103335250495 -0.04545754351731982 0
-0.1105119628888083 -0.04721471593521298 0
-0.1126995598161392 -0.04896301986477369 0
-0.1148723590019061 -0.05070092160272506 0
-0.1170296337492177 -0.05242688732517437 0
-0.1191706928070793 -0.05413938495778789 0
-0.1212948772767191 -0.05583688613447992 0
-0.1234006301159784 -0.0575191927929336 0
-0.1254789655868657 -0.05919676163462369 0
-0.1275275711270133 -0.06087056257078304 0
-0.1295462409876759 -0.06253859829773364 0
-0.1315348053228393 -0.06419886011684892 0
-0.1334931265558864 -0.06584933148465194 0
-0.1354210958585991 -0.06748799150220378 0
-0.1373186297470132 -0.06911281832945543 0
-0.1391856667986049 -0.07072179251104235 0
-0.1410221644951755 -0.07231290020083947 0
-0.1428280961956083 -0.07388413627346274 0
-0.144603448242418 -0.07543350731180154 0
-0.1463482172056995 -0.07695903446058877 0
-0.1480624072677167 -0.07845875613696401 0
-0.1497460277509616 -0.07993073058995571 0
-0.1513990907920613 -0.08137303830179611 0
-0.1530216091634212 -0.08278378422499094 0
-0.1546135942439753 -0.08416109985008434 0
-0.1561750541398663 -0.08550314510009402 0
-0.1577059919553097 -0.08680811004862944 0
-0.159206404213307 -0.08807421645975655 0
-0.1606762794252697 -0.08929971914871875 0
-0.1621155968080002 -0.09048290716367695 0
-0.1635243251458469 -0.09162210478967703 0
-0.1649024217952269 -0.092715672377096 0
-0.1662498318280701 -0.09376200699785102 0
-0.1675664873101098 -0.0947595429336758 0
-0.1688523067093132 -0.09570675200177758 0
-0.1701071944291244 -0.0966021437241749 0
-0.1713310404605747 -0.09744426534798603 0
-0.1725237201467143 -0.09823170172488095 0
-0.1736850940522318 -0.09896307505882876 0
-0.1748150079305513 -0.09963704453215806 0
-0.1759132927801495 -0.1002523058208036 0
-0.1769797649813012 -0.1008075905104301 0
-0.1780142265039547 -0.1013016654259023 0
-0.1790164651769609 -0.1017333318873088 0
-0.1799862550084269 -0.1021014249064351 0
-0.1809233565465473 -0.102404812338228 0
-0.1818275172698806 -0.1026423940023788 0
-0.1826984719956888 -0.1028131007906942 0
-0.1835359432946493 -0.1029158937763976 0
-0.1843396418999786 -0.1029497633419224 0
-0.18510926709878 -0.1029137283421106 0
-0.1858445070932515 -0.102806835320017 0
-0.1865450393192523 -0.1026281577927318 0
-0.1872105307096495 -0.1023767956247783 0
-0.1878406378898341 -0.1020518745067053 0
-0.1884350072928236 -0.1016525455564797 0
-0.1889932751814471 -0.1011779850611869 0
-0.1895150675652557 -0.1006273943763617 0
-0.19 -0.1 0
-0.1904408470263567 -0.09930524428430748 0
-0.1908309286126136 -0.09855354397638373 0
-0.1911706138668189 -0.0977456944805976 0
-0.1914601989305876 -0.09688260562107176 0
-0.1916999101592861 -0.09596529731227077 0
-0.1918899074289525 -0.09499489505556408 0
-0.1920302875582083 -0.09397262527884466 0
-0.1921210878332418 -0.09289981053655601 0
-0.192162289623823 -0.09177786458766826 0
-0.1921538220782566 -0.09060828736924367 0
-0.1920955658851811 -0.0893926598832472 0
-0.1919873570901813 -0.0881326390141971 0
-0.1918289909552991 -0.08682995229511088 0
-0.19162022584969 -0.08548639263898931 0
-0.1913607871598956 -0.0841038130527977 0
-0.1910503712084639 -0.08268412135055578 0
-0.1906886491699651 -0.08122927488173115 0
-0.1902752709738061 -0.07974127529065923 0
-0.1898098691836451 -0.07822216332217756 0
-0.1892920628436499 -0.07667401368807858 0
-0.1887214612823182 -0.07509893000834351 0
-0.1880976678650929 -0.07349903984043561 0
-0.1874202836875551 -0.07187648980919875 0
-0.1866889112015561 -0.07023344084913341 0
-0.18590315776726 -0.06857206357000964 0
-0.1850626391247115 -0.06689453375592902 0
-0.184166982779205 -0.06520302800706568 0
-0.1832158312954247 -0.0634997195324074 0
-0.1822088454960391 -0.06178677410088058 0
-0.1811457075611687 -0.06006634615728378 0
-0.180026124025899 -0.05834057510847386 0
-0.1788498286737883 -0.05661158178425355 0
-0.1776165853251039 -0.05488146507639812 0
-0.1763261905193319 -0.05315229875823751 0
-0.1749784760923194 -0.0514261284861831 0
-0.1735733116492422 -0.04970496898355375 0
-0.1721106069354352 -0.0479908014060236 0
-0.1705903141079734 -0.04628557088697927 0
-0.16901242991176 -0.04459118426004924 0
-0.1673769977647456 -0.04290950795504653 0
-0.1656841097577921 -0.04124236606255925 0
-0.1639339085755779 -0.03959153856142732 0
-0.1621265893458502 -0.03795875970236871 0
-0.1602624014252333 -0.03634571654005925 0
-0.1583416501307285 -0.03475404760503764 0
-0.1563646984269739 -0.03318534170589925 0
-0.1543319685802785 -0.03164113685136258 0
-0.1522439437914167 -0.03012291928094626 0
-0.1501011698201516 -0.02863212259218112 0
-0.1479042566154722 -0.02717012695150756 0
-0.1456538799665729 -0.02573825837527281 0
-0.1433528503603678 -0.02433483584229579 0
-0.141010677240632 -0.02294865472173088 0
-0.1386294650066573 -0.02157913136889592 0
-0.1362104414320925 -0.02022698171235547 0
-0.1337548860473282 -0.01889289767639608 0
-0.1312641311651679 -0.01757754817575308 0
-0.1287395630459003 -0.01628158009783962 0
-0.1261826232255149 -0.01500561925772141 0
-0.123594810032462 -0.01375027131118751 0
-0.1209776803202319 -0.0125161226114912 0
-0.1183328514451261 -0.01130374099568701 0
-0.1156620035209988 -0.0101136764869787 0
-0.1129668819855069 -0.008946461900138439 0
-0.110249300515624 -0.007802613337869746 0
-0.1075111443339382 -0.00668263056699106 0
-0.104754373951711 -0.005586997264531837 0
-0.101981029399981 -0.004516181125291147 0
-0.09919323500637246 -0.003470633824142547 0
-0.09639320478297364 -0.002450790828422172 0
-0.09358324850003741 -0.001457071058165199 0
-0.09076577853176483 -0.0004898763948258111 0
-0.08794331757464476 0.000450408957481982 0
-0.08511850735649476 0.001363419250139081 0
-0.08229411847649025 0.002248808094645963 0
-0.07947306154441791 0.003106249474958717 0
-0.07665839982296363 0.00393543884168554 0
-0.07385336362251556 0.004736094253586343 0
-0.07106136675715072 0.005507957520998127 0
-0.06828602544795803 0.006250795292192371 0
-0.06553118016242446 0.006964400006280097 0
-0.06280092101605414 0.00764859061372003 0
-0.06009961754903742 0.008303212935709056 0
-0.05743195394804554 0.008928139493696821 0
-0.05480297114369401 0.009523268585332548 0
-0.05221811772871207 0.01008852230611619 0
-0.04968331239156751 0.01062384310537283 0
-0.04720502167873475 0.01112918830200135 0
-0.04479035861258349 0.01160452173769626 0
-0.04244721040014598 0.01204980135657122 0
-0.04018440790410691 0.01246496086670319 0
-0.03801195712695232 0.0128498825610944 0
-0.03594136658089422 0.01320435644366606 0
-0.03398613045190726 0.01352801712074037 0
-0.03216248121369228 0.01382024232128795 0
-0.03049064791682812 0.01407997959980678 0
-0.02899717627010137 0.01430542262666785 0
-0.02771988325999927 0.01449331503771034 0
-0.02672151656980529 0.01463702541208796 0
-0.02616959114220163 0.01471528727020921 0
1.266576946759163 -0.1256545654351749 0
1.26600121198092 -0.1254192299179597 0
1.264958372889619 -0.1249929100525657 0
1.263621535839201 -0.1244463199214134 0
1.262054655538464 -0.1238055865287387 0
1.260295775050794 -0.1230862755053529 0
1.258371266526973 -0.122299212256743 0
1.256300995705139 -0.1214525919669295 0
1.254100739340761 -0.1205529657813169 0
1.251783495421792 -0.1196057736833366 0
1.249360266035005 -0.1186156612619175 0
1.246840559210432 -0.1175866811993213 0
1.244232728269967 -0.1165224280460889 0
1.241544211163193 -0.115426131923905 0
1.238781705124643 -0.1143007256855651 0
1.23595129778182 -0.1131488942430532 0
1.233058567938483 -0.111973111533588 0
1.230108664630722 -0.1107756686935396 0
1.227106370228061 -0.1095586958476639 0
1.224056151563628 -0.108324179183391 0
1.220962201910045 -0.1070739744966599 0
1.217828475834952 -0.1058098180703158 0
1.214658718432611 -0.104533335521384 0
1.211456490051304 -0.1032460490949363 0
1.208225187367147 -0.1019493837680705 0
1.204968061459585 -0.1006446724437781 0
1.201688233399797 -0.09933316045204559 0
1.198388707755651 -0.09801600952826434 0
1.195072384335449 -0.09669430140273522 0
1.191742068430442 -0.09536904110682506 0
1.188400479767964 -0.09404116007911416 0
1.185050260349484 -0.09271151913719253 0
1.181693981318304 -0.09138091136655076 0
1.178334148978158 -0.09005006496648714 0
1.17497321006521 -0.08871964608353153 0
1.171613556360786 -0.0873902616551304 0
1.168257528719931 -0.08606246227991796 0
1.164907420580821 -0.08473674512555467 0
1.161565481011817 -0.0834135568806566 0
1.15823391734613 -0.08209329675360628 0
1.154914897448335 -0.08077631951791278 0
1.151610551652236 -0.0794629386011755 0
1.148322974405529 -0.07815342921252653 0
1.145054225653274 -0.07684803150161999 0
1.141806331989263 -0.0755469537407484 0
1.138581287601827 -0.0742503755204601 0
1.135381055038415 -0.0729584509480882 0
1.132207565811345 -0.07167131183785411 0
1.129062720865423 -0.07038907088065417 0
1.125947963817636 -0.06911274071934713 0
1.12286127519092 -0.06785068345800167 0
1.11980366791802 -0.06660468439244319 0
1.116777085869943 -0.06537446179527746 0
1.11378345146242 -0.06415971229470904 0
1.110824665174014 -0.0629601146882595 0
1.107902605040116 -0.06177533363898816 0
1.105019126134009 -0.06060502324366204 0
1.10217606004533 -0.05944883046274484 0
1.099375214365544 -0.058306398402576 0
1.096618372189265 -0.05717736944068601 0
1.093907291639562 -0.05606138818583208 0
1.091243705424682 -0.05495810426503737 0
1.08862932043292 -0.05386717493066644 0
1.086065817371726 -0.0527882674813665 0
1.083554850456424 -0.05172106149154365 0
1.081098047153322 -0.05066525084491623 0
1.078697007981314 -0.04962054556859566 0
1.076353306375439 -0.04858667346507616 0
1.074068488615271 -0.04756338154047147 0
1.071844073820345 -0.04655043722830864 0
1.069681554014265 -0.04554762940917599 0
1.067582394258511 -0.04455476922751901 0
1.065548032856384 -0.04357169070787913 0
1.063579881626936 -0.04259825117387393 0
1.06167932624819 -0.04163433147421831 0
1.059847726668363 -0.04067983602108155 0
1.058086417583288 -0.03973469264706017 0
1.056396708977687 -0.03879885228801808 0
1.054779886727429 -0.0378722885000007 0
1.053237213259416 -0.0369549968193638 0
1.051769928265241 -0.03604699397616667 0
1.050379249464306 -0.03514831697176224 0
1.04906637341164 -0.03425902203236697 0
1.047832476345215 -0.03337918345120897 0
1.046678715067177 -0.03250889233263077 0
1.045606227852997 -0.03164825525225959 0
1.044616135382203 -0.03079739284804721 0
1.043709541684034 -0.02995643835762629 0
1.042887535091004 -0.02912553611801812 0
1.042151189193145 -0.02830484004426406 0
1.041501563785389 -0.0274945121040277 0
1.040939705800384 -0.02669472080563108 0
1.0404666502188 -0.02590563971733622 0
1.040083420949078 -0.02512744603596447 0
1.039791031668412 -0.02436031922315487 0
1.03959048661671 -0.02360443972769589 0
1.039482781335209 -0.02285998781241932 0
1.039468903341431 -0.02212714250411752 0
1.039549832732188 -0.02140608068483438 0
1.039726542706454 -0.02069697634267635 0
1.04 -0.02 0
1.040366035678439 -0.01932557923863655 0
1.040819213295868 -0.01868388528126249 0
1.041358555522855 -0.01807477032369811 0
1.041983035385435 -0.01749817569867769 0
1.04269157788871 -0.0169541280337582 0
1.043483061720879 -0.01644273522490972 0
1.044356321029276 -0.01596418224333424 0
1.045310147259852 -0.01551872679333278 0
1.046343291051418 -0.01510669483922527 0
1.047454464175926 -0.01472847601941907 0
1.048642341516043 -0.01438451896572838 0
1.049905563071288 -0.01407532654596935 0
1.05124273598405 -0.0138014510476982 0
1.052652436576898 -0.01356348932072455 0
1.05413321239273 -0.01336207789572366 0
1.055683584229433 -0.01319788809589185 0
1.057302048160932 -0.01307162115814215 0
1.05898707753671 -0.01298400337982608 0
1.060737124952108 -0.01293578130639432 0
1.062550624181995 -0.01292771697477845 0
1.064425992070666 -0.01296058322658954 0
1.066361630371142 -0.01303515910449164 0
1.068355927527377 -0.01315222534432129 0
1.070407260393201 -0.01331255997469135 0
1.072513995882213 -0.01351693403494204 0
1.074674492543205 -0.01376610742138667 0
1.076887102056071 -0.01406082487084757 0
1.07915017064359 -0.01440181208949164 0
1.081462040394831 -0.0147897720339582 0
1.083821050496395 -0.01522538135072674 0
1.086225538368092 -0.01570928697860213 0
1.088673840700088 -0.0162421029181022 0
1.091164294388996 -0.01682440717041997 0
1.093695237370776 -0.01745673884750412 0
1.096265009348778 -0.01813959545365606 0
1.098871952415625 -0.01887343033788745 0
1.101514411568093 -0.01965865031511449 0
1.104190735114503 -0.02049561345309399 0
1.10689927497455 -0.02138462702082598 0
1.109638386871864 -0.02232594559296691 0
1.112406430419932 -0.02331976930361299 0
1.11520176910237 -0.0243662422416301 0
1.11802277014881 -0.02546545097852376 0
1.120867804307975 -0.02661742321866211 0
1.123735245519743 -0.02782212656048774 0
1.126623470488212 -0.02907946735617849 0
1.12953085815796 -0.03038928965604651 0
1.132455789095808 -0.03175137422279384 0
1.13539664478047 -0.03316543759957384 0
1.138351806802482 -0.03463113121463557 0
1.141319655976765 -0.03614804050415261 0
1.144299523317768 -0.03771364257516179 0
1.147293790058441 -0.03931879953559618 0
1.150301390675127 -0.04096168791883277 0
1.153320817179983 -0.04264135233504832 0
1.156350544421553 -0.04435678952634148 0
1.159389028188649 -0.04610694826036978 0
1.162434703224964 -0.04789072909889541 0
1.165485981151748 -0.04970698401442908 0
1.168541248294614 -0.05155451582677706 0
1.171598863408885 -0.05343207742979239 0
1.174657155296089 -0.0553383707769786 0
1.177714420301894 -0.05727204559274857 0
1.180768919683172 -0.05923169777404866 0
1.183818876828698 -0.06121586744465685 0
1.186862474314265 -0.06322303662166687 0
1.189897850768506 -0.06525162645037803 0
1.192923097520428 -0.06729999395989011 0
1.195936254993258 -0.06936642828698952 0
1.198935308801555 -0.07144914631019418 0
1.201918185499261 -0.07354628762882787 0
1.204882747915141 -0.07565590881337173 0
1.207826789998272 -0.0777759768426267 0
1.210748031079354 -0.07990436162981904 0
1.213644109432638 -0.0820388275228934 0
1.216512574997052 -0.0841770236427941 0
1.219350881082139 -0.0863164728961017 0
1.222156374842397 -0.08845455946299392 0
1.224926286249699 -0.09058851451542622 0
1.227657715223371 -0.09271539985986955 0
1.230347616485404 -0.09483208911849997 0
1.232992781585522 -0.09693524595462313 0
1.235589817375066 -0.09902129870092388 0
1.238135119981124 -0.1010864105458182 0
1.240624843014716 -0.1031264441477933 0
1.243054858294836 -0.1051369191396872 0
1.245420706713138 -0.1071129603897253 0
1.247717535885721 -0.1090492339974613 0
1.249940019741747 -0.1109398666400699 0
1.252082252835941 -0.1127783417297742 0
1.254137608305556 -0.114557362312444 0
1.256098541790132 -0.1162686646028315 0
1.257956311772664 -0.1179027552044922 0
1.259700564140056 -0.1194485243260704 0
1.261318681990792 -0.1208926444934894 0
1.262794695076033 -0.1222185666189702 0
1.264107264964352 -0.1234046704510342 0
1.265225377636481 -0.1244203165251111 0
1.266096462883881 -0.125214963697375 0
1.266576946759163 -0.1256545654351749 0
-92.4490405088719 -94.46373207497801 0
100.0 -100.0 0
100.0 100.0 0
-100.0 100.0 0
-60.00000000016264 -100.0 0
-20.00000000031305 -100.0 0
19.99999999961915 -100.0 0
59.99999999978363 -100.0 0
100.0 -60.00000000016264 0
100.0 -20.00000000031305 0
100.0 19.99999999961915 0
100.0 59.99999999978363 0
60.00000000016264 100.0 0
20.00000000031305 100.0 0
-19.99999999961915 100.0 0
-59.99999999978363 100.0 0
-100.0 60.00000000016264 0
-100.0 20.00000000031305 0
-100.0 -19.99999999961915 0
-100.0 -59.99999999978363 0
-2.186889378834177 8.284717780896258 0
-0.1969156015357861 0.6169637562850092 0
-23.16350123584235 -2.956039531443754 0
-0.067174233235267 0.2489915002673961 0
-6.576988160504701 -52.23403792053192 0
9.410984114651896 7.258000791273489 0
0.8239055408051916 1.377069835977541 0
1.055438821944424 0.1221662620640979 0
0.9776206370335538 -0.09472559965628183 0
0.441943735617696 -6.464592506102299 0
0.6212713171438227 -3.01938919683027 0
1.069924109904859 -0.5976361768363891 0
-8.058497719144848 -3.140020007543176 0
0.06199390606332673 -1.189270454874245 0
1.091002992791771 -0.3496292680995947 0
11.54753969564589 -4.686213553408346 0
2.311710814450413 0.8664721519778168 0
3.757132766620385 -1.440312472020679 0
0.826038529120192 0.5028950467736893 0
-0.674721472701866 -0.6135408333522723 0
-0.03592855708346631 -0.1010336216779638 0
-0.1017123779079271 -0.3827409415651427 0
-0.1044977302701656 -0.1931164544852386 0
0.4612688885511241 -0.6809847592235985 0
1.068894368272794 -0.1927988687137878 0
-0.3704373267317819 -0.342755670488111 0
-0.7260350518091423 0.1525959953367137 0
0.2982119975265567 0.533565862755552 0
-0.3178494379733389 0.1408750832666971 0
1.240116423377469 0.1390393362980741 0
0.1135979409884744 -0.2375650390053302 0
1.194793809419838 -0.2470522869527662 0
2.440365185289703 -0.8251273772276795 0
0.7866681088746772 -0.2797643944091856 0
-0.2095521907069154 -0.1930192973416877 0
-0.451809672531664 -0.07546415177565702 0
1.442269311334179 0.02844887118517127 0
-0.2887560080803399 -0.1392326507089897 0
0.9990445787598874 -0.04537412739801708 0
1.038047654015645 -0.09708690079822582 0
2.636749016682376 6.420368782910535 0
-0.08978259973438846 -0.1274931710947047 0
-0.02842531707798312 -0.041143322710627005 0
0.4988219460491394 -0.3226840781106328 0
-0.1427876868355512 -0.1421784037189721 0
-0.1746058477488457 0.1337600717053188 0
0.1477529495534734 0.2861598336901247 0
-3.043306554017219 3.604344368263627 0
1.0896635526034 -0.1202188577709028 0
1.1544685885806 -0.1597400159164049 0
1.216973323999884 -0.1816373434259458 0
1.379831570665982 -0.2818898424096488 0
-34.43035311100899 49.37068690320516 0
2.456668619385033 43.18751283179785 0
-4.931903614595937 0.1386715884416171 0
1.030665536613391 0.01499065621759904 0
1.147107068620512 0.06801611620335597 0
1.029754020427718 -0.06115632244125974 0
1.072506420032889 0.03098051877815246 0
-0.1733893266600524 -0.1324664353862438 0
-0.2092331240909832 -0.1239717382144193 0
-0.03018309651595514 0.13241767579396077 0
-0.3118746479514279 0.00230218848775999 0
-12.76167819674969 -26.51695100312667 0
9.494622602444576 -27.24565020106471 0
-0.0214973427726853 -0.010565578513135223 0
55.54288564995539 12.28707417409218 0
-0.008930058799694562 0.04074227341487927 0
-0.07304281225449262 0.075232980031907 0
-0.12546108047823556 0.05838764708930159 0
-0.20396050085589 0.01935204320689231 0
0.9155660074299923 0.1610772643582155 0
1.107991762658056 0.3795705389414917 0
-0.06473405545724925 -0.05821457945054165 0
1.212762166871133 0.02977207918180272 0
1.492245949594246 0.4082287198222221 0
0.2903557541323412 -0.2129615377696285 0
-14.34187417503507 9.11082726337795 0
1.266614756940059 -0.0202274265947635 0
1.301268392824579 -0.07547320467513777 0
0.04397127988172182 -0.10578247103530983 0
0.3486278210207898 0.2814111415799672 0
0.5735154232820536 0.2882942204914608 0
0.9035823719734868 -1.26232243173444 0
2.97617776218913 16.53434498800777 0
29.38890571684107 26.40218343974004 0
42.53128756503516 -18.93476168146503 0
-0.032718763253442924 0.03825396566821473 0
1.023142866151933 -0.03469049126307412 0
1.024230896191197 -0.02038987804495765 0
1.249447813736279 -0.1585816929971388 0
0.9299346731851295 -0.2365626477598153 0
0.06135725186232945 0.1389410287205548 0
0.8640188129435098 -0.1318387984184645 0
-59.5697878825703 -29.53133735224647 0
0.1541372795801148 -0.536450431512606 0
0.1176116995748584 -0.1210410357105949 0
-44.13040993997868 15.07909801980036 0
2.245566616109702 -2.710080148562977 0
5.333681622312577 -5.995085791730546 0
1.27046390548692 -0.2404729188227367 0
1.076127144719707 -0.08791053937779497 0
-0.1366805159498388 -0.1085862054866561 0
-0.1084841995837571 -0.08373529110397897 0
-3.497191283057891 -4.194384563270306 0
-8.250740350349373 -14.81473295434045 0
1.240335440107115 -0.4100941667240305 0
-0.1585860613884025 -0.1143861825147043 0
0.6375910712643089 -0.193872535536656 0
-0.8668442898561972 2.809810168286071 0
1.030961832778926 -0.01077128894948973 0
1.321442406806719 -0.1815900797024729 0
-0.174164064288132 -0.85910152284417 0
1.054481689544332 -0.06555416293774609 0
0.9253230739147306 -0.4584428484042205 0
0.1624572066063563 0.1710069360760588 0
-0.002609954017367061 -0.2139605077396944 0
-0.5315364910732719 -2.292749805389225 0
0.1951112392785156 1.231712558745885 0
1.032961356420425 -0.03959582774243225 0
26.83659670906962 7.215289517905178 0
1.008353165329173 -0.1574523652347648 0
-14.5997836123252 30.33966973831066 0
1.199706950061979 -0.1380717094935233 0
0.9957490295447368 0.04755667361059996 0
7.419854409022648 2.906798054964854 0
0.4205745128579987 -0.1700467703311836 0
0.020454123417229093 0.0970349060553344 0
2.016520517399523 -0.1535199477906355 0
1.540182240983308 -0.1396069889435235 0
0.6390107966310263 -0.5188506403941322 0
0.011816193781162974 -0.06853928481555258 0
1.127424614778263 -0.1115942416594295 0
-9.16702398380982 17.76064767768288 0
0.7937338594929019 0.1861772449345003 0
28.51385577129516 -60.95227934740945 0
1.167264479107765 -0.1228779860728528 0
-0.09225003780121954 -0.06693087800405657 0
1.282600433620019 -0.1008079505525308 0
1.260138391003352 -0.06554108932934322 0
-0.0009319151062757823 -0.04003073393460105 0
-0.08320395816750484 0.03698604878766056 0
-0.04588366755269788 -0.1705489788926436 0
0.9445539539675079 -0.05931743899349919 0
-0.021894025725291266 0.0014945893460585468 0
-0.010827550818494694 0.01387057584823142 0
5.124938695487274 -16.74150954495678 0
-1.433589103579165 1.551743821964132 0
16.75569706781426 4.080737387716132 0
-0.05080882889431135 -0.02933122523472688 0
2.031188863053179 3.903310334103588 0
1.153357864176949 0.008509123013296217 0
1.109801847087167 0.019441115601761 0
1.046978337556161 0.004604315897203851 0
0.02200628699092205 -0.3598749505805806 0
-0.11302973214527183 0.023503198525163874 0
1.212007692207613 -0.02452303479486739 0
-0.1448128589073434 0.003810431886613062 0
1.031284155796239 -0.02955313360122704 0
1.518218117160456 -1.16313286844977 0
-0.0697278562799848 -0.09841569678010698 0
28.96730333464616 -11.12032113883754 0
1.182110955224524 -0.01237120146297887 0
-0.052947112702453544 0.031250872923920314 0
0.3086816918698957 -0.4172600008193015 0
0.2264675298830585 -0.1441269774265898 0
61.9505378490913 52.39425363958227 0
1.2340637771857 -0.1390482472623065 0
0.9313633078282624 -0.1527361169201399 0
-53.09200220202931 -5.409446016522076 0
-39.19293263323728 -23.35014216088016 0
0.566180227955014 0.6523725058846017 0
0.719708812198964 -0.1387485555253835 0
-0.007153269488791883 0.4981916293371441 0
-3.256967466729254 -1.7997199115563 0
-10.10940414191281 4.443774758678995 0
-2.458965352530433 -0.2246041403625259 0
1.103623322195149 -0.09331499956361314 0
0.01305539599847461 -0.14980549466699886 0
3.470814970152706 0.07809470715038869 0
1.751687835816881 -0.6607515091976678 0
3.925580108943934 2.244102867051665 0
0.07854774439988611 0.7213647310920452 0
-15.62655204175674 -8.581115625413133 0
0.022639472374280194 0.05988204497389706 0
0.9985033038198013 -0.07864354020105181 0
-40.53366536342654 -71.20053098664906 0
-0.1738568433275358 -0.1130794356238216 0
-0.0276069584734518 0.07533999564034215 0
-0.02034491292958869 0.029319571125595485 0
1.129787562956266 -0.2289859645187058 0
0.798574291804022 -0.8876449686153902 0
-0.03670350433339479 -0.01571197968847131 0
1.044899557550629 -0.05448054446366496 0
-0.4930194887173339 -1.411208198744676 0
1.248169514582074 1.017510210552737 0
1.734929018926149 1.851800800869423 0
0.2969329553950278 0.1893850774497222 0
0.9956574971595069 -0.01840350562142729 0
1.041058946172893 -0.008082028822460494 0
-0.03192351503790439 -0.07117796247813794 0
-0.1274982708549611 -0.08659149074668722 0
32.67770234335612 59.94381413812292 0
1.863692330082409 -4.668313003733637 0
-0.1579210567764655 -0.3031193082809633 0
1.134131387527955 0.1668123391045383 0
-1.229237632736328 -4.50457358018329 0
-3.410297108762394 -8.056685524352146 0
0.483242061840841 0.2028428781707157 0
0.4132009294363534 -2.019765728174952 0
0.08593738767070802 -0.07967456792148876 0
0.5591531915410725 -0.1545030812510646 0
-0.2974243756155184 -0.5677415122688454 0
1.007316494286118 -0.1091532349607283 0
0.6450110461083631 -0.3256896915501941 0
1.031977964457765 -0.02091407065008787 0
-74.10946008757026 46.01404870028236 0
1.236460660796363 -1.940705875543216 0
0.6407015369651424 0.1805222318631153 0
-0.0625447235531468 -0.2720439206159413 0
0.9723568083103179 -0.03552885974277665 0
1.002886093667776 -0.2311313529459466 0
1.700182106406765 0.2524508866453762 0
15.96450663344948 -15.24297192259663 0
-27.65060724270147 -43.98951720506723 0
17.34091559495338 19.55541035171024 0
-0.07206200840065748 -0.6184966888594724 0
-0.07634149395365497 -0.042377041270407645 0
0.3464939450464963 2.427978042664862 0
1.043230554715111 -0.04137398063189022 0
1.267784097709107 -0.1024746849517312 0
0.923409061573609 -0.0988917430913089 0
-0.1459677818126297 -0.0983093775593466 0
1.081603532855238 0.008552578961289692 0
0.1900290983717674 -0.873902947168443 0
74.93021610040158 -40.77379180704207 0
0.118744467860551 0.1210840394209889 0
-15.13542470180046 0.05303606551706064 0
0.1861068299753394 -0.3908838268015145 0
0.3597993507869273 -0.1097015192259769 0
1.248169791827175 -0.1363051779398075 0
-30.51891261475614 13.3109120411032 0
1.011713875713092 0.2047098461540259 0
-0.2128658294481191 -0.06730008095523532 0
-0.3765200236291575 0.3763786191583601 0
-0.028164363643515825 0.02547548573789195 0
-0.030283983578318446 -0.004430804125317413 0
1.06891735617729 -0.05973232826330705 0
0.0459744779394712 0.06524851789622309 0
27.70636942344447 -30.98353952318981 0
12.89429487633928 -47.70256577796047 0
-0.110177601139813 -0.06743089176095125 0
0.07152225019963888 -0.1479187473566857 0
0.7214942482442831 0.3000516189275033 0
0.1746692503680797 -0.0944010185934612 0
-0.5760302926918385 -12.88622372776267 0
0.045646432656001545 -0.06058764314805737 0
1.054780590853083 -0.1401629480593393 0
-0.1382047702084997 5.83102924329331 0
8.90164418147805 -11.16517587923354 0
0.0017824786651461678 0.025968097220818435 0
-66.11955206089108 17.01965669309817 0
-0.2252605924649787 -0.3987135732265941 0
0.9230062089761344 0.0952224742653656 0
1.12175688186155 -0.1432425675998225 0
3.74969730666882 -3.605266718630763 0
7.871633328059494 -2.536933472604219 0
0.4946331947932093 -0.9544767113949768 0
0.8548776533821492 0.09428722737289603 0
-0.008816872846827868 -0.02102445302073158 0
0.3818485645555795 27.56753318864636 0
0.01157550737727539 0.2052830697652013 0
1.057777934298395 -0.002011680587309887 0
1.094206479021719 -0.07532509390972054 0
1.188992964181681 -0.1166396693516532 0
0.8762704892243536 0.2893940214945937 0
1.154573103014831 -0.1048076097546835 0
-8.206842682571382 77.27824858457973 0
0.0199822054545561 -0.04061189493207279 0
-0.1574268907267558 -0.0997736314806571 0
0.07292226793941628 0.0889212894099733 0
0.6321041037517249 -0.1060577243532758 0
0.2263792633052455 0.1404697788902598 0
1.223835964293793 -0.05476158497020066 0
-0.010608454819892896 0.0030011639795823166 0
-0.01485937481940251 -0.055764712746817505 0
-0.018791510042866912 0.010494728933655322 0
0.9758128898048225 -0.06354621947409693 0
-20.27673401411388 18.70954968842472 0
0.3785230037269974 -0.2751186724125897 0
-6.053926097656968 6.289175493500448 0
-0.4511548618123679 1.625299696964111 0
62.16769228769693 -14.56004028487639 0
0.9004932166301849 -0.05771309702720122 0
-8.969611206038207 -8.442639896491658 0
-0.1664242497908122 -0.1037440550399766 0
-0.1644336965625508 -0.173172420101627 0
0.7948907352779897 11.1967477896689 0
1.284419646521941 -0.161471211169513 0
1.296936903858083 -0.1279466949723199 0
1.377707669193387 -0.1150694818575288 0
1.175230424407324 -0.1984750130753365 0
1.408372413309748 0.2070247930589008 0
1.059197481506749 -0.05278121979379487 0
0.1266841457433344 -0.07652256324648243 0
1.123954472281045 -0.08767231726230393 0
1.272804538019724 -0.1148372291847682 0
4.77704392974368 -75.3365449750391 0
-0.04553411472790658 -0.04963948439287024 0
0.8407269838471771 0.8755463436788555 0
0.3488712496085675 0.1378142379433766 0
1.038617572838339 -0.0332476405155144 0
0.2896825605935709 -0.1126835577031168 0
1.035982833559907 0.05541788609354847 0
1.049480578919221 -0.006715989485541852 0
0.9521018277047318 0.05449403850380986 0
0.9922490197552795 0.1090587418558922 0
1.12455866146977 -0.004883963955598852 0
-0.1126168590222442 -0.1555451980379874 0
1.253598681205476 0.2856647408743195 0
6.355342272014499 0.03179322778183194 0
-0.0660477463244562 -0.02925085558659075 0
0.9903378379666778 -0.3288011241547004 0
-0.09079072109357096 -0.04880385780400954 0
0.9739726366590934 -0.1371304623719603 0
1.156629234351641 -0.01846708983909038 0
0.7089568553554051 0.1285642357068574 0
-1.520561734108026 -1.415461889357038 0
0.8348411731396533 -0.07463728046684939 0
0.561311774041295 0.1500137577943369 0
0.1698516215740595 0.1136472170462029 0
0.838991014648052 -0.6432504621352448 0
-0.025384511401437587 0.008345301428036448 0
-0.03116140837528148 0.003791453857133702 0
1.221923030429527 -0.1278982739174261 0
-0.1421784779967 -0.08670652365281159 0
-0.1206417770076865 -0.1232191138892365 0
0.4181494343421531 -0.09566353110905414 0
-0.05814981507102014 -0.1309797328671533 0
-1.215490886222437 -22.60291518987616 0
-0.1227878787196548 -0.07253017073080771 0
-6.133616348179879 2.720322073934331 0
-0.020692484057389313 0.0194758669150497 0
-0.7201103438118412 0.7153551735574185 0
1.016862242128622 -0.004137147980422698 0
1.079776028975966 -0.06745072252245905 0
1.188450411772693 -0.03698191923200805 0
0.1906528833078026 -0.2197336880749418 0
0.0026757275004231436 -0.10541054253841574 0
0.03084133683207047 0.3204428991856803 0
0.6464956372854866 -0.7370415083526685 0
-0.1023522796618775 -0.05509359732577838 0
1.357068070433131 -0.7078657985455481 0
1.101922311229377 -0.902831352772834 0
-0.038388475175132344 0.022866175901226048 0
-55.84175866139182 64.10215220266693 0
-4.965563832072617 11.80175031917653 0
-0.06449703460051207 0.020037856369929552 0
-0.0946023434596472 0.015484149997081175 0
1.037130778312903 -0.01635054405602272 0
1.140779531873483 -0.09170769629415385 0
-0.3240577754755695 -37.41242370800573 0
-0.00822934151312775 -0.008600665592790838 0
-0.02583488724105107 -0.024549624500452265 0
1.254869760817812 -0.09896819376998603 0
1.246937470345961 -0.08658817235546784 0
1.092984314469963 -0.002982593851904909 0
0.4569774704056324 -0.4905287248639847 0
0.4195012887236252 0.1379595274759303 0
1.207621448404071 -0.1171527758872984 0
-3.232129542810817 1.371914897150368 0
1.317608453477538 0.06134961462322023 0
-17.81757865564954 -68.23508209571027 0
1.232189524114553 -0.0758312378679675 0
1.06859868757803 -0.003408166563914269 0
1.079904316256368 -0.005316099368039654 0
-69.78214786432346 -64.36538516626902 0
1.033516442263173 -0.4447332621480724 0
1.024018833610312 -0.04861636271243575 0
-1.88990295539537 -2.913947010835969 0
-15.68381753996738 49.98113680647505 0
0.4501099724160607 0.4156510315156843 0
12.95190885387468 31.98088152780835 0
-0.07873092666812018 0.016547103945485576 0
0.7038168576645882 -0.07340624576278315 0
-0.1211980077819457 -0.1021162962467466 0
-0.2451245038451205 -0.2792850703752421 0
0.4873497508831899 -0.1114060312126129 0
1.161033034202919 -0.3033653050092663 0
1.43858868278075 -0.4858154863342261 0
1.021591578246582 -0.08065084062005229 0
-17.34012840342004 -17.70980752740903 0
-26.03587939996682 -13.14897781544599 0
1.038664049820582 0.651578050136126 0
1.073895169580171 -0.2700673017398695 0
1.106738675334792 -0.008135197599683437 0
1.139326562464117 -0.01545903771130326 0
0.954809632211592 -0.08598711101491602 0
-0.09140379256815812 0.1195369997117986 0
-0.05402546505396907 -0.07718794637664814 0
0.8595909652090221 -0.215521922868985 0
0.7662168472701212 -0.0813943548264736 0
-29.98986823259975 30.70804731031485 0
1.058427603582472 -0.1097992818819417 0
3.145427351993226 -9.316838756947192 0
-0.1551309090393626 -0.2336209844194134 0
1.01143375799405 -0.06015576593778575 0
1.169810533364691 -0.03240321573918054 0
1.051948940722543 -0.04509349270833647 0
0.7691540466158664 -0.4116974299367817 0
1.174069673587168 -0.1057016181276226 0
0.8764476004054367 -0.3194495736000156 0
1.201106564055022 -0.0519602912794522 0
-76.56150282483783 -8.84928304623528 0
42.112533102208 -2.08214360151433 0
0.2460179377534548 -0.3046653039956599 0
1.338361601951675 -0.02016116950922304 0
0.1696139320132063 -0.1516924799845519 0
-0.08826212209476807 -0.08702302925854773 0
-0.05856992382291838 -0.018953507925828207 0
9.311038501683512 64.81125492967806 0
-0.192407358461506 0.24447712835698 0
0.5592785071101529 -0.2410960542422547 0
-8.941643940516418 -0.1774487047953 0
-34.91783518163287 -1.153701251235403 0
0.2296070478145582 -0.0871451872007071 0
0.006556872144855719 -0.02667287864931137 0
0.09149363675582209 0.2097077455449595 0
-0.011322318076791455 -0.0797292827135165 0
-0.01317543257729345 -0.4814195074917105 0
74.74983761886944 29.50860462246994 0
1.312030613642428 0.5961726376311843 0
1.036511015345595 -0.02603259074648216 0
-0.1748483029803008 -0.1044710707705029 0
0.3358910499919962 0.8381736142453046 0
45.65964743058176 34.37069399131102 0
0.7777444792919432 0.101149087700779 0
0.5577983653647266 -0.08651649792510846 0
1.258253466878922 -0.193382150062867 0
0.1329231448202313 0.4527543853638614 0
-8.927558446097455 9.881235102483359 0
1.110363669766763 -0.07716894740152719 0
11.69941671890499 0.4735213214008033 0
0.4219918957146358 -1.472072014302647 0
1.055210066264299 -0.08499538119042907 0
0.7180624522167633 -0.2212418716610488 0
-0.07545319235502028 -0.0752727997547428 0
-0.0485937865910678 -0.011708159271611479 0
-0.06053281763409217 -0.04235344530197179 0
16.01828650429451 10.56979323962406 0
1.036771277413032 -0.02138073442013839 0
-5.896017417187276 -5.995807843959823 0
1.270574656348463 -0.1468345241902045 0
-0.05388401884834432 -0.2124174654333795 0
-1.354335979022348 -0.331999839414819 0
-1.654194228927291 0.539167651371881 0
2.239548669195322 -1.615871748360864 0
1.243085613303718 -0.3082073783288825 0
-0.1235010809204918 0.001295688107716969 0
1.040664094341534 -0.07398735874189633 0
0.04812657542523335 -0.2735468820359483 0
-0.02427594575551635 -0.12971344915567196 0
-0.1348881915864063 0.3842409220984283 0
0.2769332208760374 -0.6188300515630238 0
-0.003877968776666093 0.009277578498051102 0
0.2551063714864859 0.3604362693161535 0
1.188639558719836 -0.1665280163999231 0
0.2890706760426657 0.1247446466669293 0
-0.2279906179520162 1.015198416566298 0
9.897818838427387 14.62661372286522 0
48.1874803152557 -39.55134135880833 0
1.240313368728421 -0.1269628163400249 0
-0.025473849715258 -1.677013240297149 0
1.062730078113799 0.01072801756620062 0
-0.10899769629232589 0.007734359438051122 0
0.4578181030052169 0.2956760427323759 0
-0.08206839908978779 -0.1515874928027022 0
0.01761515333489302 0.1413370466213652 0
-0.141926957393275 -0.489822444682353 0
60.56501544643045 -73.72375661935578 0
1.731513723994134 0.8344835654602093 0
-0.010242804529267971 0.02437908556733966 0
1.085363033460639 0.06834786879303185 0
0.9665305967989877 -0.1952609036004539 0
-0.0036941752337510984 0.01711469867390946 0
1.031639571243777 -0.1231462579321048 0
-0.03755037754578469 -0.03199381325061183 0
19.11419807311715 -3.754220967955919 0
-0.07987053343079405 -0.05853174401868648 0
50.31364997321453 76.98607020338439 0
1.007421931533578 0.02337342966777213 0
1.217966439574451 -0.1526926682039757 0
-81.15831215329456 -36.29443351288092 0
-0.015865000217604328 -0.03305356891365992 0
8.682301213915519 23.145574277328 0
1.125474459486227 -0.1809524949870156 0
-0.029583641372853055 0.01951817397569706 0
-0.1345453285728187 -0.0777787031657669 0
-0.015582715545165835 -0.0037463115965469737 0
0.488046964520527 0.1285400820498432 0
0.0005595981068072617 0.062213113313671735 0
0.6320824161707191 0.4390476431614442 0
1.268806972874847 -0.08703925523357134 0
-0.03942205335688143 -0.0026158842037739324 0
-50.77023368224009 37.04894830489463 0
1.048915556362081 0.02565053891178186 0
0.3247329029424593 -4.444668310807936 0
0.5469953507875445 1.022833310175989 0
0.7438089644802099 -1.673716512438814 0
0.012280045390241889 0.04147092301747053 0
-0.053507700918626916 0.10272668857602155 0
-0.030239097126961413 -0.05499807927446766 0
0.9093049419595238 8.41047938137218 0
1.259885650657333 -0.1370999851533049 0
0.2201840428061138 0.2329420346655848 0
-23.16090581272603 6.248405925708577 0
0.7927295959789586 -0.1633067397394843 0
1.034519269733118 -0.04993452753193587 0
0.9030325571933825 0.05453438363976625 0
0.6330343556978808 0.1158635480486108 0
40.17012293368704 16.76412317383333 0
2.778511549426084 -6.853183171411916 0
1.03328537375789 0.0002281507573549966 0
1.092113970615411 -0.1554751474261736 0
0.9961986325946403 -0.06192991325273789 0
-0.1347046108792151 -0.09646197873844964 0
1.146778818295337 -0.1330187632001813 0
75.16345816696679 76.36641290302626 0
1.25183556436019 -0.1279416004330979 0
5.149423934096754 5.193276606573862 0
0.06241128073766251 -0.2047889149395337 0
-0.1450553151621801 -0.1222341701306737 0
0.1201434409948213 -0.1792898588292927 0
0.1006874777012135 -0.434049701070905 0
-32.36046199905706 73.45537074948781 0
1.011825253440721 -0.02799813733251472 0
-0.574517092761697 -3.436739581787893 0
0.03269590268400162 3.921931236064009 0
-1.510103475768912 4.425985969085783 0
-2.586486055297155 5.687050571007886 0
1.261771866274676 -0.1099902188259498 0
-0.05052696752060151 0.019493664315241084 0
-0.1487433130079614 -0.1086579134344076 0
0.5532919714562707 -0.4161319522343293 0
-23.75079897417169 -26.24805883467256 0
-11.21747707336171 -4.624846043037637 0
0.07497470522782605 -0.701356328389543 0
0.3509389968388639 -0.1817989865982271 0
4.870338791780105 9.659969998227472 0
1.223142986038577 -0.2122039424679304 0
1.174628579030804 -0.1436943939483082 0
-46.82142937101131 -47.21135673226172 0
0.7168356535147496 0.2097255797814339 0
0.4215028812694788 -0.383290268334882 0
-0.1518542078249553 -0.09137460721330498 0
-13.37232959747605 -38.0056622615359 0
1.06567669289528 -0.07404998572928745 0
0.0774558812424429 -0.11220482950250737 0
-81.60105819588257 80.00000000008133 0
-0.09814339214869458 -0.1040955661701066 0
0.9431956259333738 -0.03206463866151199 0
0.392498913265678 0.2075148175586813 0
76.67642044820744 6.791296038771316 0
-0.1923188084123429 -0.1191582207344558 0
0.9526516186784669 -0.1134545538593933 0
-0.053117734498996635 0.0509780880676588 0
0.4839501520280918 -0.2124757812600563 0
-0.1136774099656598 0.1843246750127379 0
-5.623447503801775 -2.416661723091877 0
22.0743119109537 43.44939014307637 0
0.1295994188774914 -0.3171884845092686 0
1.013356024351895 -0.04383174743117235 0
-80.00000000008131 -100.0 0
-0.030152273463282937 0.05518496763821548 0
-0.017859601887137692 0.056661841536629426 0
-0.020987936739723306 0.04046831154192965 0
0.047004813993845776 0.09260705425562885 0
0.05746134431496824 0.07602177289713592 0
0.03478535487733847 0.079459031902147 0
-0.0787997355297016 -0.033119389997929 0
-0.0845705200310124 -0.0375687555843256 0
-0.0868748869701216 -0.0286167433015603 0
0.0157503507442698 0.0327198033609488 0
0.0255737630222588 0.0391233954248396 0
0.0287916888573818 0.0306561813977169 0
-0.04510803351579881 -0.088040010918504 0
-0.03323121004029729 -0.009649541791427933 0
-0.026256086285210718 -0.007394815765380631 0
-0.02906206784287871 -0.013172735627014567 0
-0.04952979576459426 -0.06335509389419683 0
-0.059276692106652845 -0.0670795426673046 0
-0.055359886671393826 -0.05445904099840601 0
0.032167093409703515 -0.05047347965352858 0
0.0301360247560249 -0.035169842317644 0
0.0430656187737419 -0.0439762418401624 0
0.07692208389321287 -0.05594965541701552 0
0.0582154950990424 -0.0481908984647761 0
0.0548422537058286 -0.031855712630545 0
79.99999999989181 -100.0 0
-0.0277653574633118 0.0170875536358744 0
-0.0253728313896345 0.0195552568821745 0
-0.0235167370871305 0.0168776382597386 0
-0.004748211700087126 0.08614552824811239 0
-0.015213434667252848 0.03458933162948172 0
-0.02578830522920244 0.033662703157787174 0
0.016463816405416623 -0.054086690466235966 0
0.029041753454609246 -0.06535016009317125 0
-0.04950814046537272 -0.020209977796745354 0
-0.04290900894574621 -0.013823468665524245 0
-0.04373440703222628 -0.022455410456453655 0
0.0194560720386695 -0.0304193693564759 0
0.0289007043338643 -0.0251405180422353 0
0.0035498636694434 0.0192237855078591 0
0.00979699339217746 0.0252867145083996 0
0.0108491192549991 0.0187822539737681 0
-0.059423550118115356 0.025892553019565077 0
-0.07250361364307206 0.028017267849258606 0
-0.0665338632214803 0.03418778918929502 0
0.04488701074516765 -0.08152901758338683 0
0.02728439390807469 -0.08575543539397608 0
-0.04259603999550175 -0.07421917258500949 0
-0.03910646897652975 -0.061014040039829985 0
-0.033055489412589074 0.024613485630677924 0
-0.03604088207517224 0.030295193299696717 0
-0.030298812076451673 0.031205245341382075 0
0.064164510996785 -0.0698310432815971 0
0.0128016868192705 -0.0332819188097087 0
0.0123055969807476 -0.0239439844702318 0
-0.06690963852397462 0.04482552853834933 0
-0.053349378855256965 0.04079237797976443 0
0.022138033097044162 -0.10436001913304441 0
-0.05366397843028919 -0.015603657529233962 0
-0.05495263783751437 -0.02384837530829348 0
-0.0289589877044748 0.0223815524941236 0
-0.0244939615689553 0.0226267826544183 0
-0.014784368274227255 0.006852740919011682 0
-0.014835474831751587 0.012107617258524448 0
-0.010709310676580324 0.008561261767088003 0
-0.023673670266762398 -0.017546036160194216 0
-0.03118321340313666 -0.020143999513415438 0
-0.020078595591272556 0.00602338906139217 0
-0.016292711987437328 0.002383524951560901 0
-0.0019757919791558204 -0.0618998710460482 0
-0.007358126320535319 -0.04810907027392408 0
0.005109331246381181 -0.05356185106049608 0
-0.073533185735956 -0.0269879450278479 0
-0.0711490820300776 -0.035621076179044 0
0.00941850268378638 -0.0409053485149747 0
0.000324749523407855 0.0149577390299386 0
-0.00114964991141865 0.0211928138448692 0
-0.01753219513298605 -0.02253108925010374 0
-0.015381399916896975 -0.015784920880888672 0
-40.00000000023785 -100.0 0
-0.0834544367922834 -0.0453289140717586 0
-0.0911769840749142 -0.0407905205565273 0
-0.022216323001275462 0.009305784205386969 0
-0.02565483555656 0.0114743063147442 0
-0.0225128666602708 0.0127383719460101 0
-0.0196038673199747 0.0149157139825714 0
-0.026141512099773064 -0.0016034831798176893 0
-0.021869338355066603 -0.004438568002598848 0
-0.01590433731222115 -0.10211554373257271 0
0.009040872889672001 0.07744994628763713 0
-0.011848742555335304 0.06822505962275655 0
0.008466966986891793 -0.08656155189599668 0
-0.043900360971583674 -0.03090313266651617 0
-0.04139428957680355 -0.040185444516526836 0
-0.04830785062760008 -0.039215544666947606 0
0.00301257237534965 -0.0330498731850761 0
0.0175988502226385 0.0505395809901487 0
0.0310153782965417 0.0485307217731378 0
-0.008501002220992235 -0.014452739294111103 0
-0.00209446073331634 -0.0100878867874262 0
-0.0019924492800105 -0.0162259371937818 0
-0.033372025937528874 -0.0849550332561294 0
39.99999999970139 -100.0 0
-0.030738753420966453 -0.00030867090841993274 0
-0.026667729958142206 0.002616842162841893 0
-0.0280686240966729 0.00993884812745935 0
-0.0284282242142195 0.0132116456663088 0
-0.04266361682681559 0.045295781770870625 0
-0.04141645930482599 0.06202276653821444 0
-0.0310329127193217 0.00772595486878749 0
-0.0348742130303001 0.0050756996844924 0
-0.0345935619711032 0.00907489939937314 0
-0.04130170678389547 0.08968031574390212 0
-0.021978360343026134 -0.03713526349214391 0
-0.015238226851694391 -0.04383291194056087 0
-0.021746896426125865 -0.04798397370954705 0
-0.004515730828358727 0.05198259521534322 0
-0.03326729650343912 -0.0365491907321267 0
-0.036735621186114537 -0.04506816266425751 0
-0.03825983462653361 -0.008924864215196497 0
-0.034799951371077005 -0.003656738730008052 0
-0.0953489853929351 0.00639495001608243 0
-0.0882260491767073 0.00868345164397778 0
-0.0893699282230234 -2.13216091893287e-05 0
-0.045250365008999434 0.0272185245923624 0
-0.043099009894410976 0.03491360963366031 0
-0.008760279697875017 -0.03642745630847276 0
-0.014607844171635336 -0.009913685746384508 0
0.0433676626812974 0.0510143632755503 0
0.057680397495777 0.0568090383981696 0
0.0547388222048539 0.0420353500730926 0
-0.0680742437099117 -0.0224198150042669 0
-0.0754533610659713 -0.0199401712459077 0
-0.0204152499544207 0.0244264035336416 0
-0.0244573196627441 0.0274761720991219 0
-0.0280736969378862 0.00612416353744322 0
-0.0237426584617268 0.0051616050056751 0
-0.009442907553420556 0.03194500214330622 0
-0.0152692556846116 0.0271109621241102 0
0.0339800950435884 0.0628722737068753 0
0.00547093095526711 -0.0192127636312976 0
-0.000828378190875263 -0.0239612354420055 0
0.0117171829919132 0.0616935831540255 0
0.0217636204111161 0.0759519284257235 0
0.0634880232410281 -0.0908892089713418 0
-0.00403675077196702 -0.00440545776901908 0
0.00124942066395306 -0.00607278927782318 0
-0.0405127957011426 0.0173863017623058 0
-0.0353611188712542 0.0180911537571033 0
-0.0373164866487059 0.0129702328550252 0
-0.03725392982620389 -0.02412460107952106 0
0.0109141616158013 -0.0166821893435554 0
0.0712221655431924 0.0667418686731703 0
-0.037174544015705774 -0.05268668020630196 0
-0.030989508139372436 -0.06225054990674374 0
-3.469509124442993e-10 -100.0 0
-0.0156065664739847 0.0167234478982642 0
-0.00917792026005833 -0.00281973179291316 0
-0.00531720641162441 0.00136272189897806 0
-0.04389369317872325 -0.007124508981176523 0
-0.01848402004427979 -0.001352193282223241 0
-0.01820304388296086 -0.006807384771453713 0
-0.021823243118974836 -0.07577484247361288 0
-0.02213125423698534 -0.08960146601465652 0
-0.0664339407272856 0.0131422931250945 0
-0.0596274908736701 0.0145981791795834 0
-0.0615603808317928 0.00795192431877467 0
-0.06138928468529502 0.062063169334399315 0
-0.07801391594992046 0.05561699080912818 0
0.00626179106314311 0.0517392530295175 0
0.00173219986529455 0.0413211927099758 0
-0.06168748135518849 0.08909879801527741 0
-0.0639649207603301 -0.0174448697197494 0
-0.0620986575748358 -0.0239736746627486 0
-0.05356181189477163 -0.045758383020446415 0
-0.05572199781762305 -0.03627293951632513 0
-0.00444173500866466 0.0254514306112634 0
-0.00300950022373694 0.0331689298239952 0
-0.0586231492450217 -0.0133448666554931 0
-0.0641780182324134 -0.0116206530373939 0
-0.0632991438419666 -0.0358853026335657 0
-0.0585556470117811 -0.0295072124385108 0
-0.00728617684130907 0.011425618143025755 0
-0.00700338187916097 0.006199567008725 0
-0.012485932931554646 -0.027251334112014962 0
-0.020705178695895866 -0.028763472548199047 0
0.00681971217631944 0.0335577049034754 0
-0.00207167021367948 0.00495218588974611 0
9.28941116466515e-05 0.0105719473370785 0
0.00129843553804676 0.00645375601015985 0
-0.039067990055073 0.0019634762063029 0
-0.0437435333360016 -0.00143629180388166 0
-0.0432790399647906 0.00315517982345616 0
-0.0483720199121887 -0.0057978958636794 0
-0.053566352633281 -0.00960875960248262 0
-0.0533268378634354 -0.00384826727626424 0
-0.0719614649239006 0.0186253279416089 0
-0.0802461777606968 0.0258346943594017 0
-0.0310430768285275 0.0168858462220725 0
-0.0291544740503014 0.0142819687744122 0
-0.0352476669363265 0.000699299613955102 0
-0.0122540327505028 -0.00602252231899967 0
-0.0646548773826367 -0.07608391897478103 0
-0.06949515064136937 -0.06661069540354261 0
-0.0681167570172575 -0.0425671994940924 0
-0.0624518179617391 -0.0499738516748076 0
-0.0704375441921228 -0.0503778794786503 0
-0.0847281814911439 -0.0534333745044427 0
-0.02328860059521376 -0.055456696358355345 0
-0.029418673069903496 -0.04852616874246768 0
-0.004413031344039727 -0.0909051185512835 0
-0.0132488441907014 -0.000706130791354216 0
-0.0002546255134907798 -0.07462757194081297 0
-0.0527401215506845 0.0146803983373737 0
-0.0465025078216912 0.0158450882717452 0
-0.0486372247182203 0.0108392673072331 0
-0.0336408585505752 0.0210719011168587 0
-0.0724293178049046 -0.0583638403918166 0
-0.0778973722342545 -0.0506849095154438 0
-0.0806232486791826 0.00956545658508991 0
-0.0735551318269779 0.0114248883842652 0
-0.0753108223202048 0.00432324189663902 0
-0.044761198302026 0.0212606938657759 0
-0.0516981787682913 0.0250188482416028 0
-0.0890564462960946 0.0253892573584229 0
-0.0861495877920253 0.0163068495727905 0
-0.102460274990398 0.00300099854359395 0
-0.04971605064954759 0.07472446682147424 0
-0.00489923325723739 -0.0303481452384426 0
-0.03186217995370815 -0.028241725091065276 0
-0.0154603071628672 0.0219010945800103 0
-0.0106527913083682 0.0190402069911336 0
-0.0571792611570545 0.0198458143485655 0
-0.012702723165916092 -0.06801259153258013 0
-0.023142925359023885 -0.06397694977054445 0
-0.101834302678714 0.0116965673666293 0
-0.0773758044564272 -0.0660599809282416 0
-0.00721398390275688 0.0156096235894762 0
-0.00372144889169525 0.0131883728903809 0
-0.027160605694248253 -0.03273430944733623 0
-0.00673808777183288 0.020664897128854 0
$EndNodes
$Elements
8 1912 1 1912
1 1 1 48
1 1 6
2 6 11
3 11 16
4 16 21
5 21 26
6 26 31
7 31 36
8 36 41
9 41 46
10 46 51
11 51 56
12 56 61
13 61 66
14 66 71
15 71 76
16 76 81
17 1221 81
18 1235 86
19 1348 91
20 1343 96
21 1386 101
22 1238 106
23 1208 111
24 1327 116
25 121 126
26 126 131
27 131 136
28 136 141
29 141 146
30 146 151
31 151 156
32 156 161
33 161 166
34 166 171
35 171 176
36 176 181
37 181 186
38 186 191
39 191 196
40 196 1
41 116 1208
42 86 1221
43 91 1235
44 111 1238
45 121 1327
46 101 1343
47 96 1348
48 106 1386
1 2 1 53
49 1303 202
50 1308 207
51 1389 212
52 1392 217
53 1376 222
54 1329 227
55 1205 232
56 237 242
57 242 247
58 247 252
59 252 257
60 257 262
61 262 267
62 267 272
63 272 277
64 277 282
65 282 287
66 287 292
67 292 297
68 297 302
69 302 307
70 307 312
71 312 317
72 317 322
73 322 327
74 327 332
75 332 337
76 337 342
77 342 347
78 347 352
79 352 357
80 357 362
81 362 367
82 367 372
83 1320 372
84 1418 377
85 1363 382
86 1412 387
87 1346 392
88 1396 397
89 237 1205
90 207 1303
91 212 1308
92 377 1320
93 232 1329
94 397 1346
95 387 1363
96 227 1376
97 217 1389
98 222 1392
99 202 1396
100 392 1412
101 382 1418
1 3 1 40
102 403 408
103 408 413
104 413 418
105 418 423
106 423 428
107 428 433
108 433 438
109 438 443
110 443 448
111 448 453
112 453 458
113 458 463
114 463 468
115 468 473
116 473 478
117 478 483
118 483 488
119 488 493
120 493 498
121 498 503
122 503 508
123 508 513
124 513 518
125 518 523
126 523 528
127 528 533
128 533 538
129 538 543
130 543 548
131 548 553
132 553 558
133 558 563
134 563 568
135 568 573
136 573 578
137 578 583
138 583 588
139 588 593
140 593 598
141 598 403
1 4 1 10
142 608 1196
143 609 1276
144 610 1352
145 611 1299
146 605 1222
147 608 1196
148 605 1222
149 609 1276
150 611 1299
151 610 1352
1 5 1 5
152 605 612
153 612 613
154 613 614
155 614 615
156 615 606
1 6 1 5
157 606 616
158 616 617
159 617 618
160 618 619
161 619 607
1 7 1 5
162 607 620
163 620 621
164 621 622
165 622 623
166 623 604
2 1 2 1746
167 698 702 780
168 1196 1000 608
169 638 730 1001
170 1197 1198 1199
171 836 649 886
172 701 757 1064
173 683 684 1187
174 1200 1201 1202
175 730 635 1001
176 1203 1204 1205
177 634 722 827
178 712 713 782
179 641 722 1080
180 852 742 915
181 756 801 929
182 889 641 890
183 646 843 1029
184 745 648 845
185 730 638 1012
186 672 725 801
187 1206 1207 1208
188 1209 784 1023
189 833 741 1096
190 612 605 1103
191 756 672 801
192 819 630 820
193 513 508 823
194 604 623 1000
195 831 633 879
196 630 742 852
197 843 646 1077
198 1210 1211 1212
199 680 653 698
200 778 645 843
201 6 822 844
202 1213 1214 1215
203 682 776 857
204 408 403 1137
205 754 647 991
206 761 727 875
207 684 683 920
208 830 633 831
209 671 733 771
210 702 698 995
211 936 863 1171
212 647 858 1087
213 625 868 967
214 1216 1217 1218
215 796 905 1008
216 749 629 1066
217 700 789 936
218 1025 952 1140
219 801 725 897
220 685 627 895
221 847 785 873
222 1219 76 834
223 849 744 1073
224 729 831 879
225 6 1 822
226 1220 1218 1221
227 656 641 1080
228 56 51 863
229 710 916 1094
230 635 738 1001
231 648 745 881
232 1222 1103 605
233 797 806 1063
234 696 866 899
235 683 668 920
236 650 643 1078
237 855 717 917
238 783 707 977
239 901 617 1044
240 646 920 942
241 1223 1224 1225
242 926 660 995
243 196 748 1114
244 668 683 1155
245 820 630 852
246 776 682 1106
247 819 820 1104
248 690 916 1038
249 1226 685 751
250 738 955 1033
251 784 644 962
252 729 879 963
253 488 483 853
254 578 573 907
255 632 809 837
256 1227 1228 1199
257 724 655 1173
258 796 732 905
259 946 845 1018
260 774 820 852
261 631 829 1106
262 746 677 894
263 855 767 1021
264 767 917 1184
265 131 126 860
266 955 635 977
267 1229 1216 1230
268 1 196 1114
269 730 1012 1081
270 766 646 1100
271 653 926 995
272 748 939 940
273 403 598 930
274 937 679 1114
275 1231 1232 1233
276 829 680 1106
277 1217 1234 1235
278 659 652 686
279 1236 1237 1238
280 639 847 883
281 702 703 763
282 717 792 1024
283 752 804 1013
284 403 923 1076
285 758 695 892
286 722 634 841
287 788 719 862
288 757 708 980
289 493 488 935
290 731 683 811
291 642 795 933
292 1239 1240 1241
293 1230 1242 1243
294 1244 1213 1245
295 803 640 805
296 186 181 892
297 728 830 831
298 860 716 1051
299 610 759 1103
300 810 608 1000
301 916 710 1038
302 639 723 890
303 1246 1247 1248
304 661 658 1010
305 1249 1220 1219
306 252 247 875
307 793 721 1048
308 1250 1251 1234
309 838 732 1069
310 729 807 918
311 817 737 1083
312 473 468 871
313 634 741 833
314 617 826 1044
315 708 757 894
316 1252 1253 1241
317 924 703 1040
318 806 651 1063
319 763 703 1126
320 809 632 911
321 743 712 782
322 700 936 1171
323 848 628 996
324 463 458 897
325 822 662 844
326 642 696 899
327 1254 802 972
328 1255 1231 1256
329 641 656 803
330 784 665 1183
331 692 693 1022
332 738 635 955
333 1224 1257 1258
334 1259 1260 1261
335 736 637 818
336 879 770 963
337 648 814 1018
338 508 503 983
339 681 817 1083
340 613 859 916
341 627 685 1191
342 792 715 1024
343 937 748 940
344 843 740 1084
345 915 742 1092
346 802 704 876
347 1010 658 1029
348 1200 716 904
349 955 754 1033
350 844 662 911
351 782 713 839
352 1262 1263 1212
353 732 838 1046
354 649 659 661
355 701 799 861
356 1264 1259 1265
357 866 695 899
358 675 730 1081
359 917 11 1184
360 725 672 1027
361 837 809 1014
362 1266 1267 1268
363 685 1022 1191
364 1269 1270 1203
365 994 771 1079
366 826 617 1113
367 709 744 849
368 11 6 1184
369 433 428 898
370 960 1009 1183
371 875 727 964
372 1271 1229 1268
373 672 756 888
374 1047 678 1192
375 628 874 931
376 1272 1273 1236
377 859 612 1103
378 701 861 1139
379 721 793 885
380 36 31 905
381 958 747 993
382 1274 1262 1275
383 523 518 896
384 890 641 944
385 635 730 976
386 71 66 878
387 796 1025 1140
388 634 833 841
389 1276 810 609
390 732 835 905
391 702 763 907
392 665 784 962
393 679 937 1129
394 624 914 980
395 802 766 1085
396 548 543 941
397 443 438 900
398 671 771 994
399 277 272 903
400 613 612 859
401 657 838 1069
402 662 1159 1195
403 917 717 952
404 1277 1278 1204
405 660 924 1040
406 1279 1280 1281
407 643 951 1078
408 740 766 802
409 618 617 901
410 772 744 1111
411 897 725 969
412 721 865 1048
413 629 772 1066
414 847 639 1111
415 1225 1282 1281
416 916 859 1094
417 714 922 1062
418 754 991 1167
419 968 713 1159
420 1211 1283 1284
421 677 1004 1044
422 609 810 996
423 723 639 883
424 847 770 883
425 971 1039 1194
426 922 735 1062
427 647 754 974
428 803 805 944
429 858 647 891
430 744 772 1073
431 660 753 924
432 637 736 858
433 695 758 899
434 488 853 935
435 1087 858 1170
436 727 761 1042
437 1285 1085 644
438 478 473 927
439 958 791 1115
440 643 736 818
441 688 847 873
442 814 648 1119
443 778 843 1084
444 558 553 949
445 882 774 1161
446 911 662 1148
447 21 16 952
448 1286 1287 1226
449 1254 1288 1243
450 952 717 1140
451 802 876 1154
452 923 703 924
453 1289 1290 1291
454 408 1137 1152
455 868 650 967
456 795 642 1125
457 56 863 936
458 747 958 1115
459 861 799 1047
460 16 917 952
461 826 1059 1193
462 727 825 964
463 1159 712 1195
464 866 631 940
465 645 828 843
466 790 615 1054
467 858 736 1170
468 905 835 1061
469 1292 1250 1271
470 794 848 1175
471 942 668 960
472 983 503 1074
473 141 136 906
474 707 783 841
475 1005 705 1089
476 739 860 1051
477 1016 794 1048
478 759 610 931
479 637 858 891
480 282 277 919
481 651 795 1005
482 638 946 1018
483 845 648 1018
484 16 11 917
485 797 625 806
486 757 701 912
487 1207 1293 1294
488 688 873 874
489 895 973 1051
490 767 855 917
491 1056 839 1074
492 715 845 946
493 654 971 1194
494 1295 1296 1297
495 1209 1244 1298
496 860 126 904
497 791 714 1115
498 672 881 1027
499 734 713 968
500 748 196 939
501 655 814 925
502 1299 1103 611
503 820 640 1104
504 1300 1301 1283
505 186 892 1142
506 1280 1302 1303
507 907 763 997
508 1304 1305 1197
509 809 911 1148
510 888 1119 1147
511 1306 1307 1308
512 493 935 1056
513 679 968 1114
514 879 633 1028
515 718 793 794
516 663 837 1014
517 621 620 840
518 453 448 929
519 626 1016 1048
520 649 661 1010
521 688 874 985
522 1309 685 812
523 653 680 829
524 621 885 1037
525 61 56 936
526 719 1087 1170
527 1011 835 1190
528 1310 1311 1312
529 714 674 1115
530 696 829 866
531 724 675 1081
532 861 626 1139
533 671 914 1163
534 705 821 1138
535 750 1011 1190
536 968 679 1146
537 785 710 873
538 823 508 983
539 1119 648 1147
540 745 845 1107
541 700 913 1039
542 1287 1313 1198
543 196 191 939
544 920 646 1029
545 876 704 1181
546 871 969 1180
547 979 676 1128
548 626 1048 1139
549 1290 1314 1315
550 568 563 970
551 969 725 1180
552 151 146 934
553 669 693 694
554 1316 1317 1210
555 721 885 1128
556 843 828 1029
557 817 681 1141
558 1318 1319 1320
559 176 171 950
560 873 759 874
561 723 883 1028
562 913 788 1039
563 780 702 907
564 828 1010 1029
565 1247 1321 1322
566 810 848 996
567 811 683 1187
568 913 750 1190
569 740 802 1154
570 831 729 918
571 815 955 977
572 1311 1323 1267
573 979 840 1182
574 1324 1295 1275
575 826 790 1059
576 687 729 963
577 1325 1326 1327
578 1012 655 1081
579 1328 1269 1329
580 774 805 820
581 895 627 973
582 828 645 886
583 863 51 961
584 1004 746 1026
585 846 660 926
586 473 871 927
587 753 660 846
588 703 762 1126
589 1330 1258 1331
590 688 770 847
591 621 840 885
592 881 745 1109
593 1301 1332 1333
594 1334 1335 1227
595 732 796 1069
596 745 837 1109
597 1336 1325 1294
598 912 865 1026
599 877 758 1176
600 619 618 1158
601 650 652 659
602 641 803 944
603 838 667 1046
604 703 702 1040
605 677 746 1004
606 71 878 928
607 687 963 985
608 750 961 1011
609 498 1056 1074
610 632 837 948
611 740 843 1077
612 1337 1338 1297
613 792 717 855
614 729 687 1015
615 744 785 1111
616 726 960 1155
617 677 1044 1193
618 423 418 958
619 718 794 1175
620 714 864 1137
621 834 76 928
622 948 745 1107
623 252 875 964
624 753 675 924
625 166 161 953
626 862 719 1157
627 674 714 1062
628 762 923 930
629 662 822 1159
630 674 925 1090
631 413 408 1152
632 722 641 889
633 1339 1286 1340
634 713 734 839
635 914 624 1163
636 789 700 971
637 712 743 1002
638 965 678 1047
639 912 701 1139
640 814 655 1012
641 890 944 1066
642 685 895 1101
643 759 873 1094
644 463 897 969
645 951 800 1078
646 1242 1249 1341
647 631 937 940
648 1331 1248 1228
649 770 688 963
650 968 1 1114
651 960 726 1009
652 1278 242 237
653 891 647 974
654 842 877 1176
655 857 776 990
656 829 631 866
657 723 889 890
658 578 907 997
659 646 766 1077
660 707 841 1132
661 1296 1342 1343
662 76 71 928
663 1344 1345 1346
664 892 887 1142
665 634 827 1130
666 714 791 864
667 622 621 1037
668 838 657 1033
669 257 252 964
670 661 686 867
671 645 778 1053
672 800 994 1079
673 905 31 1008
674 807 626 861
675 875 247 975
676 719 788 1087
677 698 653 995
678 759 1094 1103
679 944 749 1066
680 1347 1289 1233
681 287 282 1057
682 665 942 960
683 747 898 993
684 652 669 694
685 1202 1336 1340
686 1251 1337 1348
687 267 262 959
688 719 850 1053
689 1349 126 121
690 1350 1351 1245
691 766 740 1077
692 498 493 1056
693 6 844 1184
694 815 707 891
695 720 834 928
696 615 614 1054
697 832 706 953
698 1352 931 610
699 642 933 1017
700 771 733 915
701 898 747 1174
702 795 1058 1131
703 713 712 1159
704 628 931 996
705 1332 1306 1302
706 706 842 953
707 733 852 915
708 840 620 1182
709 658 661 684
710 972 802 1085
711 963 688 985
712 1059 709 1193
713 774 852 1161
714 756 929 984
715 835 732 1046
716 937 682 1129
717 51 46 961
718 1282 1353 1260
719 36 905 1061
720 770 879 1028
721 598 593 1164
722 614 613 1186
723 681 1014 1030
724 748 937 1114
725 757 746 894
726 667 913 1190
727 760 898 1174
728 673 925 1119
729 965 671 994
730 939 887 940
731 478 927 1032
732 1342 1354 1355
733 933 795 1131
734 831 918 1075
735 734 968 1146
736 483 478 1032
737 822 968 1159
738 882 1162 1163
739 636 1047 1192
740 680 776 1106
741 1094 859 1103
742 1041 971 1156
743 794 793 1048
744 1356 1316 1232
745 628 848 1179
746 756 900 1150
747 898 428 993
748 1357 1358 1284
749 626 807 1016
750 900 760 1150
751 772 629 1073
752 613 916 1186
753 247 242 975
754 538 533 990
755 840 979 1128
756 750 913 1171
757 874 759 931
758 839 734 983
759 715 792 1107
760 637 1067 1096
761 730 675 1013
762 807 729 1015
763 636 1075 1169
764 839 983 1074
765 699 1055 1104
766 617 616 1113
767 655 724 1081
768 136 131 954
769 625 797 1086
770 665 960 1183
771 468 463 969
772 979 619 1158
773 925 673 1090
774 834 720 1181
775 46 41 1011
776 518 513 938
777 837 745 948
778 443 900 984
779 1359 1360 1298
780 921 708 1172
781 1038 744 1144
782 696 642 1017
783 848 794 1168
784 927 817 1032
785 913 700 1171
786 682 937 1106
787 1033 657 1035
788 793 718 1037
789 827 722 889
790 744 709 1144
791 31 26 1008
792 615 790 1151
793 725 1027 1068
794 277 903 919
795 895 716 1101
796 708 894 1118
797 61 936 1049
798 934 821 1185
799 1361 1362 1363
800 853 483 1032
801 664 774 882
802 746 757 912
803 763 989 997
804 1004 901 1044
805 871 468 969
806 878 66 1049
807 675 724 735
808 652 868 1045
809 833 1067 1132
810 738 1033 1035
811 885 793 1037
812 1364 1252 1365
813 433 898 1034
814 907 573 1036
815 624 882 1163
816 131 860 954
817 897 458 1065
818 782 839 1056
819 900 438 1034
820 438 433 1034
821 903 731 919
822 695 866 940
823 914 671 965
824 792 948 1107
825 694 693 781
826 1004 676 1158
827 639 1066 1111
828 1024 657 1140
829 716 895 1051
830 657 1069 1140
831 646 942 1100
832 1366 1367 1313
833 357 781 1082
834 892 181 1060
835 758 877 899
836 737 817 927
837 888 756 1150
838 881 672 1147
839 707 815 977
840 66 61 1049
841 367 362 1082
842 925 674 1173
843 448 443 984
844 699 926 943
845 874 628 985
846 702 995 1040
847 625 967 1092
848 1368 1022 1134
849 883 770 1028
850 1369 1370 1328
851 973 670 1051
852 1371 1372 1291
853 767 844 911
854 418 413 1095
855 906 136 954
856 1373 1334 1374
857 593 588 988
858 716 860 904
859 181 176 1060
860 926 653 943
861 282 919 1057
862 656 783 804
863 1375 1369 1376
864 1201 1349 1326
865 947 761 975
866 428 423 993
867 1006 677 1193
868 931 609 996
869 503 498 1074
870 678 965 994
871 658 684 920
872 754 955 974
873 616 606 1151
874 653 829 943
875 1372 1377 1378
876 788 991 1087
877 458 453 1065
878 751 685 1101
879 1379 1380 1261
880 1381 1382 1274
881 842 706 877
882 788 862 1039
883 1089 705 1138
884 1383 1206 1237
885 1039 862 1194
886 156 151 992
887 1384 1385 1386
888 1387 1388 1389
889 1067 833 1096
890 1390 1391 1392
891 828 886 1010
892 695 887 892
893 26 21 1025
894 453 929 1065
895 728 1075 1192
896 637 891 1067
897 960 668 1155
898 242 947 975
899 1393 1394 1240
900 651 1005 1089
901 1014 809 1030
902 146 141 1091
903 789 971 1041
904 841 783 1080
905 900 756 984
906 806 625 1092
907 1370 1256 1378
908 705 1005 1099
909 785 744 1038
910 962 644 1085
911 946 638 1001
912 680 775 776
913 635 976 977
914 676 1004 1026
915 854 762 930
916 971 654 1156
917 1024 715 1035
918 1168 687 1179
919 805 774 1153
920 903 272 1178
921 670 739 1051
922 41 36 1061
923 929 448 984
924 1090 747 1115
925 865 721 1026
926 930 598 1164
927 709 849 1006
928 1048 865 1139
929 941 543 1019
930 896 518 938
931 885 840 1128
932 1027 663 1068
933 690 1038 1144
934 961 46 1011
935 911 632 1021
936 988 989 1126
937 643 818 951
938 736 850 1170
939 715 946 1035
940 623 622 1116
941 1395 1223 1396
942 553 548 1020
943 528 523 998
944 916 690 1186
945 1008 26 1025
946 829 696 943
947 1397 1387 1307
948 1358 1398 1324
949 741 634 1160
950 752 656 804
951 735 923 924
952 789 878 1049
953 735 724 1062
954 1399 1400 1214
955 606 615 1151
956 1401 1402 1403
957 663 1027 1109
958 1054 690 1059
959 1404 761 947
960 1333 1279 1264
961 934 146 1091
962 267 959 1178
963 878 720 928
964 191 186 1142
965 176 950 1060
966 633 830 1130
967 1009 727 1183
968 837 663 1109
969 958 418 1095
970 693 779 781
971 796 1008 1025
972 815 891 974
973 790 826 1113
974 693 765 779
975 563 558 1031
976 728 831 1075
977 588 583 989
978 1405 1406 1312
979 822 1 968
980 716 751 1101
981 825 727 1009
982 620 607 1182
983 1360 1407 1285
984 1388 1356 1390
985 1095 413 1152
986 941 775 1020
987 257 964 1121
988 1069 796 1140
989 573 568 1036
990 1408 1357 1265
991 1407 1409 1288
992 848 810 1175
993 1391 1255 1375
994 901 1004 1158
995 607 619 1182
996 141 906 1091
997 630 819 933
998 1410 1411 1412
999 868 625 1086
1000 906 739 1138
1001 687 985 1179
1002 262 257 1121
1003 795 651 1058
1004 629 749 1153
1005 743 853 1141
1006 21 952 1025
1007 1005 706 1099
1008 667 838 1167
1009 798 800 951
1010 925 814 1119
1011 583 578 997
1012 750 863 961
1013 1011 41 1061
1014 743 782 935
1015 1413 1395 1345
1016 814 1012 1018
1017 272 267 1178
1018 1414 1415 1403
1019 1042 784 1183
1020 807 1015 1016
1021 686 652 694
1022 533 528 999
1023 1416 1417 1418
1024 161 156 1123
1025 894 677 1006
1026 1055 819 1104
1027 850 719 1170
1028 1000 718 1175
1029 1157 778 1194
1030 775 949 1020
1031 423 958 993
1032 698 780 786
1033 973 627 1086
1034 788 913 1177
1035 1047 636 1169
1036 543 538 1019
1037 151 934 992
1038 806 742 1058
1039 950 171 1143
1040 887 695 940
1041 1153 664 1172
1042 1028 633 1145
1043 513 823 938
1044 878 789 1041
1045 936 789 1049
1046 739 670 1138
1047 1399 784 1070
1048 1044 826 1193
1049 949 553 1020
1050 953 161 1123
1051 757 980 1064
1052 798 678 800
1053 853 743 935
1054 971 700 1039
1055 882 624 1136
1056 775 698 786
1057 676 979 1158
1058 877 642 899
1059 1026 721 1128
1060 731 811 919
1061 684 661 867
1062 786 780 970
1063 783 656 1080
1064 942 665 1100
1065 976 730 1013
1066 735 922 923
1067 935 782 1056
1068 754 838 1033
1069 593 988 1164
1070 1045 627 1191
1071 171 166 1143
1072 1002 681 1030
1073 1419 1420 1321
1074 719 1053 1157
1075 775 786 949
1076 841 833 1132
1077 1421 779 765
1078 991 788 1177
1079 1398 1408 1354
1080 959 262 1121
1081 166 953 1143
1082 761 875 975
1083 805 749 944
1084 818 637 1096
1085 723 827 889
1086 720 878 1041
1087 939 191 1142
1088 785 847 1111
1089 720 876 1181
1090 976 783 977
1091 710 785 1038
1092 848 1168 1179
1093 708 1093 1172
1094 1341 1181 704
1095 776 775 941
1096 821 906 1138
1097 845 715 1107
1098 1380 1384 1355
1099 1150 760 1174
1100 676 1026 1128
1101 618 901 1158
1102 627 1045 1086
1103 548 941 1020
1104 891 707 1067
1105 896 777 1097
1106 672 888 1147
1107 673 888 1150
1108 990 776 1019
1109 951 741 1003
1110 665 962 1100
1111 1066 772 1111
1112 746 912 1026
1113 1377 1401 1270
1114 1422 1416 1319
1115 1423 367 1098
1116 1022 685 1134
1117 821 705 1185
1118 558 949 1031
1119 1305 1364 1424
1120 1014 681 1083
1121 871 737 927
1122 1402 1371 1215
1123 1338 1292 1425
1124 752 753 846
1125 810 1000 1175
1126 674 1090 1115
1127 667 1167 1177
1128 1406 1350 1315
1129 1002 1030 1195
1130 774 664 1153
1131 1293 1366 1339
1132 838 754 1167
1133 651 806 1058
1134 888 673 1119
1135 670 973 1063
1136 1042 761 1070
1137 1317 1397 1300
1138 664 1136 1172
1139 741 818 1096
1140 706 1005 1125
1141 970 563 1031
1142 865 912 1139
1143 1003 741 1160
1144 825 1009 1149
1145 658 920 1029
1146 1367 1383 1374
1147 1090 673 1174
1148 825 959 1121
1149 873 710 1094
1150 1426 1347 1263
1151 669 1045 1191
1152 1093 629 1172
1153 1427 1428 1353
1154 1429 1410 1362
1155 645 1053 1102
1156 642 877 1125
1157 804 783 976
1158 568 970 1036
1159 886 645 1102
1160 862 1157 1194
1161 1030 662 1195
1162 717 1024 1140
1163 1430 1359 1431
1164 657 1024 1035
1165 1253 1304 1322
1166 1006 849 1118
1167 670 1089 1138
1168 959 825 1149
1169 1084 740 1154
1170 800 678 994
1171 736 836 850
1172 709 1059 1144
1173 737 1068 1083
1174 523 896 998
1175 877 706 1125
1176 664 882 1136
1177 693 669 1022
1178 850 836 1102
1179 1093 708 1118
1180 970 780 1036
1181 860 739 954
1182 1075 918 1169
1183 1075 636 1192
1184 876 720 1156
1185 1415 1404 1277
1186 894 1006 1118
1187 1046 667 1190
1188 1076 714 1137
1189 832 992 1185
1190 718 1000 1116
1191 747 1090 1174
1192 980 914 1064
1193 798 728 1192
1194 663 1014 1083
1195 991 647 1087
1196 948 792 1188
1197 156 992 1123
1198 1053 778 1157
1199 853 817 1141
1200 771 967 1079
1201 632 948 1188
1202 1411 1419 1344
1203 1002 743 1141
1204 863 750 1171
1205 790 1054 1059
1206 946 738 1035
1207 784 1042 1070
1208 844 767 1184
1209 1059 690 1144
1210 1016 1015 1168
1211 989 763 1126
1212 898 760 1034
1213 699 943 1055
1214 990 533 999
1215 696 1017 1055
1216 760 900 1034
1217 762 854 1126
1218 731 903 1166
1219 827 633 1130
1220 864 1095 1152
1221 937 631 1106
1222 709 1006 1193
1223 1323 1381 1425
1224 964 825 1121
1225 1409 1430 1266
1226 1073 629 1093
1227 823 734 1146
1228 1351 1405 1431
1229 988 588 989
1230 733 671 1162
1231 639 890 1066
1232 807 861 1169
1233 992 832 1123
1234 1137 864 1152
1235 1099 832 1185
1236 1068 663 1083
1237 771 915 967
1238 1368 1309 1424
1239 1097 777 1129
1240 1068 737 1180
1241 933 819 1017
1242 1423 1432 1318
1243 959 856 1178
1244 799 701 1064
1245 686 694 867
1246 798 951 1003
1247 1021 632 1188
1248 738 946 1001
1249 801 897 1065
1250 835 1011 1061
1251 648 881 1147
1252 929 801 1065
1253 728 798 1003
1254 792 855 1188
1255 767 911 1021
1256 634 1130 1160
1257 1417 1393 1361
1258 690 1054 1186
1259 655 925 1173
1260 1000 623 1116
1261 737 871 1180
1262 823 777 938
1263 674 1062 1173
1264 1433 761 1112
1265 1009 726 1149
1266 962 766 1100
1267 830 728 1003
1268 706 832 1099
1269 678 798 1192
1270 720 1041 1156
1271 1062 724 1173
1272 662 1030 1148
1273 777 823 1146
1274 739 906 954
1275 1037 718 1116
1276 619 979 1182
1277 835 1046 1190
1278 854 988 1126
1279 629 1153 1172
1280 967 650 1079
1281 712 1002 1195
1282 1027 881 1109
1283 1154 876 1156
1284 989 583 997
1285 906 821 1091
1286 1434 1435 1379
1287 1314 1426 1436
1288 780 907 1036
1289 727 1042 1183
1290 742 806 1092
1291 955 815 974
1292 670 1063 1089
1293 914 799 1064
1294 1058 742 1131
1295 777 679 1129
1296 1382 1310 1436
1297 1017 819 1055
1298 758 892 1060
1299 950 758 1060
1300 856 726 1166
1301 1394 1422 1421
1302 679 777 1146
1303 818 741 951
1304 1167 991 1177
1305 856 903 1178
1306 913 667 1177
1307 830 1003 1160
1308 995 660 1040
1309 650 1078 1079
1310 538 990 1019
1311 943 696 1055
1312 726 856 1149
1313 886 649 1010
1314 1437 1434 1428
1315 661 659 686
1316 827 723 1145
1317 852 733 1161
1318 887 939 1142
1319 861 1047 1169
1320 817 853 1032
1321 856 959 1149
1322 836 886 1102
1323 633 827 1145
1324 669 652 1045
1325 673 1150 1174
1326 1113 616 1151
1327 1155 731 1166
1328 699 846 926
1329 528 998 999
1330 723 1028 1145
1331 654 1084 1154
1332 781 779 1082
1333 1433 1414 1400
1334 766 962 1085
1335 791 958 1095
1336 726 1155 1166
1337 778 1084 1194
1338 998 857 999
1339 799 914 965
1340 1084 654 1194
1341 1067 707 1132
1342 790 1113 1151
1343 749 805 1153
1344 821 934 1091
1345 799 965 1047
1346 864 791 1095
1347 734 823 983
1348 992 934 1185
1349 919 811 1057
1350 367 1082 1098
1351 849 1093 1118
1352 923 922 1076
1353 903 856 1166
1354 988 854 1164
1355 725 1068 1180
1356 1012 638 1018
1357 842 950 1143
1358 776 941 1019
1359 998 896 1097
1360 973 797 1063
1361 1030 809 1148
1362 1136 921 1172
1363 832 953 1123
1364 953 842 1143
1365 918 807 1169
1366 1015 687 1168
1367 1054 614 1186
1368 1063 651 1089
1369 758 950 1176
1370 797 973 1086
1371 985 628 1179
1372 705 1099 1185
1373 722 841 1080
1374 1161 733 1162
1375 630 933 1131
1376 857 998 1097
1377 1335 1427 1330
1378 777 896 938
1379 1435 1272 1385
1380 794 1016 1168
1381 1257 1413 1246
1382 950 842 1176
1383 681 1002 1141
1384 622 1037 1116
1385 1420 1429 1239
1386 1162 671 1163
1387 654 1154 1156
1388 1005 795 1125
1389 849 1073 1093
1390 855 1021 1188
1391 1273 1437 1373
1392 967 915 1092
1393 1022 669 1191
1394 804 976 1013
1395 854 930 1164
1396 1078 800 1079
1397 786 970 1031
1398 949 786 1031
1399 1045 868 1086
1400 882 1161 1162
1401 1053 850 1102
1402 682 857 1097
1403 1130 830 1160
1404 857 990 999
1405 682 1097 1129
1406 1432 779 982
1407 1082 779 1098
1408 292 287 1057
1409 297 292 1187
1410 811 292 1057
1411 292 811 1187
1412 302 297 1187
1413 307 302 1187
1414 312 307 684
1415 684 307 1187
1416 317 312 867
1417 312 684 867
1418 322 317 867
1419 327 322 867
1420 332 327 867
1421 337 332 867
1422 342 337 694
1423 694 337 867
1424 347 342 694
1425 352 347 781
1426 347 694 781
1427 357 352 781
1428 362 357 1082
1429 923 403 930
1430 403 1076 1137
1431 921 624 980
1432 624 921 1136
1433 742 630 1131
1434 752 640 803
1435 640 752 846
1436 805 640 820
1437 640 846 1104
1438 649 643 659
1439 643 649 836
1440 643 650 659
1441 736 643 836
1442 652 650 868
1443 656 752 803
1444 920 668 942
1445 675 735 924
1446 675 753 1013
1447 680 698 775
1448 683 731 1155
1449 1365 693 692
1450 846 699 1104
1451 762 703 923
1452 708 921 980
1453 922 714 1076
1454 753 752 1013
1455 1196 604 1000
1456 1197 812 1198
1457 1198 691 1199
1458 1199 711 1197
1459 1200 904 1201
1460 1201 872 1202
1461 1202 751 1200
1462 1203 851 1204
1463 1204 237 1205
1464 1205 232 1203
1465 1206 1133 1207
1466 1207 116 1208
1467 1208 111 1206
1468 1209 644 784
1469 1210 870 1211
1470 1211 689 1212
1471 1212 816 1210
1472 1213 1023 1214
1473 1214 697 1215
1474 1215 932 1213
1475 1216 902 1217
1476 1217 86 1218
1477 1218 880 1216
1478 1219 81 76
1479 1220 880 1218
1480 1218 86 1221
1481 1221 81 1220
1482 1222 611 1103
1483 1223 1120 1224
1484 1224 966 1225
1485 1225 202 1223
1486 1226 812 685
1487 1227 813 1228
1488 1228 711 1199
1489 1199 691 1227
1490 1229 902 1216
1491 1216 880 1230
1492 1230 755 1229
1493 1231 1071 1232
1494 1232 816 1233
1495 1233 773 1231
1496 1217 902 1234
1497 1234 91 1235
1498 1235 86 1217
1499 1236 884 1237
1500 1237 111 1238
1501 1238 106 1236
1502 1239 981 1240
1503 1240 765 1241
1504 1241 787 1239
1505 1230 880 1242
1506 1242 704 1243
1507 1243 755 1230
1508 1244 1023 1213
1509 1213 932 1245
1510 1245 824 1244
1511 1246 978 1247
1512 1247 711 1248
1513 1248 869 1246
1514 1249 880 1220
1515 1220 81 1219
1516 1219 834 1249
1517 1250 1050 1251
1518 1251 91 1234
1519 1234 902 1250
1520 1252 1189 1253
1521 1253 787 1241
1522 1241 765 1252
1523 1254 704 802
1524 1255 1071 1231
1525 1231 773 1256
1526 1256 1043 1255
1527 1224 1120 1257
1528 1257 869 1258
1529 1258 966 1224
1530 1259 910 1260
1531 1260 769 1261
1532 1261 908 1259
1533 1200 751 716
1534 1262 987 1263
1535 1263 816 1212
1536 1212 689 1262
1537 1264 910 1259
1538 1259 908 1265
1539 1265 768 1264
1540 1266 909 1267
1541 1267 764 1268
1542 1268 755 1266
1543 1269 945 1270
1544 1270 851 1203
1545 1203 232 1269
1546 1271 902 1229
1547 1229 755 1268
1548 1268 764 1271
1549 1272 1108 1273
1550 1273 884 1236
1551 1236 106 1272
1552 1274 987 1262
1553 1262 689 1275
1554 1275 893 1274
1555 1276 608 810
1556 1277 947 1278
1557 1278 237 1204
1558 1204 851 1277
1559 1279 956 1280
1560 1280 202 1281
1561 1281 910 1279
1562 1225 966 1282
1563 1282 910 1281
1564 1281 202 1225
1565 1211 870 1283
1566 1283 768 1284
1567 1284 689 1211
1568 1285 972 1085
1569 1286 1124 1287
1570 1287 812 1226
1571 1226 751 1286
1572 1254 972 1288
1573 1288 755 1243
1574 1243 704 1254
1575 1289 1110 1290
1576 1290 932 1291
1577 1291 773 1289
1578 1292 1050 1250
1579 1250 902 1271
1580 1271 764 1292
1581 1207 1133 1293
1582 1293 808 1294
1583 1294 116 1207
1584 1295 986 1296
1585 1296 96 1297
1586 1297 893 1295
1587 1209 1023 1244
1588 1244 824 1298
1589 1298 644 1209
1590 1299 610 1103
1591 1300 957 1301
1592 1301 768 1283
1593 1283 870 1300
1594 1280 956 1302
1595 1302 207 1303
1596 1303 202 1280
1597 1304 1189 1305
1598 1305 812 1197
1599 1197 711 1304
1600 1306 957 1307
1601 1307 212 1308
1602 1308 207 1306
1603 1309 1134 685
1604 1310 1117 1311
1605 1311 909 1312
1606 1312 666 1310
1607 1287 1124 1313
1608 1313 691 1198
1609 1198 812 1287
1610 1290 1110 1314
1611 1314 666 1315
1612 1315 932 1290
1613 1316 1127 1317
1614 1317 870 1210
1615 1210 816 1316
1616 1318 982 1319
1617 1319 377 1320
1618 1320 372 1318
1619 1247 978 1321
1620 1321 787 1322
1621 1322 711 1247
1622 1311 1117 1323
1623 1323 764 1267
1624 1267 909 1311
1625 1324 986 1295
1626 1295 893 1275
1627 1275 689 1324
1628 1325 872 1326
1629 1326 121 1327
1630 1327 116 1325
1631 1328 945 1269
1632 1269 232 1329
1633 1329 227 1328
1634 1330 966 1258
1635 1258 869 1331
1636 1331 813 1330
1637 1301 957 1332
1638 1332 956 1333
1639 1333 768 1301
1640 1334 1105 1335
1641 1335 813 1227
1642 1227 691 1334
1643 1336 872 1325
1644 1325 116 1294
1645 1294 808 1336
1646 1337 1050 1338
1647 1338 893 1297
1648 1297 96 1337
1649 1339 1124 1286
1650 1286 751 1340
1651 1340 808 1339
1652 1242 880 1249
1653 1249 834 1341
1654 1341 704 1242
1655 1331 869 1248
1656 1248 711 1228
1657 1228 813 1331
1658 1278 947 242
1659 1296 986 1342
1660 1342 101 1343
1661 1343 96 1296
1662 1344 978 1345
1663 1345 397 1346
1664 1346 392 1344
1665 1347 1110 1289
1666 1289 773 1233
1667 1233 816 1347
1668 1202 872 1336
1669 1336 808 1340
1670 1340 751 1202
1671 1251 1050 1337
1672 1337 96 1348
1673 1348 91 1251
1674 1349 904 126
1675 1350 1135 1351
1676 1351 824 1245
1677 1245 932 1350
1678 1352 609 931
1679 1332 957 1306
1680 1306 207 1302
1681 1302 956 1332
1682 1282 966 1353
1683 1353 769 1260
1684 1260 910 1282
1685 1342 986 1354
1686 1354 908 1355
1687 1355 101 1342
1688 1356 1127 1316
1689 1316 816 1232
1690 1232 1071 1356
1691 1357 1122 1358
1692 1358 689 1284
1693 1284 768 1357
1694 1359 1052 1360
1695 1360 644 1298
1696 1298 824 1359
1697 1361 981 1362
1698 1362 387 1363
1699 1363 382 1361
1700 1364 1189 1252
1701 1252 765 1365
1702 1365 692 1364
1703 1366 1133 1367
1704 1367 691 1313
1705 1313 1124 1366
1706 1368 692 1022
1707 1369 1043 1370
1708 1370 945 1328
1709 1328 227 1369
1710 1371 1072 1372
1711 1372 773 1291
1712 1291 932 1371
1713 1373 1105 1334
1714 1334 691 1374
1715 1374 884 1373
1716 1375 1043 1369
1717 1369 227 1376
1718 1376 222 1375
1719 1201 904 1349
1720 1349 121 1326
1721 1326 872 1201
1722 1372 1072 1377
1723 1377 945 1378
1724 1378 773 1372
1725 1379 1088 1380
1726 1380 908 1261
1727 1261 769 1379
1728 1381 1117 1382
1729 1382 987 1274
1730 1274 893 1381
1731 1383 1133 1206
1732 1206 111 1237
1733 1237 884 1383
1734 1384 1088 1385
1735 1385 106 1386
1736 1386 101 1384
1737 1387 1127 1388
1738 1388 217 1389
1739 1389 212 1387
1740 1390 1071 1391
1741 1391 222 1392
1742 1392 217 1390
1743 1393 1007 1394
1744 1394 765 1240
1745 1240 981 1393
1746 1370 1043 1256
1747 1256 773 1378
1748 1378 945 1370
1749 1395 1120 1223
1750 1223 202 1396
1751 1396 397 1395
1752 1397 1127 1387
1753 1387 212 1307
1754 1307 957 1397
1755 1358 1122 1398
1756 1398 986 1324
1757 1324 689 1358
1758 1399 1070 1400
1759 1400 697 1214
1760 1214 1023 1399
1761 1401 1072 1402
1762 1402 697 1403
1763 1403 851 1401
1764 1404 1112 761
1765 1333 956 1279
1766 1279 910 1264
1767 1264 768 1333
1768 1405 1135 1406
1769 1406 666 1312
1770 1312 909 1405
1771 1360 1052 1407
1772 1407 972 1285
1773 1285 644 1360
1774 1388 1127 1356
1775 1356 1071 1390
1776 1390 217 1388
1777 1408 1122 1357
1778 1357 768 1265
1779 1265 908 1408
1780 1407 1052 1409
1781 1409 755 1288
1782 1288 972 1407
1783 1391 1071 1255
1784 1255 1043 1375
1785 1375 222 1391
1786 1410 1165 1411
1787 1411 392 1412
1788 1412 387 1410
1789 1413 1120 1395
1790 1395 397 1345
1791 1345 978 1413
1792 1414 1112 1415
1793 1415 851 1403
1794 1403 697 1414
1795 1416 1007 1417
1796 1417 382 1418
1797 1418 377 1416
1798 1399 1023 784
1799 1419 1165 1420
1800 1420 787 1321
1801 1321 978 1419
1802 1421 982 779
1803 1398 1122 1408
1804 1408 908 1354
1805 1354 986 1398
1806 1341 834 1181
1807 1380 1088 1384
1808 1384 101 1355
1809 1355 908 1380
1810 1377 1072 1401
1811 1401 851 1270
1812 1270 945 1377
1813 1422 1007 1416
1814 1416 377 1319
1815 1319 982 1422
1816 1423 372 367
1817 1305 1189 1364
1818 1364 692 1424
1819 1424 812 1305
1820 1402 1072 1371
1821 1371 932 1215
1822 1215 697 1402
1823 1338 1050 1292
1824 1292 764 1425
1825 1425 893 1338
1826 1406 1135 1350
1827 1350 932 1315
1828 1315 666 1406
1829 1293 1133 1366
1830 1366 1124 1339
1831 1339 808 1293
1832 1317 1127 1397
1833 1397 957 1300
1834 1300 870 1317
1835 1367 1133 1383
1836 1383 884 1374
1837 1374 691 1367
1838 1426 1110 1347
1839 1347 816 1263
1840 1263 987 1426
1841 1427 1105 1428
1842 1428 769 1353
1843 1353 966 1427
1844 1429 1165 1410
1845 1410 387 1362
1846 1362 981 1429
1847 1430 1052 1359
1848 1359 824 1431
1849 1431 909 1430
1850 1253 1189 1304
1851 1304 711 1322
1852 1322 787 1253
1853 1415 1112 1404
1854 1404 947 1277
1855 1277 851 1415
1856 1411 1165 1419
1857 1419 978 1344
1858 1344 392 1411
1859 1323 1117 1381
1860 1381 893 1425
1861 1425 764 1323
1862 1409 1052 1430
1863 1430 909 1266
1864 1266 755 1409
1865 1351 1135 1405
1866 1405 909 1431
1867 1431 824 1351
1868 1368 1134 1309
1869 1309 812 1424
1870 1424 692 1368
1871 1423 1098 1432
1872 1432 982 1318
1873 1318 372 1423
1874 1417 1007 1393
1875 1393 981 1361
1876 1361 382 1417
1877 1433 1070 761
1878 1434 1108 1435
1879 1435 1088 1379
1880 1379 769 1434
1881 1314 1110 1426
1882 1426 987 1436
1883 1436 666 1314
1884 1382 1117 1310
1885 1310 666 1436
1886 1436 987 1382
1887 1394 1007 1422
1888 1422 982 1421
1889 1421 765 1394
1890 1437 1108 1434
1891 1434 769 1428
1892 1428 1105 1437
1893 1433 1112 1414
1894 1414 697 1400
1895 1400 1070 1433
1896 1335 1105 1427
1897 1427 966 1330
1898 1330 813 1335
1899 1435 1108 1272
1900 1272 106 1385
1901 1385 1088 1435
1902 1257 1120 1413
1903 1413 978 1246
1904 1246 869 1257
1905 1420 1165 1429
1906 1429 981 1239
1907 1239 787 1420
1908 1273 1108 1437
1909 1437 1105 1373
1910 1373 884 1273
1911 1432 1098 779
1912 1365 765 693
$EndElements
