$MeshFormat
4.1 0 8
$EndMeshFormat
$PhysicalNames
8
1 1 "main"
1 2 "slat"
1 3 "flap"
1 4 "bot"
1 5 "right"
1 6 "top"
1 7 "left"
2 8 "interior"
$EndPhysicalNames
$Entities
0 7 1 0
1 0.0 -0.04237959474171062 0.0 1.0 0.07907551077108352 0.0 1 1 0
2 -0.1921538220782566 -0.1029158937763976 0.0 -0.02616959114220163 0.01471528727020921 0.0 1 2 0
3 1.0394969197811612 -0.1256545654351749 0.0 1.266576946759163 -0.01292771697477845 0.0 1 3 0
4 -100.0 -100.0 0.0 100.0 -100.0 0.0 1 4 0
5 100.0 -100.0 0.0 100.0 100.0 0.0 1 5 0
6 -100.0 100.0 0.0 100.0 100.0 0.0 1 6 0
7 -100.0 -100.0 0.0 -100.0 100.0 0.0 1 7 0
1 -100.0 -100.0 0.0 100.0 100.0 0.0 1 8 7 1 2 3 4 5 6 7
$EndEntities
$Nodes
1 1408 1 1408
2 1 0 1408
1
2
3
4
5
6
7
8
9
10
11
12
13
14
15
16
17
18
19
20
21
22
23
24
25
26
27
28
29
30
31
32
33
34
35
36
37
38
39
40
41
42
43
44
45
46
47
48
49
50
51
52
53
54
55
56
57
58
59
60
61
62
63
64
65
66
67
68
69
70
71
72
73
74
75
76
77
78
79
80
81
82
83
84
85
86
87
88
89
90
91
92
93
94
95
96
97
98
99
100
101
102
103
104
105
106
107
108
109
110
111
112
113
114
115
116
117
118
119
120
121
122
123
124
125
126
127
128
129
130
131
132
133
134
135
136
137
138
139
140
141
142
143
144
145
146
147
148
149
150
151
152
153
154
155
156
157
158
159
160
161
162
163
164
165
166
167
168
169
170
171
172
173
174
175
176
177
178
179
180
181
182
183
184
185
186
187
188
189
190
191
192
193
194
195
196
197
198
199
200
201
202
203
204
205
206
207
208
209
210
211
212
213
214
215
216
217
218
219
220
221
222
223
224
225
226
227
228
229
230
231
232
233
234
235
236
237
238
239
240
241
242
243
244
245
246
247
248
249
250
251
252
253
254
255
256
257
258
259
260
261
262
263
264
265
266
267
268
269
270
271
272
273
274
275
276
277
278
279
280
281
282
283
284
285
286
287
288
289
290
291
292
293
294
295
296
297
298
299
300
301
302
303
304
305
306
307
308
309
310
311
312
313
314
315
316
317
318
319
320
321
322
323
324
325
326
327
328
329
330
331
332
333
334
335
336
337
338
339
340
341
342
343
344
345
346
347
348
349
350
351
352
353
354
355
356
357
358
359
360
361
362
363
364
365
366
367
368
369
370
371
372
373
374
375
376
377
378
379
380
381
382
383
384
385
386
387
388
389
390
391
392
393
394
395
396
397
398
399
400
401
402
403
404
405
406
407
408
409
410
411
412
413
414
415
416
417
418
419
420
421
422
423
424
425
426
427
428
429
430
431
432
433
434
435
436
437
438
439
440
441
442
443
444
445
446
447
448
449
450
451
452
453
454
455
456
457
458
459
460
461
462
463
464
465
466
467
468
469
470
471
472
473
474
475
476
477
478
479
480
481
482
483
484
485
486
487
488
489
490
491
492
493
494
495
496
497
498
499
500
501
502
503
504
505
506
507
508
509
510
511
512
513
514
515
516
517
518
519
520
521
522
523
524
525
526
527
528
529
530
531
532
533
534
535
536
537
538
539
540
541
542
543
544
545
546
547
548
549
550
551
552
553
554
555
556
557
558
559
560
561
562
563
564
565
566
567
568
569
570
571
572
573
574
575
576
577
578
579
580
581
582
583
584
585
586
587
588
589
590
591
592
593
594
595
596
597
598
599
600
601
602
603
604
605
606
607
608
609
610
611
612
613
614
615
616
617
618
619
620
621
622
623
624
625
626
627
628
629
630
631
632
633
634
635
636
637
638
639
640
641
642
643
644
645
646
647
648
649
650
651
652
653
654
655
656
657
658
659
660
661
662
663
664
665
666
667
668
669
670
671
672
673
674
675
676
677
678
679
680
681
682
683
684
685
686
687
688
689
690
691
692
693
694
695
696
697
698
699
700
701
702
703
704
705
706
707
708
709
710
711
712
713
714
715
716
717
718
719
720
721
722
723
724
725
726
727
728
729
730
731
732
733
734
735
736
737
738
739
740
741
742
743
744
745
746
747
748
749
750
751
752
753
754
755
756
757
758
759
760
761
762
763
764
765
766
767
768
769
770
771
772
773
774
775
776
777
778
779
780
781
782
783
784
785
786
787
788
789
790
791
792
793
794
795
796
797
798
799
800
801
802
803
804
805
806
807
808
809
810
811
812
813
814
815
816
817
818
819
820
821
822
823
824
825
826
827
828
829
830
831
832
833
834
835
836
837
838
839
840
841
842
843
844
845
846
847
848
849
850
851
852
853
854
855
856
857
858
859
860
861
862
863
864
865
866
867
868
869
870
871
872
873
874
875
876
877
878
879
880
881
882
883
884
885
886
887
888
889
890
891
892
893
894
895
896
897
898
899
900
901
902
903
904
905
906
907
908
909
910
911
912
913
914
915
916
917
918
919
920
921
922
923
924
925
926
927
928
929
930
931
932
933
934
935
936
937
938
939
940
941
942
943
944
945
946
947
948
949
950
951
952
953
954
955
956
957
958
959
960
961
962
963
964
965
966
967
968
969
970
971
972
973
974
975
976
977
978
979
980
981
982
983
984
985
986
987
988
989
990
991
992
993
994
995
996
997
998
999
1000
1001
1002
1003
1004
1005
1006
1007
1008
1009
1010
1011
1012
1013
1014
1015
1016
1017
1018
1019
1020
1021
1022
1023
1024
1025
1026
1027
1028
1029
1030
1031
1032
1033
1034
1035
1036
1037
1038
1039
1040
1041
1042
1043
1044
1045
1046
1047
1048
1049
1050
1051
1052
1053
1054
1055
1056
1057
1058
1059
1060
1061
1062
1063
1064
1065
1066
1067
1068
1069
1070
1071
1072
1073
1074
1075
1076
1077
1078
1079
1080
1081
1082
1083
1084
1085
1086
1087
1088
1089
1090
1091
1092
1093
1094
1095
1096
1097
1098
1099
1100
1101
1102
1103
1104
1105
1106
1107
1108
1109
1110
1111
1112
1113
1114
1115
1116
1117
1118
1119
1120
1121
1122
1123
1124
1125
1126
1127
1128
1129
1130
1131
1132
1133
1134
1135
1136
1137
1138
1139
1140
1141
1142
1143
1144
1145
1146
1147
1148
1149
1150
1151
1152
1153
1154
1155
1156
1157
1158
1159
1160
1161
1162
1163
1164
1165
1166
1167
1168
1169
1170
1171
1172
1173
1174
1175
1176
1177
1178
1179
1180
1181
1182
1183
1184
1185
1186
1187
1188
1189
1190
1191
1192
1193
1194
1195
1196
1197
1198
1199
1200
1201
1202
1203
1204
1205
1206
1207
1208
1209
1210
1211
1212
1213
1214
1215
1216
1217
1218
1219
1220
1221
1222
1223
1224
1225
1226
1227
1228
1229
1230
1231
1232
1233
1234
1235
1236
1237
1238
1239
1240
1241
1242
1243
1244
1245
1246
1247
1248
1249
1250
1251
1252
1253
1254
1255
1256
1257
1258
1259
1260
1261
1262
1263
1264
1265
1266
1267
1268
1269
1270
1271
1272
1273
1274
1275
1276
1277
1278
1279
1280
1281
1282
1283
1284
1285
1286
1287
1288
1289
1290
1291
1292
1293
1294
1295
1296
1297
1298
1299
1300
1301
1302
1303
1304
1305
1306
1307
1308
1309
1310
1311
1312
1313
1314
1315
1316
1317
1318
1319
1320
1321
1322
1323
1324
1325
1326
1327
1328
1329
1330
1331
1332
1333
1334
1335
1336
1337
1338
1339
1340
1341
1342
1343
1344
1345
1346
1347
1348
1349
1350
1351
1352
1353
1354
1355
1356
1357
1358
1359
1360
1361
1362
1363
1364
1365
1366
1367
1368
1369
1370
1371
1372
1373
1374
1375
1376
1377
1378
1379
1380
1381
1382
1383
1384
1385
1386
1387
1388
1389
1390
1391
1392
1393
1394
1395
1396
1397
1398
1399
1400
1401
1402
1403
1404
1405
1406
1407
1408
1.0 1.665334536937735e-17 0
0.997515 -0.0001952889412018759 0
0.9930137850018769 -0.0005478231321445106 0
0.9872434458022552 -0.0009975364308482913 0
0.98048 -0.001521567382850105 0
0.972887675772815 -0.002105995825145198 0
0.9645803783193553 -0.002741006874448285 0
0.9556439792700022 -0.003419133493740432 0
0.9461467475448325 -0.004134429190407815 0
0.936145 -0.004882014624471229 0
0.9256864749860431 -0.005657801718937697 0
0.9148124922597216 -0.006458312031712103 0
0.9035594110345649 -0.007280549478108371 0
0.8919596560307215 -0.008121906471881863 0
0.8800424641800274 -0.00898009173063128 0
0.8678344433106719 -0.009853072781299472 0
0.8553599999999999 -0.01073902885729263 0
0.842641673798302 -0.01163631142536586 0
0.8297004028190319 -0.01254341051824579 0
0.8165557379610908 -0.01345892563700129 0
0.8032260179800186 -0.01438154036632723 0
0.7897285142369513 -0.01531000009609484 0
0.7760795516260295 -0.01624309241079004 0
0.762294610547005 -0.01717962982337738 0
0.7483884136213119 -0.01811843460954793 0
0.734375 -0.01905832555367361 0
0.7202677894842998 -0.01999810645658587 0
0.7060796382095994 -0.02093655628253195 0
0.6918228872871965 -0.0218724208417438 0
0.6775094055247503 -0.02280440591832891 0
0.6631506271343227 -0.0237311717623248 0
0.6487575851708679 -0.02465132887090644 0
0.6343409413128126 -0.02556343498775548 0
0.6199110124918114 -0.0264659932520988 0
0.6054777947947669 -0.02735745143035058 0
0.591050984993239 -0.02823620216398364 0
0.57664 -0.02910058416745401 0
0.5622539945070886 -0.02994888430989514 0
0.5479018770222552 -0.03077934051402555 0
0.5335923244896156 -0.0315901454053741 0
0.5193337956544063 -0.03237945064460525 0
0.5051345433100023 -0.03314537187547793 0
0.4910026255470466 -0.03388599422083929 0
0.4769459161090508 -0.03459937825907237 0
0.4629721139456537 -0.03528356641360644 0
0.4490887520434894 -0.03593658968847685 0
0.4353032056049903 -0.03655647468349761 0
0.4216226996371658 -0.03714125082339351 0
0.4080543160052605 -0.03768895773622637 0
0.394605 -0.03819967396938697 0
0.3812815664617709 -0.03868975014630735 0
0.3680907055003859 -0.03916107784521584 0
0.3550389878450015 -0.03961104240846319 0
0.3421328698551659 -0.04003703743954995 0
0.3293786982208213 -0.04043647406732107 0
0.3167827143763119 -0.04080678992772714 0
0.3043510586509887 -0.04114545781543065 0
0.2920897741768381 -0.04144999396003072 0
0.280004810571626 -0.04171796588434629 0
0.2681020274143395 -0.04194699980501844 0
0.256387197528176 -0.04213478753865708 0
0.2448660100849651 -0.04227909287985385 0
0.2335440735436903 -0.04237775742059793 0
0.222426918434672 -0.04242870578395294 0
0.21152 -0.04242995024826993 0
0.2008287006999061 -0.04237959474171062 0
0.1903583325939804 -0.04227583819042469 0
0.1801141396053961 -0.04211697720735278 0
0.1701012996756774 -0.04190140811230231 0
0.1603249268169264 -0.04162762827765308 0
0.1507900730679135 -0.04129423679778089 0
0.1415017303599269 -0.04089993448403287 0
0.1324648322978486 -0.0404435231908291 0
0.1236842558615075 -0.03992390448219704 0
0.1151648230319955 -0.03934007765174943 0
0.1069113023472976 -0.03869113711278765 0
0.09892841039127187 -0.0379762691788335 0
0.09122081321973485 -0.03719474825845488 0
0.08379312772714909 -0.03634593249174265 0
0.07664992295716999 -0.03542925885920346 0
0.06979572136008738 -0.03444423779714773 0
0.06323499999999982 -0.03339044735685907 0
0.05697219171436929 -0.03226752694792145 0
0.05101168622843422 -0.03107517070904047 0
0.04535783122679948 -0.02981312055251407 0
0.04001493338437823 -0.02848115893117555 0
0.03498725935871705 -0.02707910137913177 0
0.03027903674562138 -0.02560678887994848 0
0.02589445499987009 -0.024064080118071 0
0.021837666322711 -0.0224508436712107 0
0.01811278651771819 -0.02076695020315461 0
0.01472389581650757 -0.01901226471796503 0
0.0116750396757147 -0.01718663893780764 0
0.008970229546559128 -0.01528990386767556 0
0.006613443618246007 -0.01332186261104801 0
0.00460862753638458 -0.01128228350102692 0
0.002959695097535242 -0.009170893611715261 0
0.001670528920937886 -0.006987372714533938 0
0.0007449810984185845 -0.004731347743806624 0
0.0001868738234129808 -0.002402387835249536 0
0.0 0.0 0
0.0001868738234129808 0.002439753869475663 0
0.0007449810984185845 0.004880205214281091 0
0.001670528920937886 0.007320780832002593 0
0.002959695097535242 0.009760642682454714 0
0.00460862753638458 0.01219869914636156 0
0.006613443618246007 0.01463361692557428 0
0.008970229546559128 0.01706383352245789 0
0.0116750396757147 0.01948757023509321 0
0.01472389581650757 0.0219028456042627 0
0.01811278651771819 0.02430748924783914 0
0.021837666322711 0.02669915601814738 0
0.02589445499987009 0.02907534041810994 0
0.03027903674562138 0.03143339121251208 0
0.03498725935871705 0.03377052617151664 0
0.04001493338437823 0.03608384688461214 0
0.04535783122679948 0.03837035358447426 0
0.05101168622843422 0.04062695992176026 0
0.05697219171436929 0.0428505076336106 0
0.06323499999999982 0.04503778105060904 0
0.06979572136008738 0.04718552138912147 0
0.07664992295716999 0.04929044077830243 0
0.08379312772714909 0.05134923597359788 0
0.09122081321973485 0.0533586017112844 0
0.09892841039127187 0.05531524366145189 0
0.1069113023472976 0.05721589093984835 0
0.1151648230319955 0.05905730814215082 0
0.1236842558615075 0.06083630686749483 0
0.1324648322978486 0.06254975670147452 0
0.1415017303599269 0.06419459563230487 0
0.1507900730679135 0.06576783987740692 0
0.1603249268169264 0.06726659310132516 0
0.1701012996756774 0.06868805500959914 0
0.1801141396053961 0.07002952930698397 0
0.1903583325939804 0.07128843101223065 0
0.2008287006999061 0.07246229312548873 0
0.21152 0.07354877264826992 0
0.222426918434672 0.07454565595980128 0
0.2335440735436903 0.07545086355749084 0
0.2448660100849651 0.07626245417311431 0
0.256387197528176 0.0769786282802043 0
0.2681020274143395 0.07759773101196653 0
0.280004810571626 0.07811825451285843 0
0.2920897741768381 0.07853883975072926 0
0.3043510586509887 0.07885827782013399 0
0.3167827143763119 0.07907551077108352 0
0.3293786982208213 0.07918963200107461 0
0.3421328698551659 0.07919988625175016 0
0.3550389878450015 0.07910566925496271 0
0.3680907055003859 0.07890652707635006 0
0.3812815664617709 0.07860215520777608 0
0.394605 0.07819239746313697 0
0.4080543160052605 0.07768174973552495 0
0.4216226996371658 0.0770893018078825 0
0.4353032056049903 0.07641799509172113 0
0.4490887520434894 0.07566884462434494 0
0.4629721139456537 0.07484295673196373 0
0.4769459161090508 0.07394152559175447 0
0.4910026255470466 0.0729658300145664 0
0.5051345433100023 0.0719172305202554 0
0.5193337956544063 0.0707971667795733 0
0.5335923244896156 0.06960715549842535 0
0.5479018770222552 0.06834878882216928 0
0.5622539945070886 0.06702373333950556 0
0.57664 0.06563372976745402 0
0.591050984993239 0.06418059340099622 0
0.6054777947947669 0.06266621541327055 0
0.6199110124918114 0.06109256509485729 0
0.6343409413128126 0.05946169312382492 0
0.6487575851708679 0.05777573596201293 0
0.6631506271343227 0.05603692147774843 0
0.6775094055247503 0.05424757590114 0
0.6918228872871965 0.05241013222567316 0
0.7060796382095994 0.05052714017958537 0
0.7202677894842998 0.04860127790312367 0
0.734375 0.04663536548422917 0
0.7483884136213119 0.04463238052670633 0
0.762294610547005 0.04259547595322115 0
0.7760795516260295 0.040528000282875 0
0.7897285142369513 0.03843352067283468 0
0.8032260179800186 0.03631584908010253 0
0.8165557379610908 0.03417907198941141 0
0.8297004028190319 0.0320275842757082 0
0.842641673798302 0.02986612793837003 0
0.8553599999999999 0.02769983667951487 0
0.8678344433106719 0.02553428763154321 0
0.8800424641800274 0.02337556201773874 0
0.8919596560307215 0.02123031723167456 0
0.9035594110345649 0.01910587387349971 0
0.9148124922597216 0.01701032289986034 0
0.9256864749860431 0.01495266060968752 0
0.936145 0.01294296339947123 0
0.9461467475448325 0.0109926214288746 0
0.9556439792700022 0.009114663304962358 0
0.9645803783193553 0.007324228698534241 0
0.972887675772815 0.005639297041547644 0
0.98048 0.004081897338405657 0
0.9872434458022552 0.002680329248880934 0
0.9930137850018769 0.001473895443005372 0
0.997515 0.0005259361384240886 0
1.0 -1.665334536937735e-17 0
-0.02616959114220163 0.01471528727020921 0
-0.026583623999479 0.01444009441263192 0
-0.02733334654811953 0.01394128340310666 0
-0.02829399724011572 0.01330117889661102 0
-0.02941930947481589 0.01254994973930082 0
-0.03068164205336799 0.01170538482616516 0
-0.03206173646824556 0.01077969768878739 0
-0.03354500308031153 0.00978199468687932 0
-0.0351197838647157 0.008719431081478324 0
-0.03677641211310406 0.007597838470796911 0
-0.03850665188881255 0.006422100573159659 0
-0.04030333994922514 0.005196394977406399 0
-0.04216014478737962 0.003924357425353173 0
-0.04407139776794597 0.002609198421640799 0
-0.0460319708711126 0.001253789002021513 0
-0.04803718578453786 -0.0001392742893912557 0
-0.05008274477738583 -0.001567618934511697 0
-0.05216467712566172 -0.003029056413552333 0
-0.05427929689654176 -0.004521549886767132 0
-0.05642316919127199 -0.006043187707556602 0
-0.05859308279096326 -0.007592161442860332 0
-0.06078602771728372 -0.009166747447387366 0
-0.06299917661085314 -0.01076529129192552 0
-0.06522986910501423 -0.01238619452314491 0
-0.06747559856975925 -0.01402790335826236 0
-0.06973400074440127 -0.01568889900888319 0
-0.07200284388418879 -0.01736768939493505 0
-0.07428002012624005 -0.01906280205898184 0
-0.076563537841276 -0.02077277812821919 0
-0.07885151478477188 -0.02249616719947725 0
-0.0811421718979206 -0.02423152304396914 0
-0.08343382763779161 -0.02597740004501828 0
-0.08572489273913715 -0.02773235029480264 0
-0.0880138653288169 -0.02949492128616718 0
-0.09029932632879889 -0.03126365414343886 0
-0.09257993509590919 -0.03303708234243345 0
-0.09485442525652493 -0.03481373087483677 0
-0.09712160070267352 -0.03659211581616582 0
-0.09938033172285936 -0.03837074425978287 0
-0.1016295512466499 -0.04014811458211638 0
-0.1038682511868235 -0.04192271700646719 0
-0.1060954788668776 -0.04369303443465025 0
-0.1083103335250495 -0.04545754351731982 0
-0.1105119628888083 -0.04721471593521298 0
-0.1126995598161392 -0.04896301986477369 0
-0.1148723590019061 -0.05070092160272506 0
-0.1170296337492177 -0.05242688732517437 0
-0.1191706928070793 -0.05413938495778789 0
-0.1212948772767191 -0.05583688613447992 0
-0.1234006301159784 -0.0575191927929336 0
-0.1254789655868657 -0.05919676163462369 0
-0.1275275711270133 -0.06087056257078304 0
-0.1295462409876759 -0.06253859829773364 0
-0.1315348053228393 -0.06419886011684892 0
-0.1334931265558864 -0.06584933148465194 0
-0.1354210958585991 -0.06748799150220378 0
-0.1373186297470132 -0.06911281832945543 0
-0.1391856667986049 -0.07072179251104235 0
-0.1410221644951755 -0.07231290020083947 0
-0.1428280961956083 -0.07388413627346274 0
-0.144603448242418 -0.07543350731180154 0
-0.1463482172056995 -0.07695903446058877 0
-0.1480624072677167 -0.07845875613696401 0
-0.1497460277509616 -0.07993073058995571 0
-0.1513990907920613 -0.08137303830179611 0
-0.1530216091634212 -0.08278378422499094 0
-0.1546135942439753 -0.08416109985008434 0
-0.1561750541398663 -0.08550314510009402 0
-0.1577059919553097 -0.08680811004862944 0
-0.159206404213307 -0.08807421645975655 0
-0.1606762794252697 -0.08929971914871875 0
-0.1621155968080002 -0.09048290716367695 0
-0.1635243251458469 -0.09162210478967703 0
-0.1649024217952269 -0.092715672377096 0
-0.1662498318280701 -0.09376200699785102 0
-0.1675664873101098 -0.0947595429336758 0
-0.1688523067093132 -0.09570675200177758 0
-0.1701071944291244 -0.0966021437241749 0
-0.1713310404605747 -0.09744426534798603 0
-0.1725237201467143 -0.09823170172488095 0
-0.1736850940522318 -0.09896307505882876 0
-0.1748150079305513 -0.09963704453215806 0
-0.1759132927801495 -0.1002523058208036 0
-0.1769797649813012 -0.1008075905104301 0
-0.1780142265039547 -0.1013016654259023 0
-0.1790164651769609 -0.1017333318873088 0
-0.1799862550084269 -0.1021014249064351 0
-0.1809233565465473 -0.102404812338228 0
-0.1818275172698806 -0.1026423940023788 0
-0.1826984719956888 -0.1028131007906942 0
-0.1835359432946493 -0.1029158937763976 0
-0.1843396418999786 -0.1029497633419224 0
-0.18510926709878 -0.1029137283421106 0
-0.1858445070932515 -0.102806835320017 0
-0.1865450393192523 -0.1026281577927318 0
-0.1872105307096495 -0.1023767956247783 0
-0.1878406378898341 -0.1020518745067053 0
-0.1884350072928236 -0.1016525455564797 0
-0.1889932751814471 -0.1011779850611869 0
-0.1895150675652557 -0.1006273943763617 0
-0.19 -0.1 0
-0.1904408470263567 -0.09930524428430748 0
-0.1908309286126136 -0.09855354397638373 0
-0.1911706138668189 -0.0977456944805976 0
-0.1914601989305876 -0.09688260562107176 0
-0.1916999101592861 -0.09596529731227077 0
-0.1918899074289525 -0.09499489505556408 0
-0.1920302875582083 -0.09397262527884466 0
-0.1921210878332418 -0.09289981053655601 0
-0.192162289623823 -0.09177786458766826 0
-0.1921538220782566 -0.09060828736924367 0
-0.1920955658851811 -0.0893926598832472 0
-0.1919873570901813 -0.0881326390141971 0
-0.1918289909552991 -0.08682995229511088 0
-0.19162022584969 -0.08548639263898931 0
-0.1913607871598956 -0.0841038130527977 0
-0.1910503712084639 -0.08268412135055578 0
-0.1906886491699651 -0.08122927488173115 0
-0.1902752709738061 -0.07974127529065923 0
-0.1898098691836451 -0.07822216332217756 0
-0.1892920628436499 -0.07667401368807858 0
-0.1887214612823182 -0.07509893000834351 0
-0.1880976678650929 -0.07349903984043561 0
-0.1874202836875551 -0.07187648980919875 0
-0.1866889112015561 -0.07023344084913341 0
-0.18590315776726 -0.06857206357000964 0
-0.1850626391247115 -0.06689453375592902 0
-0.184166982779205 -0.06520302800706568 0
-0.1832158312954247 -0.0634997195324074 0
-0.1822088454960391 -0.06178677410088058 0
-0.1811457075611687 -0.06006634615728378 0
-0.180026124025899 -0.05834057510847386 0
-0.1788498286737883 -0.05661158178425355 0
-0.1776165853251039 -0.05488146507639812 0
-0.1763261905193319 -0.05315229875823751 0
-0.1749784760923194 -0.0514261284861831 0
-0.1735733116492422 -0.04970496898355375 0
-0.1721106069354352 -0.0479908014060236 0
-0.1705903141079734 -0.04628557088697927 0
-0.16901242991176 -0.04459118426004924 0
-0.1673769977647456 -0.04290950795504653 0
-0.1656841097577921 -0.04124236606255925 0
-0.1639339085755779 -0.03959153856142732 0
-0.1621265893458502 -0.03795875970236871 0
-0.1602624014252333 -0.03634571654005925 0
-0.1583416501307285 -0.03475404760503764 0
-0.1563646984269739 -0.03318534170589925 0
-0.1543319685802785 -0.03164113685136258 0
-0.1522439437914167 -0.03012291928094626 0
-0.1501011698201516 -0.02863212259218112 0
-0.1479042566154722 -0.02717012695150756 0
-0.1456538799665729 -0.02573825837527281 0
-0.1433528503603678 -0.02433483584229579 0
-0.141010677240632 -0.02294865472173088 0
-0.1386294650066573 -0.02157913136889592 0
-0.1362104414320925 -0.02022698171235547 0
-0.1337548860473282 -0.01889289767639608 0
-0.1312641311651679 -0.01757754817575308 0
-0.1287395630459003 -0.01628158009783962 0
-0.1261826232255149 -0.01500561925772141 0
-0.123594810032462 -0.01375027131118751 0
-0.1209776803202319 -0.0125161226114912 0
-0.1183328514451261 -0.01130374099568701 0
-0.1156620035209988 -0.0101136764869787 0
-0.1129668819855069 -0.008946461900138439 0
-0.110249300515624 -0.007802613337869746 0
-0.1075111443339382 -0.00668263056699106 0
-0.104754373951711 -0.005586997264531837 0
-0.101981029399981 -0.004516181125291147 0
-0.09919323500637246 -0.003470633824142547 0
-0.09639320478297364 -0.002450790828422172 0
-0.09358324850003741 -0.001457071058165199 0
-0.09076577853176483 -0.0004898763948258111 0
-0.08794331757464476 0.000450408957481982 0
-0.08511850735649476 0.001363419250139081 0
-0.08229411847649025 0.002248808094645963 0
-0.07947306154441791 0.003106249474958717 0
-0.07665839982296363 0.00393543884168554 0
-0.07385336362251556 0.004736094253586343 0
-0.07106136675715072 0.005507957520998127 0
-0.06828602544795803 0.006250795292192371 0
-0.06553118016242446 0.006964400006280097 0
-0.06280092101605414 0.00764859061372003 0
-0.06009961754903742 0.008303212935709056 0
-0.05743195394804554 0.008928139493696821 0
-0.05480297114369401 0.009523268585332548 0
-0.05221811772871207 0.01008852230611619 0
-0.04968331239156751 0.01062384310537283 0
-0.04720502167873475 0.01112918830200135 0
-0.04479035861258349 0.01160452173769626 0
-0.04244721040014598 0.01204980135657122 0
-0.04018440790410691 0.01246496086670319 0
-0.03801195712695232 0.0128498825610944 0
-0.03594136658089422 0.01320435644366606 0
-0.03398613045190726 0.01352801712074037 0
-0.03216248121369228 0.01382024232128795 0
-0.03049064791682812 0.01407997959980678 0
-0.02899717627010137 0.01430542262666785 0
-0.02771988325999927 0.01449331503771034 0
-0.02672151656980529 0.01463702541208796 0
-0.02616959114220163 0.01471528727020921 0
1.266576946759163 -0.1256545654351749 0
1.26600121198092 -0.1254192299179597 0
1.264958372889619 -0.1249929100525657 0
1.263621535839201 -0.1244463199214134 0
1.262054655538464 -0.1238055865287387 0
1.260295775050794 -0.1230862755053529 0
1.258371266526973 -0.122299212256743 0
1.256300995705139 -0.1214525919669295 0
1.254100739340761 -0.1205529657813169 0
1.251783495421792 -0.1196057736833366 0
1.249360266035005 -0.1186156612619175 0
1.246840559210432 -0.1175866811993213 0
1.244232728269967 -0.1165224280460889 0
1.241544211163193 -0.115426131923905 0
1.238781705124643 -0.1143007256855651 0
1.23595129778182 -0.1131488942430532 0
1.233058567938483 -0.111973111533588 0
1.230108664630722 -0.1107756686935396 0
1.227106370228061 -0.1095586958476639 0
1.224056151563628 -0.108324179183391 0
1.220962201910045 -0.1070739744966599 0
1.217828475834952 -0.1058098180703158 0
1.214658718432611 -0.104533335521384 0
1.211456490051304 -0.1032460490949363 0
1.208225187367147 -0.1019493837680705 0
1.204968061459585 -0.1006446724437781 0
1.201688233399797 -0.09933316045204559 0
1.198388707755651 -0.09801600952826434 0
1.195072384335449 -0.09669430140273522 0
1.191742068430442 -0.09536904110682506 0
1.188400479767964 -0.09404116007911416 0
1.185050260349484 -0.09271151913719253 0
1.181693981318304 -0.09138091136655076 0
1.178334148978158 -0.09005006496648714 0
1.17497321006521 -0.08871964608353153 0
1.171613556360786 -0.0873902616551304 0
1.168257528719931 -0.08606246227991796 0
1.164907420580821 -0.08473674512555467 0
1.161565481011817 -0.0834135568806566 0
1.15823391734613 -0.08209329675360628 0
1.154914897448335 -0.08077631951791278 0
1.151610551652236 -0.0794629386011755 0
1.148322974405529 -0.07815342921252653 0
1.145054225653274 -0.07684803150161999 0
1.141806331989263 -0.0755469537407484 0
1.138581287601827 -0.0742503755204601 0
1.135381055038415 -0.0729584509480882 0
1.132207565811345 -0.07167131183785411 0
1.129062720865423 -0.07038907088065417 0
1.125947963817636 -0.06911274071934713 0
1.12286127519092 -0.06785068345800167 0
1.11980366791802 -0.06660468439244319 0
1.116777085869943 -0.06537446179527746 0
1.11378345146242 -0.06415971229470904 0
1.110824665174014 -0.0629601146882595 0
1.107902605040116 -0.06177533363898816 0
1.105019126134009 -0.06060502324366204 0
1.10217606004533 -0.05944883046274484 0
1.099375214365544 -0.058306398402576 0
1.096618372189265 -0.05717736944068601 0
1.093907291639562 -0.05606138818583208 0
1.091243705424682 -0.05495810426503737 0
1.08862932043292 -0.05386717493066644 0
1.086065817371726 -0.0527882674813665 0
1.083554850456424 -0.05172106149154365 0
1.081098047153322 -0.05066525084491623 0
1.078697007981314 -0.04962054556859566 0
1.076353306375439 -0.04858667346507616 0
1.074068488615271 -0.04756338154047147 0
1.071844073820345 -0.04655043722830864 0
1.069681554014265 -0.04554762940917599 0
1.067582394258511 -0.04455476922751901 0
1.065548032856384 -0.04357169070787913 0
1.063579881626936 -0.04259825117387393 0
1.06167932624819 -0.04163433147421831 0
1.059847726668363 -0.04067983602108155 0
1.058086417583288 -0.03973469264706017 0
1.056396708977687 -0.03879885228801808 0
1.054779886727429 -0.0378722885000007 0
1.053237213259416 -0.0369549968193638 0
1.051769928265241 -0.03604699397616667 0
1.050379249464306 -0.03514831697176224 0
1.04906637341164 -0.03425902203236697 0
1.047832476345215 -0.03337918345120897 0
1.046678715067177 -0.03250889233263077 0
1.045606227852997 -0.03164825525225959 0
1.044616135382203 -0.03079739284804721 0
1.043709541684034 -0.02995643835762629 0
1.042887535091004 -0.02912553611801812 0
1.042151189193145 -0.02830484004426406 0
1.041501563785389 -0.0274945121040277 0
1.040939705800384 -0.02669472080563108 0
1.0404666502188 -0.02590563971733622 0
1.040083420949078 -0.02512744603596447 0
1.039791031668412 -0.02436031922315487 0
1.03959048661671 -0.02360443972769589 0
1.039482781335209 -0.02285998781241932 0
1.039468903341431 -0.02212714250411752 0
1.039549832732188 -0.02140608068483438 0
1.039726542706454 -0.02069697634267635 0
1.04 -0.02 0
1.040366035678439 -0.01932557923863655 0
1.040819213295868 -0.01868388528126249 0
1.041358555522855 -0.01807477032369811 0
1.041983035385435 -0.01749817569867769 0
1.04269157788871 -0.0169541280337582 0
1.043483061720879 -0.01644273522490972 0
1.044356321029276 -0.01596418224333424 0
1.045310147259852 -0.01551872679333278 0
1.046343291051418 -0.01510669483922527 0
1.047454464175926 -0.01472847601941907 0
1.048642341516043 -0.01438451896572838 0
1.049905563071288 -0.01407532654596935 0
1.05124273598405 -0.0138014510476982 0
1.052652436576898 -0.01356348932072455 0
1.05413321239273 -0.01336207789572366 0
1.055683584229433 -0.01319788809589185 0
1.057302048160932 -0.01307162115814215 0
1.05898707753671 -0.01298400337982608 0
1.060737124952108 -0.01293578130639432 0
1.062550624181995 -0.01292771697477845 0
1.064425992070666 -0.01296058322658954 0
1.066361630371142 -0.01303515910449164 0
1.068355927527377 -0.01315222534432129 0
1.070407260393201 -0.01331255997469135 0
1.072513995882213 -0.01351693403494204 0
1.074674492543205 -0.01376610742138667 0
1.076887102056071 -0.01406082487084757 0
1.07915017064359 -0.01440181208949164 0
1.081462040394831 -0.0147897720339582 0
1.083821050496395 -0.01522538135072674 0
1.086225538368092 -0.01570928697860213 0
1.088673840700088 -0.0162421029181022 0
1.091164294388996 -0.01682440717041997 0
1.093695237370776 -0.01745673884750412 0
1.096265009348778 -0.01813959545365606 0
1.098871952415625 -0.01887343033788745 0
1.101514411568093 -0.01965865031511449 0
1.104190735114503 -0.02049561345309399 0
1.10689927497455 -0.02138462702082598 0
1.109638386871864 -0.02232594559296691 0
1.112406430419932 -0.02331976930361299 0
1.11520176910237 -0.0243662422416301 0
1.11802277014881 -0.02546545097852376 0
1.120867804307975 -0.02661742321866211 0
1.123735245519743 -0.02782212656048774 0
1.126623470488212 -0.02907946735617849 0
1.12953085815796 -0.03038928965604651 0
1.132455789095808 -0.03175137422279384 0
1.13539664478047 -0.03316543759957384 0
1.138351806802482 -0.03463113121463557 0
1.141319655976765 -0.03614804050415261 0
1.144299523317768 -0.03771364257516179 0
1.147293790058441 -0.03931879953559618 0
1.150301390675127 -0.04096168791883277 0
1.153320817179983 -0.04264135233504832 0
1.156350544421553 -0.04435678952634148 0
1.159389028188649 -0.04610694826036978 0
1.162434703224964 -0.04789072909889541 0
1.165485981151748 -0.04970698401442908 0
1.168541248294614 -0.05155451582677706 0
1.171598863408885 -0.05343207742979239 0
1.174657155296089 -0.0553383707769786 0
1.177714420301894 -0.05727204559274857 0
1.180768919683172 -0.05923169777404866 0
1.183818876828698 -0.06121586744465685 0
1.186862474314265 -0.06322303662166687 0
1.189897850768506 -0.06525162645037803 0
1.192923097520428 -0.06729999395989011 0
1.195936254993258 -0.06936642828698952 0
1.198935308801555 -0.07144914631019418 0
1.201918185499261 -0.07354628762882787 0
1.204882747915141 -0.07565590881337173 0
1.207826789998272 -0.0777759768426267 0
1.210748031079354 -0.07990436162981904 0
1.213644109432638 -0.0820388275228934 0
1.216512574997052 -0.0841770236427941 0
1.219350881082139 -0.0863164728961017 0
1.222156374842397 -0.08845455946299392 0
1.224926286249699 -0.09058851451542622 0
1.227657715223371 -0.09271539985986955 0
1.230347616485404 -0.09483208911849997 0
1.232992781585522 -0.09693524595462313 0
1.235589817375066 -0.09902129870092388 0
1.238135119981124 -0.1010864105458182 0
1.240624843014716 -0.1031264441477933 0
1.243054858294836 -0.1051369191396872 0
1.245420706713138 -0.1071129603897253 0
1.247717535885721 -0.1090492339974613 0
1.249940019741747 -0.1109398666400699 0
1.252082252835941 -0.1127783417297742 0
1.254137608305556 -0.114557362312444 0
1.256098541790132 -0.1162686646028315 0
1.257956311772664 -0.1179027552044922 0
1.259700564140056 -0.1194485243260704 0
1.261318681990792 -0.1208926444934894 0
1.262794695076033 -0.1222185666189702 0
1.264107264964352 -0.1234046704510342 0
1.265225377636481 -0.1244203165251111 0
1.266096462883881 -0.125214963697375 0
1.266576946759163 -0.1256545654351749 0
-100.0 -100.0 0
100.0 -100.0 0
100.0 100.0 0
-100.0 100.0 0
-60.00000000016264 -100.0 0
-20.00000000031305 -100.0 0
19.99999999961915 -100.0 0
59.99999999978363 -100.0 0
100.0 -60.00000000016264 0
100.0 -20.00000000031305 0
100.0 19.99999999961915 0
100.0 59.99999999978363 0
60.00000000016264 100.0 0
20.00000000031305 100.0 0
-19.99999999961915 100.0 0
-59.99999999978363 100.0 0
-100.0 60.00000000016264 0
-100.0 20.00000000031305 0
-100.0 -19.99999999961915 0
-100.0 -59.99999999978363 0
-2.186889378834177 8.284717780896258 0
-0.1969156015357861 0.6169637562850092 0
-23.16350123584235 -2.956039531443754 0
-0.067174233235267 0.2489915002673961 0
-6.576988160504701 -52.23403792053192 0
9.410984114651896 7.258000791273489 0
0.8239055408051916 1.377069835977541 0
1.0601937227698284 0.12872798623280393 0
0.9754993679032143 -0.10023418654791443 0
0.441943735617696 -6.464592506102299 0
0.6212713171438227 -3.01938919683027 0
1.069924109904859 -0.5976361768363891 0
-8.058497719144848 -3.140020007543176 0
0.06199390606332673 -1.189270454874245 0
1.091002992791771 -0.3496292680995947 0
11.54753969564589 -4.686213553408346 0
2.311710814450413 0.8664721519778168 0
3.757132766620385 -1.440312472020679 0
0.826038529120192 0.5028950467736893 0
-0.674721472701866 -0.6135408333522723 0
-0.03482136065935181 -0.09984032052516409 0
-0.1017123779079271 -0.3827409415651427 0
-0.1044977302701656 -0.1931164544852386 0
0.4612688885511241 -0.6809847592235985 0
1.068894368272794 -0.1927988687137878 0
-0.3704373267317819 -0.342755670488111 0
-0.7260350518091423 0.1525959953367137 0
0.2982119975265567 0.533565862755552 0
-0.3178494379733389 0.1408750832666971 0
1.240116423377469 0.1390393362980741 0
0.1135979409884744 -0.2375650390053302 0
1.194793809419838 -0.2470522869527662 0
2.440365185289703 -0.8251273772276795 0
0.7866681088746772 -0.2797643944091856 0
-0.2095521907069154 -0.1930192973416877 0
-0.451809672531664 -0.07546415177565702 0
1.442269311334179 0.02844887118517127 0
-0.2887560080803399 -0.1392326507089897 0
0.9978087893954033 -0.04492081701718027 0
1.0379134297758 -0.0992985403792586 0
2.636749016682376 6.420368782910535 0
-0.08978259973438846 -0.1274931710947047 0
-0.02843740700786897 -0.04107471151233796 0
0.4988219460491394 -0.3226840781106328 0
-0.1427876868355512 -0.1421784037189721 0
-0.1746058477488457 0.1337600717053188 0
0.1477529495534734 0.2861598336901247 0
-3.043306554017219 3.604344368263627 0
1.0896635526034 -0.1202188577709028 0
1.1544685885806 -0.1597400159164049 0
1.216973323999884 -0.1816373434259458 0
1.379831570665982 -0.2818898424096488 0
-34.43035311100899 49.37068690320516 0
2.456668619385033 43.18751283179785 0
-4.931903614595937 0.1386715884416171 0
1.0311749703575277 0.016189276283411297 0
1.1484685957437606 0.06953625310617009 0
1.0296398418431698 -0.06123335166228601 0
1.0716643383281546 0.031275733230735514 0
-0.1733893266600524 -0.1324664353862438 0
-0.2092331240909832 -0.1239717382144193 0
-0.0282913842727305 0.1315213868845595 0
-0.3118746479514279 0.00230218848775999 0
-12.76167819674969 -26.51695100312667 0
9.494622602444576 -27.24565020106471 0
-0.02157133258567495 -0.01050786534360994 0
55.54288564995539 12.28707417409218 0
-0.008570820715906417 0.04048145203682537 0
-0.07086226741457213 0.0744755818343405 0
-0.1277309092135783 0.05807093527472781 0
-0.20396050085589 0.01935204320689231 0
0.9137610175674292 0.15552895522362095 0
1.107991762658056 0.3795705389414917 0
-0.06467396331296689 -0.0583668907628067 0
1.212762166871133 0.02977207918180272 0
1.492245949594246 0.4082287198222221 0
0.2903557541323412 -0.2129615377696285 0
-14.34187417503507 9.11082726337795 0
1.266614756940059 -0.0202274265947635 0
1.301268392824579 -0.07547320467513777 0
0.0432225994097468 -0.1036521759655381 0
0.3486278210207898 0.2814111415799672 0
0.5735154232820536 0.2882942204914608 0
0.9035823719734868 -1.26232243173444 0
2.97617776218913 16.53434498800777 0
29.38890571684107 26.40218343974004 0
42.53128756503516 -18.93476168146503 0
-0.03272312215022583 0.03808469737818589 0
1.0230329935271507 -0.034857834216725864 0
1.024302821591231 -0.020936778172834396 0
1.249447813736279 -0.1585816929971388 0
0.9299346731851295 -0.2365626477598153 0
0.06454766838223719 0.1402899542091512 0
0.8640188129435098 -0.1318387984184645 0
-59.5697878825703 -29.53133735224647 0
0.1541372795801148 -0.536450431512606 0
0.1176116995748584 -0.1210410357105949 0
-44.13040993997868 15.07909801980036 0
2.245566616109702 -2.710080148562977 0
5.333681622312577 -5.995085791730546 0
1.27046390548692 -0.2404729188227367 0
1.075972241110344 -0.08648859878163026 0
-0.1366805159498388 -0.1085862054866561 0
-0.1084841995837571 -0.08373529110397897 0
-3.497191283057891 -4.194384563270306 0
-8.250740350349373 -14.81473295434045 0
1.240335440107115 -0.4100941667240305 0
-0.1585860613884025 -0.1143861825147043 0
0.6375910712643089 -0.193872535536656 0
-0.8668442898561972 2.809810168286071 0
1.030903362881856 -0.011260365462999269 0
1.321442406806719 -0.1815900797024729 0
-0.174164064288132 -0.85910152284417 0
1.0552028543158112 -0.0661721967276456 0
0.9253230739147306 -0.4584428484042205 0
0.1624572066063563 0.1710069360760588 0
-0.002609954017367061 -0.2139605077396944 0
-0.5315364910732719 -2.292749805389225 0
0.1951112392785156 1.231712558745885 0
1.0326954634064425 -0.0395667477125494 0
26.83659670906962 7.215289517905178 0
1.008353165329173 -0.1574523652347648 0
-14.5997836123252 30.33966973831066 0
1.199706950061979 -0.1380717094935233 0
0.9936733787622695 0.048616184215130934 0
7.419854409022648 2.906798054964854 0
0.4205745128579987 -0.1700467703311836 0
0.02081057111621892 0.09450173220594053 0
2.016520517399523 -0.1535199477906355 0
1.540182240983308 -0.1396069889435235 0
0.6390107966310263 -0.5188506403941322 0
0.01173542536505911 -0.06843962121453576 0
1.127424614778263 -0.1115942416594295 0
-9.16702398380982 17.76064767768288 0
0.7937338594929019 0.1861772449345003 0
28.51385577129516 -60.95227934740945 0
1.167264479107765 -0.1228779860728528 0
-0.09296268715407323 -0.06733385017835994 0
1.282600433620019 -0.1008079505525308 0
1.260138391003352 -0.06554108932934322 0
-0.001059732353862468 -0.03989455249880625 0
-0.08174775973785732 0.03685947068631983 0
-0.04588366755269788 -0.1705489788926436 0
0.9437979967613824 -0.06348923726842924 0
-0.02189606735083326 0.001581470929735236 0
-0.01074791498755601 0.01385528983659989 0
5.124938695487274 -16.74150954495678 0
-1.433589103579165 1.551743821964132 0
16.75569706781426 4.080737387716132 0
-0.05086014238095661 -0.02948148902482071 0
2.031188863053179 3.903310334103588 0
1.153357864176949 0.008509123013296217 0
1.1138832737503621 0.020025541020244307 0
1.046616662317704 0.0047892777065540945 0
0.02200628699092205 -0.3598749505805806 0
-0.1149107007860874 0.02487887126844574 0
1.212007692207613 -0.02452303479486739 0
-0.1448128589073434 0.003810431886613062 0
1.031264862152475 -0.029345416303065745 0
1.518218117160456 -1.16313286844977 0
-0.0706980071563974 -0.09934612611588836 0
28.96730333464616 -11.12032113883754 0
1.182110955224524 -0.01237120146297887 0
-0.05284974630207115 0.0312246563987251 0
0.3086816918698957 -0.4172600008193015 0
0.2264675298830585 -0.1441269774265898 0
61.9505378490913 52.39425363958227 0
1.2340637771857 -0.1390482472623065 0
0.9313633078282624 -0.1527361169201399 0
-53.09200220202931 -5.409446016522076 0
-39.19293263323728 -23.35014216088016 0
0.566180227955014 0.6523725058846017 0
0.719708812198964 -0.1387485555253835 0
-0.007153269488791883 0.4981916293371441 0
-3.256967466729254 -1.7997199115563 0
-10.10940414191281 4.443774758678995 0
-2.458965352530433 -0.2246041403625259 0
1.103623322195149 -0.09331499956361314 0
0.01157890814661834 -0.1507548166623875 0
3.470814970152706 0.07809470715038869 0
1.751687835816881 -0.6607515091976678 0
3.925580108943934 2.244102867051665 0
0.07854774439988611 0.7213647310920452 0
-15.62655204175674 -8.581115625413133 0
0.02242590125925249 0.05987637957042441 0
0.9983826296885192 -0.07865381163071947 0
-40.64299835617217 -69.72356447891339 0
-0.1738568433275358 -0.1130794356238216 0
-0.02740577689025679 0.07424603404072269 0
-0.02039346589491613 0.02927706196806971 0
1.129787562956266 -0.2289859645187058 0
0.798574291804022 -0.8876449686153902 0
-0.03676762834703218 -0.01559021024091176 0
1.044864707011787 -0.05511295390415882 0
-0.4930194887173339 -1.411208198744676 0
1.248169514582074 1.017510210552737 0
1.734929018926149 1.851800800869423 0
0.2969329553950278 0.1893850774497222 0
0.9954811006352231 -0.01883485477460593 0
1.0410911233253943 -0.008411587174101093 0
-0.03196467476367293 -0.07148048171412273 0
-0.1274982708549611 -0.08659149074668722 0
32.67770234335612 59.94381413812292 0
1.863692330082409 -4.668313003733637 0
-0.1579210567764655 -0.3031193082809633 0
1.134131387527955 0.1668123391045383 0
-1.229237632736328 -4.50457358018329 0
-3.410297108762394 -8.056685524352146 0
0.483242061840841 0.2028428781707157 0
0.4132009294363534 -2.019765728174952 0
0.0839289977583063 -0.07905609035413154 0
0.5591531915410725 -0.1545030812510646 0
-0.2974243756155184 -0.5677415122688454 0
1.0067975569149923 -0.11433580089549578 0
0.6450110461083631 -0.3256896915501941 0
1.0324287979032103 -0.02084315132749023 0
-74.10946008757026 46.01404870028236 0
1.236460660796363 -1.940705875543216 0
0.6407015369651424 0.1805222318631153 0
-0.0625447235531468 -0.2720439206159413 0
0.9719886432471894 -0.03629807444253997 0
1.002886093667776 -0.2311313529459466 0
1.700182106406765 0.2524508866453762 0
15.96450663344948 -15.24297192259663 0
-27.65060724270147 -43.98951720506723 0
17.34091559495338 19.55541035171024 0
-0.07206200840065748 -0.6184966888594724 0
-0.07634457813663593 -0.04244895081673906 0
0.3464939450464963 2.427978042664862 0
1.043055399657817 -0.04139867362560174 0
1.267784097709107 -0.1024746849517312 0
0.926469582730892 -0.09385489325244371 0
-0.1459677818126297 -0.0983093775593466 0
1.081305304779799 0.008371888828174264 0
0.1900290983717674 -0.873902947168443 0
74.93021610040158 -40.77379180704207 0
0.118744467860551 0.1210840394209889 0
-15.13542470180046 0.05303606551706064 0
0.1861068299753394 -0.3908838268015145 0
0.3597993507869273 -0.1097015192259769 0
1.248169791827175 -0.1363051779398075 0
-30.51891261475614 13.3109120411032 0
1.0142700020740347 0.19508146433313778 0
-0.2128658294481191 -0.06730008095523532 0
-0.3765200236291575 0.3763786191583601 0
-0.02812664665547628 0.02540968809360492 0
-0.03030115294708859 -0.004396511191750921 0
1.0686494202304628 -0.059566353834006956 0
0.04617428710004811 0.06528386877648525 0
27.70636942344447 -30.98353952318981 0
12.89429487633928 -47.70256577796047 0
-0.110177601139813 -0.06743089176095125 0
0.07152225019963888 -0.1479187473566857 0
0.7214942482442831 0.3000516189275033 0
0.1746692503680797 -0.0944010185934612 0
-0.5760302926918385 -12.88622372776267 0
0.04580043242562803 -0.06084890249406591 0
1.054780590853083 -0.1401629480593393 0
-0.1382047702084997 5.83102924329331 0
8.90164418147805 -11.16517587923354 0
0.001728765423043233 0.02584599661508654 0
-66.11955206089108 17.01965669309817 0
-0.2252605924649787 -0.3987135732265941 0
0.9139113287130864 0.09724793118352347 0
1.12175688186155 -0.1432425675998225 0
3.74969730666882 -3.605266718630763 0
7.871633328059494 -2.536933472604219 0
0.4946331947932093 -0.9544767113949768 0
0.8548776533821492 0.09428722737289603 0
-0.008822247467093088 -0.0208508501820437 0
0.3818485645555795 27.56753318864636 0
0.01157550737727539 0.2052830697652013 0
1.057587569213553 -0.0027953567217183124 0
1.094206479021719 -0.07532509390972054 0
1.188992964181681 -0.1166396693516532 0
0.8762704892243536 0.2893940214945937 0
1.154573103014831 -0.1048076097546835 0
-8.206842682571382 77.27824858457973 0
0.01994492649113139 -0.04056975686152536 0
-0.1574268907267558 -0.0997736314806571 0
0.07116400302774002 0.08759350115692262 0
0.6321041037517249 -0.1060577243532758 0
0.2263792633052455 0.1404697788902598 0
1.223835964293793 -0.05476158497020066 0
-0.01049013193496707 0.002958893011706763 0
-0.01478840270828332 -0.0558197525593975 0
-0.01871529535045743 0.01055637757587585 0
0.9766559047646004 -0.06500177053354202 0
-20.27673401411388 18.70954968842472 0
0.3785230037269974 -0.2751186724125897 0
-6.053926097656968 6.289175493500448 0
-0.4511548618123679 1.625299696964111 0
62.16769228769693 -14.56004028487639 0
0.8944528031187369 -0.06241411146856321 0
-8.969611206038207 -8.442639896491658 0
-0.1664242497908122 -0.1037440550399766 0
-0.1644336965625508 -0.173172420101627 0
0.7948907352779897 11.1967477896689 0
1.284419646521941 -0.161471211169513 0
1.296936903858083 -0.1279466949723199 0
1.377707669193387 -0.1150694818575288 0
1.175230424407324 -0.1984750130753365 0
1.408372413309748 0.2070247930589008 0
1.0587351652950012 -0.05230652422204564 0
0.1266841457433344 -0.07652256324648243 0
1.123954472281045 -0.08767231726230393 0
1.272804538019724 -0.1148372291847682 0
5.782700481443666 -75.2282908740388 0
-0.04567570356238296 -0.04942542557702519 0
0.8407269838471771 0.8755463436788555 0
0.3488712496085675 0.1378142379433766 0
1.03855053199561 -0.03290659558173151 0
0.2896825605935709 -0.1126835577031168 0
1.0360814541941492 0.05491719859281921 0
1.0494904940424683 -0.006737487519192923 0
0.9517925791058377 0.05408999531984185 0
0.9845488435041783 0.11493000371625262 0
1.12455866146977 -0.004883963955598852 0
-0.1126168590222442 -0.1555451980379874 0
1.253598681205476 0.2856647408743195 0
6.355342272014499 0.03179322778183194 0
-0.06602327589688842 -0.02931592180774585 0
0.9903378379666778 -0.3288011241547004 0
-0.08988049982677158 -0.04807960608038845 0
0.9758568919373015 -0.13399854110888856 0
1.156629234351641 -0.01846708983909038 0
0.7089568553554051 0.1285642357068574 0
-1.520561734108026 -1.415461889357038 0
0.8348411731396533 -0.07463728046684939 0
0.561311774041295 0.1500137577943369 0
0.1698516215740595 0.1136472170462029 0
0.838991014648052 -0.6432504621352448 0
-0.0253236878804854 0.008321676266313721 0
-0.03118329420397294 0.0038373661203407 0
1.221923030429527 -0.1278982739174261 0
-0.1421784779967 -0.08670652365281159 0
-0.1206417770076865 -0.1232191138892365 0
0.4181494343421531 -0.09566353110905414 0
-0.05814981507102014 -0.1309797328671533 0
-1.215490886222437 -22.60291518987616 0
-0.1227878787196548 -0.07253017073080771 0
-6.133616348179879 2.720322073934331 0
-0.02071296650308055 0.01943970245186916 0
-0.7201103438118412 0.7153551735574185 0
1.0167959390325392 -0.0045556060639523385 0
1.0816272443210813 -0.0684519714614586 0
1.188450411772693 -0.03698191923200805 0
0.1906528833078026 -0.2197336880749418 0
0.003786454487787771 -0.1032192955015473 0
0.03084133683207047 0.3204428991856803 0
0.6464956372854866 -0.7370415083526685 0
-0.1023522796618775 -0.05509359732577838 0
1.357068070433131 -0.7078657985455481 0
1.101922311229377 -0.902831352772834 0
-0.03839424891075526 0.02287508790970679 0
-55.84175866139182 64.10215220266693 0
-4.965563832072617 11.80175031917653 0
-0.06449583662500388 0.0200437648375776 0
-0.09425036202326512 0.01547784224464359 0
1.0371976409655015 -0.016378187521593212 0
1.140779531873483 -0.09170769629415385 0
-0.3240577754755695 -37.41242370800573 0
-0.00815606692291763 -0.008840894231206414 0
-0.0260110064306827 -0.02439722989796352 0
1.254869760817812 -0.09896819376998603 0
1.246937470345961 -0.08658817235546784 0
1.0928378976835966 -0.0033839263040612347 0
0.4569774704056324 -0.4905287248639847 0
0.4195012887236252 0.1379595274759303 0
1.207621448404071 -0.1171527758872984 0
-3.232129542810817 1.371914897150368 0
1.317608453477538 0.06134961462322023 0
-17.81757865564954 -68.23508209571027 0
1.232189524114553 -0.0758312378679675 0
1.0690716026153184 -0.0029126371888560775 0
1.0799342991976546 -0.005303968268253656 0
-69.66027005906467 -63.09154716652006 0
1.033516442263173 -0.4447332621480724 0
1.0241352362729914 -0.04838189375861673 0
-1.88990295539537 -2.913947010835969 0
-15.68381753996738 49.98113680647505 0
0.4501099724160607 0.4156510315156843 0
12.95190885387468 31.98088152780835 0
-0.07882200423388581 0.01661256883626376 0
0.7038168576645882 -0.07340624576278315 0
-0.1211980077819457 -0.1021162962467466 0
-0.2451245038451205 -0.2792850703752421 0
0.4873497508831899 -0.1114060312126129 0
1.161033034202919 -0.3033653050092663 0
1.43858868278075 -0.4858154863342261 0
1.0212420974093197 -0.08039306568102506 0
-17.34012840342004 -17.70980752740903 0
-26.03587939996682 -13.14897781544599 0
1.038664049820582 0.651578050136126 0
1.073895169580171 -0.2700673017398695 0
1.1078646842949724 -0.004119897147087025 0
1.139326562464117 -0.01545903771130326 0
0.9523421475768026 -0.08882883770026592 0
-0.09193301356608903 0.1234517355406298 0
-0.05362400861678827 -0.07687795875266092 0
0.8595909652090221 -0.215521922868985 0
0.7662168472701212 -0.0813943548264736 0
-29.98986823259975 30.70804731031485 0
1.056586377721027 -0.10696690388205081 0
3.145427351993226 -9.316838756947192 0
-0.1551309090393626 -0.2336209844194134 0
1.0115854894082035 -0.060085568887572174 0
1.169810533364691 -0.03240321573918054 0
1.0518651325265056 -0.045076917247027413 0
0.7691540466158664 -0.4116974299367817 0
1.174069673587168 -0.1057016181276226 0
0.8764476004054367 -0.3194495736000156 0
1.201106564055022 -0.0519602912794522 0
-76.56150282483783 -8.84928304623528 0
42.112533102208 -2.08214360151433 0
0.2460179377534548 -0.3046653039956599 0
1.338361601951675 -0.02016116950922304 0
0.1696139320132063 -0.1516924799845519 0
-0.08826212209476807 -0.08702302925854773 0
-0.05853700551777771 -0.01899227309139121 0
9.311038501683512 64.81125492967806 0
-0.192407358461506 0.24447712835698 0
0.5592785071101529 -0.2410960542422547 0
-8.941643940516418 -0.1774487047953 0
-34.91783518163287 -1.153701251235403 0
0.2296070478145582 -0.0871451872007071 0
0.006556872144855719 -0.02667287864931137 0
0.09149363675582209 0.2097077455449595 0
-0.01098910744522073 -0.07972388066832173 0
-0.01317543257729345 -0.4814195074917105 0
74.74983761886944 29.50860462246994 0
1.312030613642428 0.5961726376311843 0
1.0365779614961497 -0.026016417050706977 0
-0.1748483029803008 -0.1044710707705029 0
0.3358910499919962 0.8381736142453046 0
45.65964743058176 34.37069399131102 0
0.7777444792919432 0.101149087700779 0
0.5577983653647266 -0.08651649792510846 0
1.258253466878922 -0.193382150062867 0
0.1329231448202313 0.4527543853638614 0
-8.927558446097455 9.881235102483359 0
1.110363669766763 -0.07716894740152719 0
11.69941671890499 0.4735213214008033 0
0.4219918957146358 -1.472072014302647 0
1.0570394918343697 -0.08633043790571115 0
0.7180624522167633 -0.2212418716610488 0
-0.07483490294640574 -0.07460070408878255 0
-0.04857180261370156 -0.01159072198721251 0
-0.06050057380634971 -0.04244974701446785 0
16.01828650429451 10.56979323962406 0
1.0369202590133517 -0.021379836282639085 0
-5.896017417187276 -5.995807843959823 0
1.270574656348463 -0.1468345241902045 0
-0.05388401884834432 -0.2124174654333795 0
-1.354335979022348 -0.331999839414819 0
-1.654194228927291 0.539167651371881 0
2.239548669195322 -1.615871748360864 0
1.243085613303718 -0.3082073783288825 0
-0.1235010809204918 0.001295688107716969 0
1.0406752118970637 -0.07406910326643053 0
0.04812657542523335 -0.2735468820359483 0
-0.02469789612973275 -0.1310686288897792 0
-0.1348881915864063 0.3842409220984283 0
0.2769332208760374 -0.6188300515630238 0
-0.003845012868316947 0.009286765974110319 0
0.2551063714864859 0.3604362693161535 0
1.188639558719836 -0.1665280163999231 0
0.2890706760426657 0.1247446466669293 0
-0.2279906179520162 1.015198416566298 0
9.897818838427387 14.62661372286522 0
48.1874803152557 -39.55134135880833 0
1.240313368728421 -0.1269628163400249 0
-0.025473849715258 -1.677013240297149 0
1.0626950146298562 0.010719624623660644 0
-0.1085152400963888 0.00832075197087344 0
0.4578181030052169 0.2956760427323759 0
-0.08206839908978779 -0.1515874928027022 0
0.01761515333489302 0.1413370466213652 0
-0.141926957393275 -0.489822444682353 0
60.25328148604596 -71.92548981272624 0
1.731513723994134 0.8344835654602093 0
-0.01021534127231035 0.02438674179738901 0
1.0889258516321643 0.08382020334491355 0
0.9665305967989877 -0.1952609036004539 0
-0.003694175233751099 0.01711469867390946 0
1.0314263905991916 -0.12063880065641441 0
-0.03755037754578469 -0.03199381325061183 0
19.11419807311715 -3.754220967955919 0
-0.0794676985805335 -0.05830610583656291 0
50.31364997321453 76.98607020338439 0
1.0079835286022905 0.021636140301495306 0
1.217966439574451 -0.1526926682039757 0
-81.15831215329456 -36.29443351288092 0
-0.01587227804537719 -0.03246171295781582 0
8.682301213915519 23.145574277328 0
1.125474459486227 -0.1809524949870156 0
-0.02966666275305515 0.01956514556976085 0
-0.1345453285728187 -0.0777787031657669 0
-0.01559230069456012 -0.003754113835641689 0
0.488046964520527 0.1285400820498432 0
-3.129352703440131e-05 0.06223037375003557 0
0.6320824161707191 0.4390476431614442 0
1.268806972874847 -0.08703925523357134 0
-0.03951512995559152 -0.002446415209858565 0
-50.77023368224009 37.04894830489463 0
1.049381634465025 0.024370016501051958 0
0.3247329029424593 -4.444668310807936 0
0.5469953507875445 1.022833310175989 0
0.7438089644802099 -1.673716512438814 0
0.01228004539024189 0.04147092301747053 0
-0.05252081622695141 0.1009716481519674 0
-0.03024307655926895 -0.05509478276277593 0
0.9093049419595238 8.41047938137218 0
1.259885650657333 -0.1370999851533049 0
0.2201840428061138 0.2329420346655848 0
-23.16090581272603 6.248405925708577 0
0.7927295959789586 -0.1633067397394843 0
1.0347311669142487 -0.04947764306018326 0
0.9029172291157842 0.06191726240722227 0
0.6330343556978808 0.1158635480486108 0
40.17012293368704 16.76412317383333 0
2.778511549426084 -6.853183171411916 0
1.0333108947522411 -0.00022937680939275464 0
1.092113970615411 -0.1554751474261736 0
0.9961918389635203 -0.061984402162144 0
-0.1347046108792151 -0.09646197873844964 0
1.146778818295337 -0.1330187632001813 0
75.16345816696679 76.36641290302626 0
1.25183556436019 -0.1279416004330979 0
5.149423934096754 5.193276606573862 0
0.06241128073766251 -0.2047889149395337 0
-0.1450553151621801 -0.1222341701306737 0
0.1201434409948213 -0.1792898588292927 0
0.1006874777012135 -0.434049701070905 0
-32.36046199905706 73.45537074948781 0
1.0119094700406057 -0.02793040800935282 0
-0.574517092761697 -3.436739581787893 0
0.03269590268400162 3.921931236064009 0
-1.510103475768912 4.425985969085783 0
-2.586486055297155 5.687050571007886 0
1.261771866274676 -0.1099902188259498 0
-0.050514431904884 0.01955549052071022 0
-0.1487433130079614 -0.1086579134344076 0
0.5532919714562707 -0.4161319522343293 0
-23.75079897417169 -26.24805883467256 0
-11.21747707336171 -4.624846043037637 0
0.07497470522782605 -0.701356328389543 0
0.3509389968388639 -0.1817989865982271 0
4.870338791780105 9.659969998227472 0
1.223142986038577 -0.2122039424679304 0
1.174628579030804 -0.1436943939483082 0
-46.82142937101131 -47.21135673226172 0
0.7168356535147496 0.2097255797814339 0
0.4215028812694788 -0.383290268334882 0
-0.1518542078249553 -0.09137460721330498 0
-13.37232959747605 -38.0056622615359 0
1.0673920843123026 -0.07474808006875223 0
0.07785539469683668 -0.1135122459878179 0
-81.60105819588257 80.00000000008133 0
-0.09814339214869458 -0.1040955661701066 0
0.943107628682394 -0.03221029989086167 0
0.392498913265678 0.2075148175586813 0
76.67642044820744 6.791296038771316 0
-0.1923188084123429 -0.1191582207344558 0
0.9541918088239636 -0.11055912443822347 0
-0.05311773449899664 0.0509780880676588 0
0.4839501520280918 -0.2124757812600563 0
-0.1136774099656598 0.1843246750127379 0
-5.623447503801775 -2.416661723091877 0
22.0743119109537 43.44939014307637 0
0.1295994188774914 -0.3171884845092686 0
1.0136525795409952 -0.04354976292650899 0
1.0277435051790909 -0.025727747127538957 0
1.0274857219707498 -0.03167398052582334 0
1.0231980307299808 -0.027913874104139876 0
1.041993611146827 -0.013370223035491995 0
1.0448075683660698 -0.011576999126437604 0
1.044990524927755 -0.015660060343372084 0
0.9842758970645469 -0.026577688880566545 0
0.9715154502049088 -0.02091137654780541 0
0.9846148267266266 -0.012420953044467763 0
1.0925302757821835 0.013992781058527054 0
1.0788385216943104 0.018824369740431824 0
1.0895735914205802 0.029062512274414934 0
0.9967965436258991 -0.007787948275089617 0
0.9864443515349806 -0.0010596116072714903 0
1.001637467810099 0.034694936412617644 0
0.9920667536395151 0.016857718885075184 0
0.9831951511507312 0.030507160065814026 0
1.078125027889296 0.04898043542441211 0
1.1024668745601751 0.048473357965286845 0
1.0478625435735955 -0.03865098196699752 0
1.0446078906705005 -0.03599834525692946 0
1.048618852309989 -0.03394540210764596 0
1.0018138031987824 -0.09308395176053239 0
0.9902029659077858 -0.10491162005558131 0
0.9883883586949388 -0.08781080962304222 0
0.9495599003089139 -0.07599232143379947 0
0.924751860228575 -0.042263124806528156 0
0.9423417150523693 -0.04636738094425375 0
0.9257633055965355 -0.0610391395412518 0
1.0014247489000594 0.00876395132674544 0
0.9864492218475789 0.002845558825583794 0
0.9667692861835318 0.07930224246912398 0
0.9922724054925276 0.0729240955709551 0
0.9751553801988528 0.05243155858341587 0
1.0208815247014402 0.02050556377520482 0
1.01911071526267 0.03698623779405409 0
1.0321914744708178 0.03192540835643483 0
1.0421614472992713 -0.032834955739068576 0
1.0402938007692708 -0.02998017502405034 0
1.0434366947427662 -0.029689102087630204 0
1.048321286933972 -0.06997921564239316 0
1.0426462467628286 -0.06429175385037705 0
1.049930357397383 -0.0611053614652141 0
1.0749522223502905 -0.055484348916402124 0
1.0694326234234253 -0.05240070778834598 0
1.0753709031818413 -0.04814868002803918 0
0.9763803195812872 -0.08128359909411563 0
0.9874387501302342 -0.07338358062146778 0
1.0317848963503082 -0.0343652996268347 0
1.0278899786041809 -0.03757549256534626 0
0.9852951825009726 -0.04051186059145542 0
0.9957933892863919 -0.031699483770624 0
1.038862344153808 -0.018393755227386812 0
1.0400556697034133 -0.016077254374153548 0
1.0411478527993268 -0.018297381988990224 0
1.0346913225700327 -0.06764133048053741 0
1.037282202516301 -0.058930675640969196 0
1.0159753915236367 0.08364336874236711 0
1.011019603874048 0.05475481349772279 0
0.9866267056537791 -0.05327096167055172 0
0.9734536802834259 -0.05054253535548445 0
1.0288962826353103 -0.02062562422192228 0
1.0314537991791397 -0.024745824778925646 0
0.9349036823665247 -0.021460023676046002 0
0.9102090110629509 -0.02877298076519569 0
1.009791908838175 -0.08079139553901696 0
1.0152323146621192 -0.09363835291712191 0
0.9554530146167072 -0.018572965489017962 0
0.9492883189481393 -0.003898429857295246 0
1.0559195498029659 -0.008350722283563112 0
1.0604578389657542 -0.00782247501597315 0
1.05833540402989 -0.013012822698502013 0
1.0450249166130192 0.0354176374500193 0
1.0405529846644899 0.02210128101153517 0
1.0123348503016343 -0.036856856438189305 0
1.0075087262189713 -0.04421482878773136 0
1.0050787706949953 -0.03518153989732472 0
1.0184783433127091 -0.023274377849803834 0
1.0132460701212496 -0.01721405196369604 0
1.0207717565186099 -0.014391394328885192 0
1.0404498801942255 -0.036795356472449796 0
1.0643546727049216 -0.049317728756569285 0
1.0597188677043912 -0.046308482551600395 0
1.0647355393645785 -0.043172688833778006 0
0.9964326788256683 -0.055769349706759015 0
0.9893631975905073 -0.06285317421748157 0
1.0181348117332814 -0.039131592773031645 0
1.0177941356955449 -0.0315898762903795 0
1.0242324001244092 0.12079302760903567 0
1.0383687157779515 -0.02056151207069389 0
1.0367985340164547 -0.01926491293544393 0
1.0350806641350816 -0.02115132870345773 0
1.0365339927150723 -0.023348632385155617 0
1.0343152558572308 -0.02389527802539237 0
1.025298209062247 -0.008411756721870927 0
1.0269791313684962 -0.015252599907631968 0
0.9619883687006683 0.030859155637498626 0
0.9966615592998685 -0.0682864955719114 0
1.0372937721529931 -0.02928762269492581 0
1.0390313426779985 -0.027145021525279325 0
1.0127833838504126 0.008886240398027573 0
1.0233231155580471 0.007299596003550863 0
1.0283825797572614 -0.0897140350203813 0
1.023787161829688 -0.103334058245177 0
1.0320502227672652 0.006065422835528063 0
1.0267089983858209 -0.0010289889390642896 0
1.0385403706964629 -0.012750252857318317 0
0.9385364769103308 0.03348515835791501 0
0.9493019961558957 0.01037160108356261 0
1.0731114807294244 -0.07180110081003518 0
1.067540137276687 -0.067047097114809 0
1.0743583469450069 -0.06349129361170003 0
1.0326847210942276 -0.05451435716842374 0
1.038868277470665 -0.05200083376091275 0
1.063462878100758 -0.0559624512443654 0
1.0381836988753674 -0.022566634635998353 0
1.0383162168911373 -0.024739337203040702 0
1.0045177760744728 -0.023669413786325325 0
1.0313601140657134 -0.016513415577733424 0
1.0285887402890075 -0.04364867869766712 0
1.0234173084957319 -0.041655008138163835 0
1.0470979579423945 0.08828908132193494 0
1.0061777625010069 -0.001175401524260004 0
1.099498816217693 0.004666466481511896 0
1.0886694910675825 0.0033924350827109918 0
1.040334930055792 -0.025657369298727417 0
0.957388383843828 -0.033560922382670014 0
1.058131377539907 0.028879609011244388 0
1.057614322158684 0.04365168501553435 0
1.0159422949418153 -0.07040798516136826 0
1.0211681284710297 -0.06161687676200506 0
1.025714667530659 -0.06997985523470257 0
0.9465142244136107 0.10397034402072942 0
0.9362378798487984 0.07469816949880945 0
1.0547278074199842 -0.04846997508698897 0
1.0556885541022194 -0.04323668198729065 0
1.0315963396726546 -0.005569320449065886 0
1.0517985156103964 -0.0407880461266098 0
1.0557647491284854 -0.03844061532963572 0
1.005739796356293 -0.012017812316126685 0
1.0882548079412504 -0.009816125917745274 0
1.0947461609405396 -0.010897344097427344 0
1.0900708868744724 -0.016563801971876124 0
1.0346200646225245 -0.01393624124390309 0
1.034533612042082 -0.018085485883391254 0
1.0810018542575854 -0.058835389446086406 0
1.0483523836330884 -0.010631729534740833 0
1.0519347291370154 -0.00963617595099389 0
1.0507635690275592 -0.013893722026089073 0
1.049114278359773 -0.049134112215618315 0
1.052326888800091 -0.05406715412450473 0
1.0611279101390245 0.06306584302993282 0
1.0478595829516122 -0.043729320446056055 0
1.034232675425743 -0.02754856151371109 0
1.0568965980724463 -0.05877378840949619 0
0.9609074226571748 -0.06255966546467244 0
0.9584001873546384 -0.048326662888132824 0
1.0394969197811612 -0.021768942039159356 0
1.0057384274649623 -0.06983646775448533 0
1.0528795019533774 -0.004575510963560478 0
1.04751866099605 -0.09148202692763927 0
0.9649388656176274 -0.09092891286275735 0
0.9638549889162773 -0.07662210898864415 0
1.0655591346313245 -0.008000559640808829 0
1.070875270289453 -0.00849863992117802 0
1.0675397232070871 -0.013099517867138477 0
0.9129919182425315 0.03707951475625131 0
1.0387255087194434 -0.045988960859858236 0
1.0337093397959873 -0.044799165551685796 0
1.0375769854866141 -0.04074803535165682 0
1.0348744593319419 -0.03161119492830358 0
1.035999975261311 -0.036093001703940225 0
1.0763418641343097 -0.009280936104119742 0
1.0820272453715196 -0.0097436421756141 0
1.0781856653014774 -0.0142516822201193 0
1.1015642065612268 -0.012431589595487699 0
1.0458231247707603 -0.00694207497431697 0
1.0187762562773082 -0.05381438149041534 0
1.0261126201956305 -0.054856417682970636 0
0.9285373030305126 0.052405277288171126 0
1.0544620838826342 0.008705357056186925 0
1.0596615990849156 0.003384289039802882 0
1.0531725413585926 0.0013167087818611346 0
1.0994136337106066 -0.005304481950429643 0
1.0316065718913754 -0.07775591294692072 0
1.0619907096738017 -0.06291115975475367 0
1.0124302883043825 -0.05048324608885073 0
1.0184364667890222 -0.046249487766871655 0
1.0048688725702521 -0.052805056117130614 0
1.0478389324123383 -0.08019361603720176 0
1.0550062332775496 -0.07525214733497333 0
1.063119240163204 -0.002435089164058918 0
1.0390581806620829 -0.08533237317040199 0
1.0438116842851775 -0.047879576565447654 0
1.029863640847672 -0.049333653318053255 0
1.0855827693770934 -0.00401536470017719 0
1.0374050727761166 -0.0038207276307870874 0
1.0357529091078292 -0.00925634589865824 0
1.0477730200812092 0.014805902745068131 0
1.0565038255859331 0.018008349414413143 0
1.0611404318325632 -0.07061968177670097 0
1.0626400719717557 -0.07878687226370777 0
1.0485223755049418 -0.0021413179190443413 0
1.043270021984417 -0.0022104747459865577 0
1.002271069350698 -0.06137159794583233 0
1.0389174466594007 0.0025400669265828904 0
1.0393915479437712 0.010831400428145635 0
1.0750510001753026 -0.0038874554528893004 0
1.080810751425289 0.0004258850553231525 0
1.0742347498591411 0.0026477402678636475 0
1.0666136792328258 0.0036268476907411144 0
1.0718427846902054 0.01056039594279157 0
1.0668219564658405 0.019894133797077856 0
$EndNodes
$Elements
8 1854 1 1854
1 1 1 44
1 1 1209
2 1209 6
3 6 1264
4 1264 11
5 11 16
6 16 21
7 21 26
8 26 31
9 31 36
10 36 41
11 41 46
12 46 51
13 51 56
14 56 61
15 61 66
16 66 71
17 71 76
18 76 81
19 81 86
20 86 91
21 91 96
22 96 101
23 101 106
24 106 111
25 111 116
26 116 121
27 121 126
28 126 131
29 131 136
30 136 141
31 141 146
32 146 151
33 151 156
34 156 161
35 161 166
36 166 171
37 171 176
38 176 181
39 181 186
40 186 191
41 191 1304
42 1304 196
43 196 1226
44 1226 1
1 2 1 40
45 202 207
46 207 212
47 212 217
48 217 222
49 222 227
50 227 232
51 232 237
52 237 242
53 242 247
54 247 252
55 252 257
56 257 262
57 262 267
58 267 272
59 272 277
60 277 282
61 282 287
62 287 292
63 292 297
64 297 302
65 302 307
66 307 312
67 312 317
68 317 322
69 322 327
70 327 332
71 332 337
72 337 342
73 342 347
74 347 352
75 352 357
76 357 362
77 362 367
78 367 372
79 372 377
80 377 382
81 382 387
82 387 392
83 392 397
84 397 202
1 3 1 54
85 403 408
86 408 413
87 413 418
88 418 423
89 423 428
90 428 433
91 433 438
92 438 443
93 443 448
94 448 453
95 453 458
96 458 463
97 463 468
98 468 1241
99 1241 473
100 473 1279
101 1279 478
102 478 1334
103 1334 483
104 483 1217
105 1217 488
106 488 1235
107 1235 493
108 493 1321
109 1321 498
110 498 1353
111 1353 503
112 503 1250
113 1250 508
114 508 1201
115 1201 513
116 513 1344
117 1344 518
118 518 1267
119 1267 523
120 523 1361
121 1361 528
122 528 1370
123 1370 533
124 533 1338
125 1338 538
126 538 543
127 543 548
128 548 553
129 553 558
130 558 563
131 563 568
132 568 573
133 573 578
134 578 583
135 583 588
136 588 593
137 593 598
138 598 403
1 4 1 5
139 604 608
140 608 609
141 609 610
142 610 611
143 611 605
1 5 1 5
144 605 612
145 612 613
146 613 614
147 614 615
148 615 606
1 6 1 5
149 606 616
150 616 617
151 617 618
152 618 619
153 619 607
1 7 1 5
154 607 620
155 620 621
156 621 622
157 622 623
158 623 604
2 1 2 1696
159 698 702 780
160 608 604 1000
161 638 730 1001
162 691 711 812
163 836 649 886
164 701 757 1064
165 683 684 1187
166 872 751 904
167 730 635 1001
168 237 232 851
169 634 722 827
170 712 1198 1197
171 713 1196 1198
172 782 1197 1196
173 1196 1197 1198
174 641 722 1080
175 852 742 915
176 756 801 929
177 889 641 890
178 646 843 1029
179 745 648 845
180 730 638 1012
181 672 725 801
182 116 111 1133
183 644 784 1023
184 833 741 1096
185 612 605 1103
186 756 672 801
187 819 630 820
188 513 1201 1200
189 508 1199 1201
190 823 1200 1199
191 1199 1200 1201
192 604 623 1000
193 831 633 879
194 630 742 852
195 843 646 1077
196 689 816 870
197 680 653 698
198 778 645 843
199 6 1204 1203
200 822 1202 1204
201 844 1203 1202
202 1202 1203 1204
203 697 932 1023
204 682 1207 1206
205 776 1205 1207
206 857 1206 1205
207 1205 1206 1207
208 408 403 1137
209 754 647 991
210 761 727 875
211 684 683 920
212 830 633 831
213 671 733 771
214 702 698 995
215 936 863 1171
216 647 858 1087
217 625 868 967
218 86 880 902
219 796 905 1008
220 749 629 1066
221 700 789 936
222 1025 952 1140
223 801 725 897
224 685 627 895
225 847 785 873
226 81 76 834
227 849 744 1073
228 729 831 879
229 6 1209 1204
230 1 1208 1209
231 822 1204 1208
232 1208 1204 1209
233 86 81 880
234 656 641 1080
235 56 51 863
236 710 916 1094
237 635 738 1001
238 648 745 881
239 605 611 1103
240 797 806 1063
241 696 866 899
242 683 668 920
243 650 643 1078
244 855 717 917
245 783 707 977
246 901 617 1044
247 646 920 942
248 966 202 1120
249 926 660 995
250 196 1212 1211
251 748 1210 1212
252 1114 1211 1210
253 1210 1211 1212
254 668 683 1155
255 820 630 852
256 776 1207 1214
257 682 1213 1207
258 1106 1214 1213
259 1213 1214 1207
260 819 820 1104
261 690 916 1038
262 685 751 812
263 738 955 1033
264 784 644 962
265 729 879 963
266 488 1217 1216
267 483 1215 1217
268 853 1216 1215
269 1215 1216 1217
270 578 573 907
271 632 1220 1219
272 809 1218 1220
273 837 1219 1218
274 1218 1219 1220
275 711 691 813
276 724 655 1173
277 796 732 905
278 946 845 1018
279 774 820 852
280 631 829 1106
281 746 677 894
282 855 767 1221
283 855 1221 1021
284 767 1224 1223
285 917 1222 1224
286 1184 1223 1222
287 1222 1223 1224
288 131 126 860
289 955 635 977
290 880 755 902
291 1 1226 1225
292 196 1211 1226
293 1114 1225 1211
294 1211 1225 1226
295 730 1012 1081
296 766 646 1100
297 653 926 995
298 748 1229 1228
299 939 1227 1229
300 940 1228 1227
301 1227 1228 1229
302 403 598 930
303 937 1232 1231
304 679 1230 1232
305 1114 1231 1230
306 1230 1231 1232
307 816 773 1071
308 829 680 1106
309 91 86 902
310 659 652 686
311 111 106 884
312 639 847 883
313 702 703 763
314 717 792 1024
315 752 804 1013
316 403 923 1076
317 758 695 892
318 722 634 841
319 788 719 862
320 757 708 980
321 493 1235 1234
322 488 1233 1235
323 935 1234 1233
324 1233 1234 1235
325 731 683 811
326 642 795 933
327 765 787 981
328 704 755 880
329 932 824 1023
330 803 640 805
331 186 181 892
332 728 830 831
333 860 716 1051
334 610 759 1103
335 810 608 1000
336 916 710 1038
337 639 723 890
338 711 869 978
339 661 658 1010
340 81 834 880
341 252 247 875
342 793 721 1048
343 91 902 1050
344 838 732 1069
345 729 807 918
346 817 1238 1237
347 737 1236 1238
348 1083 1237 1236
349 1236 1237 1238
350 473 1241 1240
351 468 1239 1241
352 871 1240 1239
353 1239 1240 1241
354 634 741 833
355 617 826 1044
356 708 757 894
357 787 765 1189
358 924 703 1040
359 806 651 1063
360 763 703 1126
361 809 1220 1243
362 632 1242 1220
363 911 1243 1242
364 1242 1243 1220
365 743 1245 1244
366 712 1197 1245
367 782 1244 1197
368 1197 1244 1245
369 700 936 1171
370 848 628 996
371 463 458 897
372 822 1247 1202
373 662 1246 1247
374 844 1202 1246
375 1246 1202 1247
376 642 696 899
377 704 802 972
378 773 1043 1071
379 641 656 803
380 784 665 1183
381 692 693 1022
382 738 635 955
383 869 966 1120
384 769 908 910
385 736 637 818
386 879 770 963
387 648 814 1018
388 508 1250 1249
389 503 1248 1250
390 983 1249 1248
391 1248 1249 1250
392 681 1252 1251
393 817 1237 1252
394 1083 1251 1237
395 1237 1251 1252
396 613 859 916
397 627 685 1191
398 792 715 1024
399 937 1254 1253
400 748 1228 1254
401 940 1253 1228
402 1228 1253 1254
403 843 740 1084
404 915 742 1092
405 802 704 876
406 1010 658 1029
407 751 716 904
408 955 754 1033
409 844 1246 1256
410 662 1255 1246
411 911 1256 1255
412 1255 1256 1246
413 782 1196 1258
414 713 1257 1196
415 839 1258 1257
416 1257 1258 1196
417 816 689 987
418 732 838 1046
419 649 659 661
420 701 799 861
421 908 768 910
422 866 695 899
423 675 730 1081
424 917 1260 1222
425 11 1259 1260
426 1184 1222 1259
427 1259 1222 1260
428 725 672 1027
429 837 1218 1262
430 809 1261 1218
431 1014 1262 1261
432 1261 1262 1218
433 764 755 909
434 685 1022 1191
435 851 232 945
436 994 771 1079
437 826 617 1113
438 709 744 849
439 11 1264 1259
440 6 1263 1264
441 1184 1259 1263
442 1263 1259 1264
443 433 428 898
444 960 1009 1183
445 875 727 964
446 755 764 902
447 672 756 888
448 1047 678 1192
449 628 874 931
450 884 106 1108
451 859 612 1103
452 701 861 1139
453 721 793 885
454 36 31 905
455 958 747 993
456 689 893 987
457 523 1267 1266
458 518 1265 1267
459 896 1266 1265
460 1265 1266 1267
461 890 641 944
462 635 730 976
463 71 66 878
464 796 1025 1140
465 634 833 841
466 609 608 810
467 732 835 905
468 702 763 907
469 665 784 962
470 679 1232 1269
471 937 1268 1232
472 1129 1269 1268
473 1268 1269 1232
474 624 914 980
475 802 766 1085
476 548 543 941
477 443 438 900
478 671 771 994
479 277 272 903
480 613 612 859
481 657 838 1069
482 662 1272 1271
483 1159 1270 1272
484 1195 1271 1270
485 1270 1271 1272
486 917 717 952
487 237 851 947
488 660 924 1040
489 202 910 956
490 643 951 1078
491 740 766 802
492 618 617 901
493 772 744 1111
494 897 725 969
495 721 865 1048
496 629 772 1066
497 847 639 1111
498 910 202 966
499 916 859 1094
500 714 922 1062
501 754 991 1167
502 968 1275 1274
503 713 1273 1275
504 1159 1274 1273
505 1273 1274 1275
506 768 689 870
507 677 1004 1044
508 609 810 996
509 723 639 883
510 847 770 883
511 971 1039 1194
512 922 735 1062
513 647 754 974
514 803 805 944
515 858 647 891
516 744 772 1073
517 660 753 924
518 637 736 858
519 695 758 899
520 488 1216 1233
521 853 1276 1216
522 935 1233 1276
523 1276 1233 1216
524 1087 858 1170
525 727 761 1042
526 644 972 1085
527 478 1279 1278
528 473 1277 1279
529 927 1278 1277
530 1277 1278 1279
531 958 791 1115
532 643 736 818
533 688 847 873
534 814 648 1119
535 778 843 1084
536 558 553 949
537 882 774 1161
538 911 1255 1281
539 662 1280 1255
540 1148 1281 1280
541 1280 1281 1255
542 21 16 952
543 812 751 1124
544 755 704 972
545 952 717 1140
546 802 876 1154
547 923 703 924
548 932 773 1110
549 408 1137 1152
550 868 650 967
551 795 642 1125
552 56 863 936
553 747 958 1115
554 861 799 1047
555 16 917 952
556 826 1059 1193
557 727 825 964
558 1159 1283 1270
559 712 1282 1283
560 1195 1270 1282
561 1282 1270 1283
562 866 631 1284
563 866 1284 940
564 645 828 843
565 790 615 1054
566 858 736 1170
567 905 835 1061
568 902 764 1050
569 794 848 1175
570 942 668 960
571 983 1248 1286
572 503 1285 1248
573 1074 1286 1285
574 1285 1286 1248
575 141 136 906
576 707 783 841
577 1005 705 1089
578 739 860 1051
579 1016 794 1048
580 759 610 931
581 637 858 891
582 282 277 919
583 651 795 1005
584 638 946 1018
585 845 648 1018
586 16 11 1260
587 16 1260 917
588 797 625 806
589 757 701 912
590 808 116 1133
591 688 873 874
592 895 973 1051
593 855 917 1224
594 855 1224 767
595 1056 1289 1288
596 839 1287 1289
597 1074 1288 1287
598 1287 1288 1289
599 715 845 946
600 654 971 1194
601 96 893 986
602 824 644 1023
603 860 126 904
604 791 714 1115
605 672 881 1027
606 734 1291 1290
607 713 1275 1291
608 968 1290 1275
609 1275 1290 1291
610 748 1212 1229
611 196 1292 1212
612 939 1229 1292
613 1292 1229 1212
614 655 814 925
615 611 610 1103
616 820 640 1104
617 768 870 957
618 186 892 1142
619 207 202 956
620 907 763 997
621 812 711 1189
622 809 1243 1293
623 911 1281 1243
624 1148 1293 1281
625 1281 1293 1243
626 888 1119 1147
627 212 207 957
628 493 1234 1295
629 935 1294 1234
630 1056 1295 1294
631 1294 1295 1234
632 679 1297 1230
633 968 1296 1297
634 1114 1230 1296
635 1296 1230 1297
636 879 633 1028
637 718 793 794
638 663 1299 1298
639 837 1262 1299
640 1014 1298 1262
641 1262 1298 1299
642 621 620 840
643 453 448 929
644 626 1016 1048
645 649 661 1010
646 688 874 985
647 685 812 1134
648 653 680 829
649 621 885 1037
650 61 56 936
651 719 1087 1170
652 1011 835 1190
653 909 666 1117
654 714 674 1115
655 696 829 866
656 724 675 1081
657 861 626 1139
658 671 914 1163
659 705 821 1138
660 750 1011 1190
661 968 1297 1301
662 679 1300 1297
663 1146 1301 1300
664 1300 1301 1297
665 785 710 873
666 823 1199 1302
667 508 1249 1199
668 983 1302 1249
669 1249 1302 1199
670 1119 648 1147
671 745 845 1107
672 700 913 1039
673 691 812 1124
674 196 1304 1292
675 191 1303 1304
676 939 1292 1303
677 1303 1292 1304
678 920 646 1029
679 876 704 1181
680 871 1307 1306
681 969 1305 1307
682 1180 1306 1305
683 1305 1306 1307
684 979 676 1128
685 626 1048 1139
686 666 932 1110
687 568 563 970
688 725 1180 1305
689 725 1305 969
690 151 146 934
691 669 693 694
692 870 816 1127
693 721 885 1128
694 843 828 1029
695 817 1252 1309
696 681 1308 1252
697 1141 1309 1308
698 1308 1309 1252
699 377 372 982
700 176 171 950
701 873 759 874
702 723 883 1028
703 913 788 1039
704 780 702 907
705 828 1010 1029
706 787 711 978
707 810 848 996
708 811 683 1187
709 913 750 1190
710 740 802 1154
711 831 729 918
712 815 955 977
713 764 909 1117
714 979 840 1182
715 893 689 986
716 826 790 1059
717 687 729 963
718 121 116 872
719 1012 655 1081
720 232 227 945
721 774 805 820
722 895 627 973
723 828 645 886
724 863 51 961
725 1004 746 1026
726 846 660 926
727 473 1240 1277
728 871 1310 1240
729 927 1277 1310
730 1310 1277 1240
731 753 660 846
732 703 762 1126
733 869 813 966
734 688 770 847
735 621 840 885
736 881 745 1109
737 956 768 957
738 813 691 1105
739 732 796 1069
740 745 837 1109
741 116 808 872
742 912 865 1026
743 877 758 1176
744 619 618 1158
745 650 652 659
746 641 803 944
747 838 667 1046
748 703 702 1040
749 677 746 1004
750 71 878 928
751 687 963 985
752 750 961 1011
753 498 1312 1311
754 1056 1288 1312
755 1074 1311 1288
756 1288 1311 1312
757 948 632 1219
758 948 1219 837
759 740 843 1077
760 893 96 1050
761 792 717 855
762 729 687 1015
763 744 785 1111
764 726 960 1155
765 677 1044 1193
766 423 418 958
767 718 794 1175
768 714 864 1137
769 834 76 928
770 948 745 1107
771 252 875 964
772 753 675 924
773 166 161 953
774 862 719 1157
775 674 714 1062
776 762 923 930
777 662 1247 1272
778 822 1313 1247
779 1159 1272 1313
780 1313 1272 1247
781 674 925 1090
782 413 408 1152
783 722 641 889
784 751 808 1124
785 713 1291 1257
786 734 1314 1291
787 839 1257 1314
788 1314 1257 1291
789 914 624 1163
790 789 700 971
791 712 1245 1316
792 743 1315 1245
793 1002 1316 1315
794 1315 1316 1245
795 965 678 1047
796 912 701 1139
797 814 655 1012
798 890 944 1066
799 685 895 1101
800 759 873 1094
801 463 897 969
802 951 800 1078
803 834 704 880
804 631 1317 1284
805 937 1253 1317
806 940 1284 1253
807 1253 1284 1317
808 711 813 869
809 770 688 963
810 968 1318 1296
811 1 1225 1318
812 1114 1296 1225
813 1225 1296 1318
814 960 726 1009
815 242 237 947
816 891 647 974
817 842 877 1176
818 857 1205 1320
819 776 1319 1205
820 990 1320 1319
821 1319 1320 1205
822 829 631 866
823 723 889 890
824 578 907 997
825 646 766 1077
826 707 841 1132
827 101 96 986
828 76 71 928
829 397 392 978
830 892 887 1142
831 634 827 1130
832 714 791 864
833 622 621 1037
834 838 657 1033
835 257 252 964
836 661 686 867
837 645 778 1053
838 800 994 1079
839 905 31 1008
840 807 626 861
841 875 247 975
842 719 788 1087
843 698 653 995
844 759 1094 1103
845 944 749 1066
846 773 816 1110
847 287 282 1057
848 665 942 960
849 747 898 993
850 652 669 694
851 808 751 872
852 96 91 1050
853 267 262 959
854 719 850 1053
855 126 121 904
856 824 932 1135
857 766 740 1077
858 498 1321 1312
859 493 1295 1321
860 1056 1312 1295
861 1295 1312 1321
862 6 1203 1263
863 844 1322 1203
864 1184 1263 1322
865 1322 1263 1203
866 815 707 891
867 720 834 928
868 615 614 1054
869 832 706 953
870 610 609 931
871 642 933 1017
872 771 733 915
873 898 747 1174
874 795 1058 1131
875 713 1198 1273
876 712 1283 1198
877 1159 1273 1283
878 1283 1273 1198
879 628 931 996
880 207 956 957
881 706 842 953
882 733 852 915
883 840 620 1182
884 658 661 684
885 972 802 1085
886 963 688 985
887 1059 709 1193
888 774 852 1161
889 756 929 984
890 835 732 1046
891 937 1324 1268
892 682 1323 1324
893 1129 1268 1323
894 1323 1268 1324
895 51 46 961
896 769 910 966
897 36 905 1061
898 770 879 1028
899 598 593 1164
900 614 613 1186
901 681 1327 1326
902 1014 1325 1327
903 1030 1326 1325
904 1325 1326 1327
905 748 1254 1210
906 937 1231 1254
907 1114 1210 1231
908 1231 1210 1254
909 757 746 894
910 667 913 1190
911 760 898 1174
912 673 925 1119
913 965 671 994
914 939 1329 1227
915 887 1328 1329
916 940 1227 1328
917 1328 1227 1329
918 478 1278 1331
919 927 1330 1278
920 1032 1331 1330
921 1330 1331 1278
922 908 101 986
923 933 795 1131
924 831 918 1075
925 734 1290 1332
926 968 1301 1290
927 1146 1332 1301
928 1301 1332 1290
929 483 1334 1333
930 478 1331 1334
931 1032 1333 1331
932 1331 1333 1334
933 822 1335 1313
934 968 1274 1335
935 1159 1313 1274
936 1274 1313 1335
937 882 1162 1163
938 636 1047 1192
939 680 776 1214
940 680 1214 1106
941 1094 859 1103
942 1041 971 1156
943 794 793 1048
944 816 1071 1127
945 628 848 1179
946 756 900 1150
947 898 428 993
948 689 768 1122
949 626 807 1016
950 900 760 1150
951 772 629 1073
952 613 916 1186
953 247 242 975
954 538 1338 1337
955 533 1336 1338
956 990 1337 1336
957 1336 1337 1338
958 840 979 1128
959 750 913 1171
960 874 759 931
961 839 1314 1340
962 734 1339 1314
963 983 1340 1339
964 1339 1340 1314
965 715 792 1107
966 637 1067 1096
967 730 675 1013
968 807 729 1015
969 636 1075 1169
970 839 1340 1287
971 983 1286 1340
972 1074 1287 1286
973 1286 1287 1340
974 699 1055 1104
975 617 616 1113
976 655 724 1081
977 136 131 954
978 625 797 1086
979 665 960 1183
980 463 969 1341
981 463 1341 468
982 979 619 1158
983 925 673 1090
984 834 720 1181
985 46 41 1011
986 518 1344 1343
987 513 1342 1344
988 938 1343 1342
989 1342 1343 1344
990 837 745 948
991 443 900 984
992 644 824 1052
993 921 708 1172
994 1038 744 1144
995 696 642 1017
996 848 794 1168
997 927 1346 1330
998 817 1345 1346
999 1032 1330 1345
1000 1345 1330 1346
1001 913 700 1171
1002 682 1324 1213
1003 937 1347 1324
1004 1106 1213 1347
1005 1347 1213 1324
1006 1033 657 1035
1007 793 718 1037
1008 827 722 889
1009 744 709 1144
1010 31 26 1008
1011 615 790 1151
1012 725 1027 1068
1013 277 903 919
1014 895 716 1101
1015 708 894 1118
1016 61 936 1049
1017 934 821 1185
1018 387 382 981
1019 853 1215 1348
1020 483 1333 1215
1021 1032 1348 1333
1022 1333 1348 1215
1023 664 774 882
1024 746 757 912
1025 763 989 997
1026 1004 901 1044
1027 871 1239 1307
1028 468 1341 1239
1029 969 1307 1341
1030 1341 1307 1239
1031 878 66 1049
1032 675 724 735
1033 652 868 1045
1034 833 1067 1132
1035 738 1033 1035
1036 885 793 1037
1037 765 692 1189
1038 433 898 1034
1039 907 573 1036
1040 624 882 1163
1041 131 860 954
1042 897 458 1065
1043 782 1258 1349
1044 839 1289 1258
1045 1056 1349 1289
1046 1289 1349 1258
1047 900 438 1034
1048 438 433 1034
1049 903 731 919
1050 695 866 940
1051 914 671 965
1052 792 948 1107
1053 694 693 781
1054 1004 676 1158
1055 639 1066 1111
1056 1024 657 1140
1057 716 895 1051
1058 657 1069 1140
1059 646 942 1100
1060 691 1124 1133
1061 357 781 1082
1062 892 181 1060
1063 758 877 899
1064 737 1238 1350
1065 817 1346 1238
1066 927 1350 1346
1067 1346 1350 1238
1068 888 756 1150
1069 881 672 1147
1070 707 815 977
1071 66 61 1049
1072 367 362 1082
1073 925 674 1173
1074 448 443 984
1075 699 926 943
1076 874 628 985
1077 702 995 1040
1078 625 967 1092
1079 692 1022 1134
1080 883 770 1028
1081 945 227 1043
1082 973 670 1051
1083 773 932 1072
1084 767 1352 1351
1085 844 1256 1352
1086 911 1351 1256
1087 1256 1351 1352
1088 418 413 1095
1089 906 136 954
1090 691 884 1105
1091 593 588 988
1092 716 860 904
1093 181 176 1060
1094 926 653 943
1095 282 919 1057
1096 656 783 804
1097 227 222 1043
1098 121 872 904
1099 947 761 975
1100 428 423 993
1101 1006 677 1193
1102 931 609 996
1103 503 1353 1285
1104 498 1311 1353
1105 1074 1285 1311
1106 1311 1285 1353
1107 678 965 994
1108 658 684 920
1109 754 955 974
1110 616 606 1151
1111 653 829 943
1112 945 773 1072
1113 788 991 1087
1114 458 453 1065
1115 751 685 1101
1116 908 769 1088
1117 987 893 1117
1118 842 706 877
1119 788 862 1039
1120 1089 705 1138
1121 111 884 1133
1122 1039 862 1194
1123 156 151 992
1124 106 101 1088
1125 217 212 1127
1126 1067 833 1096
1127 222 217 1071
1128 828 886 1010
1129 695 887 892
1130 26 21 1025
1131 453 929 1065
1132 728 1075 1192
1133 637 891 1067
1134 960 668 1155
1135 242 947 975
1136 765 981 1007
1137 651 1005 1089
1138 1014 1261 1325
1139 809 1354 1261
1140 1030 1325 1354
1141 1354 1325 1261
1142 146 141 1091
1143 789 971 1041
1144 841 783 1080
1145 900 756 984
1146 806 625 1092
1147 773 945 1043
1148 705 1005 1099
1149 785 744 1038
1150 962 644 1085
1151 946 638 1001
1152 680 775 776
1153 635 976 977
1154 676 1004 1026
1155 854 762 930
1156 971 654 1156
1157 1024 715 1035
1158 1168 687 1179
1159 805 774 1153
1160 903 272 1178
1161 670 739 1051
1162 41 36 1061
1163 929 448 984
1164 1090 747 1115
1165 865 721 1026
1166 930 598 1164
1167 709 849 1006
1168 1048 865 1139
1169 941 543 1019
1170 896 1265 1355
1171 518 1343 1265
1172 938 1355 1343
1173 1343 1355 1265
1174 885 840 1128
1175 1027 663 1356
1176 1027 1356 1068
1177 690 1038 1144
1178 961 46 1011
1179 911 1242 1358
1180 632 1357 1242
1181 1021 1358 1357
1182 1357 1358 1242
1183 988 989 1126
1184 643 818 951
1185 736 850 1170
1186 715 946 1035
1187 623 622 1116
1188 202 397 1120
1189 553 548 1020
1190 528 1361 1360
1191 523 1359 1361
1192 998 1360 1359
1193 1359 1360 1361
1194 916 690 1186
1195 1008 26 1025
1196 829 696 943
1197 212 957 1127
1198 986 689 1122
1199 741 634 1160
1200 752 656 804
1201 735 923 924
1202 789 878 1049
1203 735 724 1062
1204 697 1023 1070
1205 606 615 1151
1206 697 851 1072
1207 663 1027 1109
1208 1054 690 1059
1209 761 947 1112
1210 910 768 956
1211 934 146 1091
1212 267 959 1178
1213 878 720 928
1214 186 1142 1362
1215 186 1362 191
1216 176 950 1060
1217 633 830 1130
1218 1009 727 1183
1219 1109 837 1299
1220 1109 1299 663
1221 958 418 1095
1222 693 779 781
1223 796 1008 1025
1224 815 891 974
1225 790 826 1113
1226 693 765 779
1227 563 558 1031
1228 728 831 1075
1229 588 583 989
1230 666 909 1135
1231 822 1208 1335
1232 1 1318 1208
1233 968 1335 1318
1234 1318 1335 1208
1235 716 751 1101
1236 825 727 1009
1237 620 607 1182
1238 972 644 1052
1239 1071 217 1127
1240 1095 413 1152
1241 941 775 1020
1242 257 964 1121
1243 1069 796 1140
1244 573 568 1036
1245 768 908 1122
1246 755 972 1052
1247 848 810 1175
1248 1043 222 1071
1249 901 1004 1158
1250 607 619 1182
1251 141 906 1091
1252 630 819 933
1253 392 387 1165
1254 868 625 1086
1255 906 739 1138
1256 687 985 1179
1257 262 257 1121
1258 795 651 1058
1259 629 749 1153
1260 743 1365 1364
1261 853 1363 1365
1262 1141 1364 1363
1263 1363 1364 1365
1264 21 952 1025
1265 1005 706 1099
1266 667 838 1167
1267 798 800 951
1268 925 814 1119
1269 583 578 997
1270 750 863 961
1271 1011 41 1061
1272 743 1244 1367
1273 782 1366 1244
1274 935 1367 1366
1275 1366 1367 1244
1276 397 978 1120
1277 814 1012 1018
1278 272 267 1178
1279 851 697 1112
1280 1042 784 1183
1281 807 1015 1016
1282 686 652 694
1283 533 1370 1369
1284 528 1368 1370
1285 999 1369 1368
1286 1368 1369 1370
1287 382 377 1007
1288 161 156 1123
1289 894 677 1006
1290 1055 819 1104
1291 850 719 1170
1292 1000 718 1175
1293 1157 778 1194
1294 775 949 1020
1295 423 958 993
1296 698 780 786
1297 973 627 1086
1298 788 913 1177
1299 1047 636 1169
1300 543 538 1371
1301 543 1371 1019
1302 151 934 992
1303 806 742 1058
1304 950 171 1143
1305 695 940 1328
1306 695 1328 887
1307 1153 664 1172
1308 1028 633 1145
1309 513 1200 1342
1310 823 1372 1200
1311 938 1342 1372
1312 1372 1342 1200
1313 878 789 1041
1314 936 789 1049
1315 739 670 1138
1316 1023 784 1070
1317 1044 826 1193
1318 949 553 1020
1319 953 161 1123
1320 757 980 1064
1321 798 678 800
1322 853 1365 1276
1323 743 1367 1365
1324 935 1276 1367
1325 1367 1276 1365
1326 971 700 1039
1327 882 624 1136
1328 775 698 786
1329 676 979 1158
1330 877 642 899
1331 1026 721 1128
1332 731 811 919
1333 684 661 867
1334 786 780 970
1335 783 656 1080
1336 942 665 1100
1337 976 730 1013
1338 735 922 923
1339 935 1366 1294
1340 782 1349 1366
1341 1056 1294 1349
1342 1349 1294 1366
1343 754 838 1033
1344 593 988 1164
1345 1045 627 1191
1346 171 166 1143
1347 1002 1374 1373
1348 681 1326 1374
1349 1030 1373 1326
1350 1326 1373 1374
1351 787 978 1165
1352 719 1053 1157
1353 775 786 949
1354 841 833 1132
1355 779 765 982
1356 991 788 1177
1357 908 986 1122
1358 959 262 1121
1359 166 953 1143
1360 761 875 975
1361 805 749 944
1362 818 637 1096
1363 723 827 889
1364 720 878 1041
1365 939 1303 1375
1366 191 1362 1303
1367 1142 1375 1362
1368 1362 1375 1303
1369 785 847 1111
1370 720 876 1181
1371 976 783 977
1372 710 785 1038
1373 848 1168 1179
1374 708 1093 1172
1375 704 834 1181
1376 776 775 941
1377 821 906 1138
1378 845 715 1107
1379 101 908 1088
1380 1150 760 1174
1381 676 1026 1128
1382 618 901 1158
1383 627 1045 1086
1384 548 941 1020
1385 891 707 1067
1386 896 1378 1377
1387 777 1376 1378
1388 1097 1377 1376
1389 1376 1377 1378
1390 672 888 1147
1391 673 888 1150
1392 1379 990 1319
1393 776 1019 1319
1394 1019 1379 1319
1395 951 741 1003
1396 665 962 1100
1397 1066 772 1111
1398 746 912 1026
1399 851 945 1072
1400 377 982 1007
1401 372 367 1098
1402 1022 685 1134
1403 821 705 1185
1404 558 949 1031
1405 692 812 1189
1406 1014 1327 1380
1407 681 1251 1327
1408 1083 1380 1251
1409 1251 1380 1327
1410 871 1381 1310
1411 737 1350 1381
1412 927 1310 1350
1413 1350 1310 1381
1414 932 697 1072
1415 764 893 1050
1416 752 753 846
1417 810 1000 1175
1418 674 1090 1115
1419 667 1167 1177
1420 932 666 1135
1421 1002 1373 1383
1422 1030 1382 1373
1423 1195 1383 1382
1424 1382 1383 1373
1425 774 664 1153
1426 1124 808 1133
1427 838 754 1167
1428 651 806 1058
1429 888 673 1119
1430 670 973 1063
1431 1042 761 1070
1432 957 870 1127
1433 664 1136 1172
1434 741 818 1096
1435 706 1005 1125
1436 970 563 1031
1437 865 912 1139
1438 1003 741 1160
1439 825 1009 1149
1440 658 920 1029
1441 884 691 1133
1442 1090 673 1174
1443 825 959 1121
1444 873 710 1094
1445 816 987 1110
1446 669 1045 1191
1447 1093 629 1172
1448 769 966 1105
1449 387 981 1165
1450 645 1053 1102
1451 642 877 1125
1452 804 783 976
1453 568 970 1036
1454 886 645 1102
1455 862 1157 1194
1456 1030 1384 1382
1457 662 1271 1384
1458 1195 1382 1271
1459 1271 1382 1384
1460 717 1024 1140
1461 824 909 1052
1462 657 1024 1035
1463 711 787 1189
1464 1006 849 1118
1465 670 1089 1138
1466 959 825 1149
1467 1084 740 1154
1468 800 678 994
1469 736 836 850
1470 709 1059 1144
1471 737 1386 1236
1472 1068 1385 1386
1473 1083 1236 1385
1474 1385 1236 1386
1475 523 1266 1359
1476 896 1387 1266
1477 998 1359 1387
1478 1387 1359 1266
1479 877 706 1125
1480 664 882 1136
1481 693 669 1022
1482 850 836 1102
1483 1093 708 1118
1484 970 780 1036
1485 860 739 954
1486 1075 918 1169
1487 1075 636 1192
1488 876 720 1156
1489 947 851 1112
1490 894 1006 1118
1491 1046 667 1190
1492 1076 714 1137
1493 832 992 1185
1494 718 1000 1116
1495 747 1090 1174
1496 980 914 1064
1497 798 728 1192
1498 663 1298 1388
1499 1014 1380 1298
1500 1083 1388 1380
1501 1380 1388 1298
1502 991 647 1087
1503 948 792 1188
1504 156 992 1123
1505 1053 778 1157
1506 853 1389 1363
1507 817 1309 1389
1508 1141 1363 1309
1509 1309 1363 1389
1510 771 967 1079
1511 632 948 1188
1512 978 392 1165
1513 1002 1315 1390
1514 743 1364 1315
1515 1141 1390 1364
1516 1364 1390 1315
1517 863 750 1171
1518 790 1054 1059
1519 946 738 1035
1520 784 1042 1070
1521 844 1352 1322
1522 767 1223 1352
1523 1184 1322 1223
1524 1223 1322 1352
1525 1059 690 1144
1526 1016 1015 1168
1527 989 763 1126
1528 898 760 1034
1529 699 943 1055
1530 990 1336 1391
1531 533 1369 1336
1532 999 1391 1369
1533 1369 1391 1336
1534 696 1017 1055
1535 760 900 1034
1536 762 854 1126
1537 731 903 1166
1538 827 633 1130
1539 864 1095 1152
1540 1347 937 1317
1541 631 1106 1317
1542 1106 1347 1317
1543 709 1006 1193
1544 893 764 1117
1545 964 825 1121
1546 909 755 1052
1547 1073 629 1093
1548 823 1393 1392
1549 734 1332 1393
1550 1146 1392 1332
1551 1332 1392 1393
1552 909 824 1135
1553 988 588 989
1554 733 671 1162
1555 639 890 1066
1556 807 861 1169
1557 992 832 1123
1558 1137 864 1152
1559 1099 832 1185
1560 1068 1356 1385
1561 663 1388 1356
1562 1083 1385 1388
1563 1388 1385 1356
1564 771 915 967
1565 812 692 1134
1566 1097 1376 1395
1567 777 1394 1376
1568 1129 1395 1394
1569 1394 1395 1376
1570 1068 1386 1397
1571 737 1396 1386
1572 1180 1397 1396
1573 1396 1397 1386
1574 933 819 1017
1575 982 372 1098
1576 959 856 1178
1577 799 701 1064
1578 686 694 867
1579 798 951 1003
1580 1188 1021 1357
1581 1188 1357 632
1582 738 946 1001
1583 801 897 1065
1584 835 1011 1061
1585 648 881 1147
1586 929 801 1065
1587 728 798 1003
1588 792 855 1188
1589 767 1351 1221
1590 911 1358 1351
1591 1021 1221 1358
1592 1358 1221 1351
1593 634 1130 1160
1594 981 382 1007
1595 690 1054 1186
1596 655 925 1173
1597 1000 623 1116
1598 737 1381 1396
1599 871 1306 1381
1600 1180 1396 1306
1601 1306 1396 1381
1602 823 1399 1372
1603 777 1398 1399
1604 938 1372 1398
1605 1398 1372 1399
1606 674 1062 1173
1607 1070 761 1112
1608 1009 726 1149
1609 962 766 1100
1610 830 728 1003
1611 706 832 1099
1612 678 798 1192
1613 720 1041 1156
1614 1062 724 1173
1615 662 1384 1280
1616 1030 1400 1384
1617 1148 1280 1400
1618 1400 1280 1384
1619 777 1399 1401
1620 823 1392 1399
1621 1146 1401 1392
1622 1392 1401 1399
1623 739 906 954
1624 1037 718 1116
1625 619 979 1182
1626 835 1046 1190
1627 854 988 1126
1628 629 1153 1172
1629 967 650 1079
1630 712 1316 1282
1631 1002 1383 1316
1632 1195 1282 1383
1633 1383 1282 1316
1634 1027 881 1109
1635 1154 876 1156
1636 989 583 997
1637 906 821 1091
1638 1088 769 1108
1639 987 666 1110
1640 780 907 1036
1641 727 1042 1183
1642 742 806 1092
1643 955 815 974
1644 670 1063 1089
1645 914 799 1064
1646 1058 742 1131
1647 777 1402 1394
1648 679 1269 1402
1649 1129 1394 1269
1650 1269 1394 1402
1651 666 987 1117
1652 1017 819 1055
1653 758 892 1060
1654 950 758 1060
1655 856 726 1166
1656 982 765 1007
1657 679 1402 1300
1658 777 1401 1402
1659 1146 1300 1401
1660 1401 1300 1402
1661 818 741 951
1662 1167 991 1177
1663 856 903 1178
1664 913 667 1177
1665 830 1003 1160
1666 995 660 1040
1667 650 1078 1079
1668 538 1337 1371
1669 990 1379 1337
1670 1019 1371 1379
1671 1379 1371 1337
1672 943 696 1055
1673 726 856 1149
1674 886 649 1010
1675 769 1105 1108
1676 661 659 686
1677 827 723 1145
1678 852 733 1161
1679 1329 939 1375
1680 1142 887 1329
1681 1142 1329 1375
1682 861 1047 1169
1683 817 1389 1345
1684 853 1348 1389
1685 1032 1345 1348
1686 1348 1345 1389
1687 856 959 1149
1688 836 886 1102
1689 633 827 1145
1690 669 652 1045
1691 673 1150 1174
1692 1113 616 1151
1693 1155 731 1166
1694 699 846 926
1695 528 1360 1368
1696 998 1403 1360
1697 999 1368 1403
1698 1403 1368 1360
1699 723 1028 1145
1700 654 1084 1154
1701 781 779 1082
1702 697 1070 1112
1703 766 962 1085
1704 791 958 1095
1705 726 1155 1166
1706 778 1084 1194
1707 998 1405 1403
1708 857 1404 1405
1709 999 1403 1404
1710 1404 1403 1405
1711 799 914 965
1712 1084 654 1194
1713 1067 707 1132
1714 790 1113 1151
1715 749 805 1153
1716 821 934 1091
1717 799 965 1047
1718 864 791 1095
1719 734 1393 1339
1720 823 1302 1393
1721 983 1339 1302
1722 1302 1339 1393
1723 992 934 1185
1724 919 811 1057
1725 367 1082 1098
1726 849 1093 1118
1727 923 922 1076
1728 903 856 1166
1729 988 854 1164
1730 725 1068 1397
1731 725 1397 1180
1732 1012 638 1018
1733 842 950 1143
1734 776 941 1019
1735 998 1387 1406
1736 896 1377 1387
1737 1097 1406 1377
1738 1377 1406 1387
1739 973 797 1063
1740 1030 1354 1400
1741 809 1293 1354
1742 1148 1400 1293
1743 1293 1400 1354
1744 1136 921 1172
1745 832 953 1123
1746 953 842 1143
1747 918 807 1169
1748 1015 687 1168
1749 1054 614 1186
1750 1063 651 1089
1751 758 950 1176
1752 797 973 1086
1753 985 628 1179
1754 705 1099 1185
1755 722 841 1080
1756 1161 733 1162
1757 630 933 1131
1758 857 1405 1407
1759 998 1406 1405
1760 1097 1407 1406
1761 1406 1407 1405
1762 966 813 1105
1763 777 1378 1398
1764 896 1355 1378
1765 938 1398 1355
1766 1355 1398 1378
1767 106 1088 1108
1768 794 1016 1168
1769 978 869 1120
1770 950 842 1176
1771 681 1374 1308
1772 1002 1390 1374
1773 1141 1308 1390
1774 1390 1308 1374
1775 622 1037 1116
1776 981 787 1165
1777 1162 671 1163
1778 654 1154 1156
1779 1005 795 1125
1780 849 1073 1093
1781 855 1021 1188
1782 1105 884 1108
1783 967 915 1092
1784 1022 669 1191
1785 804 976 1013
1786 854 930 1164
1787 1078 800 1079
1788 786 970 1031
1789 949 786 1031
1790 1045 868 1086
1791 882 1161 1162
1792 1053 850 1102
1793 682 1206 1408
1794 857 1407 1206
1795 1097 1408 1407
1796 1407 1408 1206
1797 1130 830 1160
1798 857 1320 1404
1799 990 1391 1320
1800 999 1404 1391
1801 1391 1404 1320
1802 682 1408 1323
1803 1097 1395 1408
1804 1129 1323 1395
1805 1395 1323 1408
1806 779 982 1098
1807 1082 779 1098
1808 292 287 1057
1809 297 292 1187
1810 811 292 1057
1811 292 811 1187
1812 302 297 1187
1813 307 302 1187
1814 312 307 684
1815 684 307 1187
1816 317 312 867
1817 312 684 867
1818 322 317 867
1819 327 322 867
1820 332 327 867
1821 337 332 867
1822 342 337 694
1823 694 337 867
1824 347 342 694
1825 352 347 781
1826 347 694 781
1827 357 352 781
1828 362 357 1082
1829 923 403 930
1830 403 1076 1137
1831 921 624 980
1832 624 921 1136
1833 742 630 1131
1834 752 640 803
1835 640 752 846
1836 805 640 820
1837 640 846 1104
1838 649 643 659
1839 643 649 836
1840 643 650 659
1841 736 643 836
1842 652 650 868
1843 656 752 803
1844 920 668 942
1845 675 735 924
1846 675 753 1013
1847 680 698 775
1848 683 731 1155
1849 693 692 765
1850 846 699 1104
1851 762 703 923
1852 708 921 980
1853 922 714 1076
1854 753 752 1013
$EndElements
